<?xml version="1.0" standalone="no"?>
<!DOCTYPE svg PUBLIC "-//W3C//DTD SVG 1.1//EN" "http://www.w3.org/Graphics/SVG/1.1/DTD/svg11.dtd" >
<svg>
<metadata>
Created by FontForge 20090622 at Fri May  6 15:18:49 2016
 By deploy user
&#194;&#169;2010 Paul Barnes and Christian Schwartz, under exclusive license to Schwartzco Inc./Commercial Type. All rights reserved.
</metadata>
<defs>
<font id="PublicoHeadlineWeb-Medium" horiz-adv-x="603" >
  <font-face 
    font-family="Publico Headline Web Medium"
    font-weight="500"
    font-stretch="normal"
    units-per-em="1000"
    panose-1="2 4 6 2 6 5 4 6 2 3"
    ascent="801"
    descent="-199"
    x-height="515"
    cap-height="693"
    bbox="-135 -248 1204 1059"
    underline-thickness="50"
    underline-position="-50"
    unicode-range="U+0020-U+FB04"
  />
<missing-glyph horiz-adv-x="500" 
 />
    <glyph glyph-name="f_i" unicode="fi" horiz-adv-x="592" 
d="M15 23l32 8q10 3 16.5 6t10 9t4.5 15.5t1 24.5v377h-70v22l70 31v21q0 105 66.5 163.5t189.5 58.5q69 0 101.5 -22t32.5 -59q0 -22 -14 -38t-44 -16q-35 0 -52.5 16.5t-21.5 56.5q-2 14 -8.5 20t-22.5 6q-38 0 -65.5 -27.5t-27.5 -95.5v-85h180l118 14l10 -6
q-1 -14 -2.5 -41.5t-1.5 -64.5v-331q0 -32 6 -41t26 -14l32 -8v-23h-257v23l29 8q19 5 24.5 14t5.5 41v320q0 35 -9.5 46t-33.5 11h-127v-373q0 -18 1 -28.5t4 -16.5t9 -8.5t16 -5.5l31 -8v-23h-259v23z" />
    <glyph glyph-name="f_l" unicode="fl" horiz-adv-x="594" 
d="M324 23l29 8q19 5 24.5 14t5.5 41v549q-48 6 -52 64q-2 15 -7 20t-19 5q-18 0 -34.5 -5.5t-29.5 -19t-20.5 -36.5t-7.5 -59v-89h110l-12 -52h-98v-373q0 -18 1 -28.5t4 -16.5t9 -8.5t16 -5.5l31 -8v-23h-259v23l32 8q10 3 16.5 6t10 9t4.5 15.5t1 24.5v377h-70v22l70 31
v25q0 52 18 92.5t50.5 68.5t78 42.5t101.5 14.5q48 0 77.5 -11t42.5 -29l64 37l9 -7q-1 -16 -2 -34q-1 -16 -1 -38v-47v-544q0 -16 1 -25.5t4.5 -15t10 -8.5t17.5 -6l32 -8v-23h-258v23z" />
    <glyph glyph-name="f_b" unicode="fb" horiz-adv-x="909" 
d="M592 -12q-66 0 -116 11.5t-93 36.5v599q-48 6 -52 64q-2 15 -7 20t-19 5q-18 0 -34.5 -5.5t-29.5 -19t-20.5 -36.5t-7.5 -59v-89h110l-12 -52h-98v-373q0 -18 1 -28t4 -16t9 -9t17 -5l44 -9v-23h-273v23l32 8q10 3 16.5 6t10 9t4.5 15.5t1 24.5v377h-70v22l70 31v25
q0 52 18 92.5t50.5 68.5t78 42.5t101.5 14.5q48 0 77.5 -11t42.5 -29l64 37l9 -7q-1 -14 -2 -32q-1 -16 -1 -37.5v-49.5v-73q0 -20 -0.5 -36t-1.5 -29q-1 -15 -1 -27h5q30 26 72.5 45t94.5 19q35 0 70 -12.5t63 -41t45.5 -75.5t17.5 -116q0 -75 -21.5 -131t-60.5 -92.5
t-92 -54.5t-116 -18zM604 25q35 0 61 11t43.5 37t26 70.5t8.5 111.5q0 107 -34.5 153t-98.5 46q-35 0 -57 -8.5t-36 -14.5v-370q16 -17 37 -26.5t50 -9.5z" />
    <glyph glyph-name="f_f" unicode="ff" horiz-adv-x="635" 
d="M320 23l30 8q10 3 16.5 6t10 9t5 15.5t1.5 24.5v377h-170v-373q0 -18 1 -28.5t4 -16.5t9 -8.5t16 -5.5l31 -8v-23h-259v23l32 8q10 3 16.5 6t10 9t4.5 15.5t1 24.5v377h-70v22l70 31v23q0 49 17 87.5t47 65.5t72 41.5t93 14.5q53 0 81.5 -18.5t28.5 -50.5q0 -3 -0.5 -5.5
t-0.5 -4.5q29 43 81.5 66.5t122.5 23.5q54 0 82.5 -18.5t28.5 -51.5q0 -24 -14 -38.5t-41 -14.5q-31 0 -46.5 14.5t-18.5 46.5q-2 17 -5.5 22t-13.5 5q-14 0 -28 -5t-24.5 -18t-17 -34t-6.5 -53v-99h114l-12 -52h-102v-373q0 -18 1 -28.5t4.5 -16.5t9.5 -8.5t16 -4.5l44 -9
v-23h-272v23zM213 515h170v35q0 50 18 91q-13 -11 -34 -11q-29 0 -44 13t-18 42q-2 17 -6 22.5t-14 5.5q-15 0 -28 -5.5t-23 -18t-15.5 -34t-5.5 -53.5v-87z" />
    <glyph glyph-name="f_f_b" unicode="ffb" horiz-adv-x="1213" 
d="M322 23l31 8q19 5 24.5 14t5.5 41v377h-170v-373q0 -18 1 -28.5t4 -16.5t9 -8.5t16 -5.5l31 -8v-23h-259v23l32 8q10 3 16.5 6t10 9t4.5 15.5t1 24.5v377h-70v22l70 31v23q0 49 17 87.5t47 65.5t72 41.5t93 14.5q53 0 81.5 -18.5t28.5 -50.5q0 -11 -3 -18q30 48 85.5 73
t130.5 25q48 0 77.5 -11t42.5 -29l64 37l9 -7q-1 -14 -2 -32q-1 -16 -1.5 -37.5t-0.5 -49.5v-73q0 -20 -0.5 -36t-0.5 -29q-1 -15 -1 -27h4q31 26 73.5 45t93.5 19q36 0 71 -12.5t63 -41t45.5 -75.5t17.5 -116q0 -75 -21.5 -131t-60.5 -92.5t-92 -54.5t-116 -18
q-67 0 -116.5 11.5t-93.5 36.5v599q-25 4 -37 19t-14 45q-2 15 -7.5 20t-18.5 5q-18 0 -35 -5.5t-29.5 -19t-20 -36.5t-7.5 -59v-89h110l-12 -52h-98v-373q0 -18 1 -28t4 -16t9 -9t17 -5l44 -9v-23h-270v23zM907 25q35 0 61.5 11t44 37t26 70.5t8.5 111.5q0 107 -35 153
t-98 46q-35 0 -57.5 -8.5t-36.5 -14.5v-370q17 -17 38 -26.5t49 -9.5zM213 515h170v26q0 60 23 104q-13 -15 -39 -15q-29 0 -44 13t-18 42q-2 17 -6 22.5t-14 5.5q-15 0 -28 -5.5t-23 -18t-15.5 -34t-5.5 -53.5v-87z" />
    <glyph glyph-name="f_f_h" unicode="ffh" horiz-adv-x="1215" 
d="M322 23l31 8q19 5 24.5 14t5.5 41v377h-170v-373q0 -18 1 -28.5t4 -16.5t9 -8.5t16 -5.5l31 -8v-23h-259v23l32 8q10 3 16.5 6t10 9t4.5 15.5t1 24.5v377h-70v22l70 31v23q0 49 17 87.5t47 65.5t72 41.5t93 14.5q53 0 81.5 -18.5t28.5 -50.5q0 -11 -3 -18q30 48 85.5 73
t130.5 25q48 0 77.5 -11t42.5 -29l64 37l9 -7q-1 -16 -2 -34q-1 -16 -1.5 -38t-0.5 -47v-73q0 -20 -0.5 -36.5t-1.5 -29.5q-1 -15 -1 -28h5q38 26 86.5 46t99.5 20q69 0 100.5 -32.5t31.5 -100.5v-310q0 -16 1.5 -25.5t5 -15t9.5 -8.5t16 -6l32 -8v-23h-258v23l30 8
q10 3 16 5.5t9 8t4 15t1 26.5v278q0 48 -17.5 66.5t-57.5 18.5q-31 0 -61.5 -6.5t-49.5 -11.5v-345q0 -17 1 -26.5t4.5 -15t9.5 -8t15 -5.5l31 -8v-23h-253v23l29 8q18 5 23.5 14t5.5 41v549q-25 4 -37 19t-14 45q-2 15 -7.5 20t-18.5 5q-18 0 -35 -5.5t-29.5 -19t-20 -36.5
t-7.5 -59v-89h110l-12 -52h-98v-373q0 -18 1 -28.5t4 -16.5t8.5 -8.5t15.5 -5.5l31 -8v-23h-255v23zM213 515h170v26q0 60 23 104q-13 -15 -39 -15q-29 0 -44 13t-18 42q-2 17 -6 22.5t-14 5.5q-15 0 -28 -5.5t-23 -18t-15.5 -34t-5.5 -53.5v-87z" />
    <glyph glyph-name="f_f_i" unicode="ffi" horiz-adv-x="896" 
d="M15 23l32 8q10 3 16.5 6t10 9t4.5 15.5t1 24.5v377h-70v22l70 31v23q0 49 17 87.5t47 65.5t72 41.5t93 14.5q53 0 81.5 -18.5t28.5 -50.5q0 -12 -4 -20q30 48 87 74t138 26q69 0 101.5 -22t32.5 -59q0 -22 -14 -38t-44 -16q-36 0 -53 16.5t-21 56.5q-3 26 -31 26
q-38 0 -65.5 -27.5t-27.5 -95.5v-85h179l119 14l9 -6q-1 -14 -2.5 -41.5t-1.5 -64.5v-331q0 -32 6 -41t27 -14l32 -8v-23h-257v23l29 8q19 5 24 14t5 41v320q0 35 -9 46t-33 11h-127v-373q0 -18 1 -28.5t4 -16.5t8.5 -8.5t15.5 -5.5l31 -8v-23h-253v23l29 8q19 5 24.5 14
t5.5 41v377h-170v-373q0 -18 1 -28.5t4 -16.5t9 -8.5t16 -5.5l31 -8v-23h-259v23zM383 537q0 64 25 110q-15 -17 -41 -17q-29 0 -44 13t-18 42q-2 17 -6 22.5t-14 5.5q-15 0 -28 -5.5t-23 -18t-15.5 -34t-5.5 -53.5v-87h170v22z" />
    <glyph glyph-name="f_f_j" unicode="ffj" horiz-adv-x="889" 
d="M620 -210q-59 0 -87 23.5t-28 56.5q0 25 16.5 39t42.5 14q32 0 45.5 -16t17.5 -51q2 -20 6 -25t11 -5q20 0 31 15.5t11 48.5v516q0 35 -9 46t-33 11h-127v-373q0 -18 1 -28t4 -16t9 -9t17 -5l36 -9v-23h-262v23l31 8q19 5 24.5 14t5.5 41v377h-170v-373q0 -18 1 -28.5
t4 -16.5t9 -8.5t16 -5.5l31 -8v-23h-259v23l32 8q10 3 16.5 6t10 9t4.5 15.5t1 24.5v377h-70v22l70 31v23q0 49 17 87.5t47 65.5t72 41.5t93 14.5q53 0 81.5 -18.5t28.5 -50.5q0 -12 -4 -20q30 48 87 74t138 26q69 0 101.5 -22t32.5 -59q0 -22 -14 -38t-44 -16
q-36 0 -53 16.5t-21 56.5q-3 26 -31 26q-38 0 -65.5 -27.5t-27.5 -95.5v-85h179l119 14l9 -6q-1 -14 -2.5 -41.5t-1.5 -64.5v-414q0 -55 -15 -95t-42 -66.5t-63.5 -39t-79.5 -12.5zM213 515h170v22q0 64 25 110q-15 -17 -41 -17q-29 0 -44 13t-18 42q-2 17 -6 22.5t-14 5.5
q-15 0 -28 -5.5t-23 -18t-15.5 -34t-5.5 -53.5v-87z" />
    <glyph glyph-name="f_f_k" unicode="ffk" horiz-adv-x="1171" 
d="M322 23l31 8q19 5 24.5 14t5.5 41v377h-170v-373q0 -18 1 -28.5t4 -16.5t9 -8.5t16 -5.5l31 -8v-23h-259v23l32 8q10 3 16.5 6t10 9t4.5 15.5t1 24.5v377h-70v22l70 31v23q0 49 17 87.5t47 65.5t72 41.5t93 14.5q53 0 81.5 -18.5t28.5 -50.5q0 -11 -3 -18q30 48 85.5 73
t130.5 25q48 0 77.5 -11t42.5 -29l64 37l9 -7q-1 -16 -2 -34q-1 -16 -1.5 -38t-0.5 -47v-544q0 -17 1 -26.5t4.5 -15t9.5 -8t15 -5.5l30 -8v-23h-252v23l29 8q19 5 24 14t5 41v549q-25 4 -37 19t-14 45q-2 15 -7.5 20t-18.5 5q-18 0 -35 -5.5t-29.5 -19t-20 -36.5t-7.5 -59
v-89h110l-12 -52h-98v-373q0 -18 1 -28.5t4 -16.5t8.5 -8.5t15.5 -5.5l31 -8v-23h-255v23zM1006 0q-51 63 -91.5 124l-78.5 124v13l114 126q27 30 35 46.5t8 27.5q0 17 -33 27l-14 4v23h200v-23l-24 -7q-10 -3 -18.5 -7t-18 -10.5t-21 -17.5l-27.5 -27l-99 -103l43 -70.5
l47 -71.5l48 -67t45 -57q8 -10 15.5 -15.5t18.5 -8.5l21 -7v-23h-170zM213 515h170v26q0 60 23 104q-13 -15 -39 -15q-29 0 -44 13t-18 42q-2 17 -6 22.5t-14 5.5q-15 0 -28 -5.5t-23 -18t-15.5 -34t-5.5 -53.5v-87z" />
    <glyph glyph-name="f_f_l" unicode="ffl" horiz-adv-x="898" 
d="M322 23l31 8q19 5 24.5 14t5.5 41v377h-170v-373q0 -18 1 -28.5t4 -16.5t9 -8.5t16 -5.5l31 -8v-23h-259v23l32 8q10 3 16.5 6t10 9t4.5 15.5t1 24.5v377h-70v22l70 31v23q0 49 17 87.5t47 65.5t72 41.5t93 14.5q53 0 81.5 -18.5t28.5 -50.5q0 -11 -3 -18q30 48 85.5 73
t130.5 25q48 0 77.5 -11t42.5 -29l64 37l9 -7q-1 -16 -2 -34q-1 -16 -1.5 -38t-0.5 -47v-544q0 -16 1 -25.5t5 -15t10.5 -8.5t17.5 -6l32 -8v-23h-258v23l29 8q19 5 24 14t5 41v549q-25 4 -37 19t-14 45q-2 15 -7.5 20t-18.5 5q-18 0 -35 -5.5t-29.5 -19t-20 -36.5t-7.5 -59
v-89h110l-12 -52h-98v-373q0 -18 1 -28.5t4 -16.5t8.5 -8.5t15.5 -5.5l31 -8v-23h-255v23zM213 515h170v26q0 60 23 104q-13 -15 -39 -15q-29 0 -44 13t-18 42q-2 17 -6 22.5t-14 5.5q-15 0 -28 -5.5t-23 -18t-15.5 -34t-5.5 -53.5v-87z" />
    <glyph glyph-name="f_h" unicode="fh" horiz-adv-x="912" 
d="M324 23l29 8q18 5 24 14t6 41v549q-48 6 -52 64q-2 15 -7 20t-19 5q-18 0 -34.5 -5.5t-29.5 -19t-20.5 -36.5t-7.5 -59v-89h110l-12 -52h-98v-373q0 -18 1 -28.5t4 -16.5t9 -8.5t16 -5.5l31 -8v-23h-259v23l32 8q10 3 16.5 6t10 9t4.5 15.5t1 24.5v377h-70v22l70 31v25
q0 52 18 92.5t50.5 68.5t78 42.5t101.5 14.5q48 0 77.5 -11t42.5 -29l64 37l9 -7q-1 -16 -2 -34q-1 -16 -1 -38v-47v-73q0 -20 -0.5 -36.5t-1.5 -29.5q-1 -15 -1 -28h4q39 26 87 46t100 20q69 0 100.5 -32.5t31.5 -100.5v-310q0 -16 1.5 -25.5t5 -15t9.5 -8.5t16 -6l32 -8
v-23h-259v23l31 8q9 3 15 5.5t9 8t4 15t1 26.5v278q0 48 -17.5 66.5t-57.5 18.5q-31 0 -61.5 -6.5t-48.5 -11.5v-345q0 -17 1 -26.5t4 -15t9 -8t15 -5.5l31 -8v-23h-253v23z" />
    <glyph glyph-name="f_j" unicode="fj" horiz-adv-x="586" 
d="M316 -210q-59 0 -86.5 23.5t-27.5 56.5q0 25 16 39t42 14q32 0 45.5 -16t17.5 -51q3 -20 6.5 -25t11.5 -5q20 0 31 15.5t11 48.5v516q0 35 -9.5 46t-33.5 11h-127v-373q0 -18 1 -28t4 -16t9 -9t17 -5l36 -9v-23h-265v23l32 8q10 3 16.5 6t10 9t4.5 15.5t1 24.5v377h-70
v22l70 31v21q0 105 66.5 163.5t189.5 58.5q69 0 101.5 -22t32.5 -59q0 -22 -14 -38t-44 -16q-35 0 -52.5 16.5t-21.5 56.5q-2 14 -8.5 20t-22.5 6q-38 0 -65.5 -27.5t-27.5 -95.5v-85h180l118 14l10 -6q-1 -14 -2.5 -41.5t-1.5 -64.5v-414q0 -55 -15.5 -95t-42.5 -66.5
t-63.5 -39t-79.5 -12.5z" />
    <glyph glyph-name="f_k" unicode="fk" horiz-adv-x="868" 
d="M324 23l29 8q19 5 24.5 14t5.5 41v549q-48 6 -52 64q-2 15 -7 20t-19 5q-18 0 -34.5 -5.5t-29.5 -19t-20.5 -36.5t-7.5 -59v-89h110l-12 -52h-98v-373q0 -18 1 -28.5t4 -16.5t9 -8.5t16 -5.5l31 -8v-23h-259v23l32 8q10 3 16.5 6t10 9t4.5 15.5t1 24.5v377h-70v22l70 31
v25q0 52 18 92.5t50.5 68.5t78 42.5t101.5 14.5q48 0 77.5 -11t42.5 -29l64 37l9 -7q-1 -16 -2 -34q-1 -16 -1 -38v-47v-544q0 -17 1 -26.5t4 -15t9 -8t15 -5.5l30 -8v-23h-252v23zM702 0q-51 63 -91.5 124t-77.5 124v13l113 126q27 30 35 46.5t8 27.5q0 17 -33 27l-14 4v23
h200v-23l-24 -7q-10 -3 -18.5 -7t-18 -10.5t-21 -17.5l-27.5 -27l-99 -103l43 -70.5l47 -71.5l48 -67t46 -57q14 -19 33 -24l22 -7v-23h-171z" />
    <glyph glyph-name=".notdef" horiz-adv-x="500" 
 />
    <glyph glyph-name=".null" horiz-adv-x="0" 
 />
    <glyph glyph-name="nonmarkingreturn" horiz-adv-x="214" 
 />
    <glyph glyph-name="space" unicode=" " horiz-adv-x="214" 
 />
    <glyph glyph-name="exclam" unicode="!" horiz-adv-x="275" 
d="M138 -6q-30 0 -52 22t-22 51q0 32 22 53t52 21t53 -21t23 -53q0 -15 -6.5 -28t-17 -23t-24 -16t-28.5 -6zM60 591q-6 29 -2 50t15 34.5t28 20t37 6.5t37.5 -6.5t29 -20t15.5 -34.5t-2 -50l-65 -385h-28z" />
    <glyph glyph-name="quotedbl" unicode="&#x22;" horiz-adv-x="363" 
d="M41 617q-8 24 -5.5 41t12 27.5t23 15.5t28.5 5q14 0 27.5 -5t22.5 -15.5t11.5 -27.5t-4.5 -41l-47 -157h-19zM207 617q-8 24 -5.5 41t11.5 27.5t22.5 15.5t28.5 5t28.5 -5t23 -15.5t12 -27.5t-5.5 -41l-49 -157h-19z" />
    <glyph glyph-name="numbersign" unicode="#" horiz-adv-x="523" 
d="M123 187h-92l17 93h93l27 137h-90l16 93h93l37 183h47l-36 -183h120l37 183h47l-36 -183h92l-17 -93h-94l-27 -137h92l-16 -93h-95l-36 -187h-48l37 187h-121l-36 -187h-48zM309 280l27 137h-120l-27 -137h120z" />
    <glyph glyph-name="dollar" unicode="$" horiz-adv-x="510" 
d="M11 109q0 29 18 43.5t43 14.5q32 0 49 -17.5t22 -68.5q1 -15 4.5 -25.5t12.5 -17.5t25 -11t42 -5v267q-56 22 -93.5 45.5t-61 50t-33.5 56.5t-10 66q0 39 15 73t42 59.5t64.5 41.5t82.5 20v65h40v-63q53 -1 90.5 -11t61 -26t34.5 -35.5t11 -38.5q0 -26 -18 -42.5
t-46 -16.5q-35 0 -50.5 19.5t-20.5 67.5q-3 26 -15 36.5t-47 12.5v-247q58 -25 98.5 -49t65 -51t35.5 -58t11 -70q0 -41 -16 -77.5t-44.5 -64t-68 -44.5t-87.5 -20v-98h-40v98q-114 3 -165 36t-51 85zM368 143q0 41 -22 71.5t-79 57.5v-249q52 5 76.5 37t24.5 83zM136 561
q0 -20 4.5 -36.5t16 -31t30 -27.5t46.5 -26v227q-48 -6 -72.5 -35t-24.5 -71z" />
    <glyph glyph-name="percent" unicode="%" horiz-adv-x="756" 
d="M197 346q-31 0 -61.5 10.5t-54.5 32t-39 54t-15 76.5q0 49 17 84t43 57.5t56.5 33t57.5 10.5q29 0 59.5 -11t55 -32.5t40 -55t15.5 -78.5q0 -47 -16.5 -81t-42 -56.5t-56.5 -33t-59 -10.5zM199 376q35 0 51 31t16 112q0 45 -4 74.5t-12.5 47.5t-21 25.5t-29.5 7.5
q-16 0 -28.5 -7t-20.5 -23.5t-12.5 -44.5t-4.5 -71t4 -72t12 -47t20.5 -25.5t29.5 -7.5zM554 -13q-30 0 -60.5 10.5t-54.5 32t-39 54t-15 77.5q0 48 17 83t43 57.5t56 33t57 10.5q29 0 59.5 -11t55 -32.5t40.5 -54.5t16 -78q0 -47 -16.5 -81t-42 -56.5t-56.5 -33.5t-60 -11z
M557 17q34 0 50 31.5t16 111.5q0 45 -4 74.5t-12.5 47.5t-21 25.5t-28.5 7.5q-17 0 -29.5 -6.5t-20.5 -23t-12.5 -44.5t-4.5 -71q0 -87 16 -120t51 -33zM600 714h55l-518 -764h-55z" />
    <glyph glyph-name="ampersand" unicode="&#x26;" horiz-adv-x="709" 
d="M269 -13q-68 0 -115 16.5t-76 43t-42 61t-13 70.5q0 37 14 67t37.5 54t54 43t64.5 34q-26 38 -39.5 73.5t-13.5 73.5q0 40 16 73.5t43 57.5t62 37.5t73 13.5q36 0 67.5 -9t55.5 -26.5t37.5 -43t13.5 -57.5q0 -30 -14 -54t-37 -44.5t-54.5 -37.5t-65.5 -32l80.5 -111
l87.5 -112q21 36 30.5 70.5t9.5 55.5q0 20 -9 28t-26 13l-30 7v24h214v-24l-27 -7q-23 -7 -38.5 -25t-35.5 -55l-26 -54t-35 -64l39 -44.5t37 -38.5q11 -11 21.5 -20t24.5 -12l31 -8v-24h-200q-10 10 -21.5 23l-21.5 24q-32 -25 -75 -42.5t-98 -17.5zM304 36q38 0 66 11.5
t46 27.5q-54 63 -107.5 134t-97.5 139q-50 -50 -50 -142q0 -78 38 -124t105 -46zM320 425q21 13 37 27t27.5 30.5t17 37t5.5 46.5q0 54 -20.5 78.5t-52.5 24.5q-35 0 -55 -24t-20 -65q0 -42 16 -79t45 -76z" />
    <glyph glyph-name="quotesingle" unicode="'" horiz-adv-x="196" 
d="M40 617q-8 24 -5.5 41t12 27.5t23 15.5t28.5 5t28.5 -5t22.5 -15.5t11.5 -27.5t-5.5 -41l-48 -157h-19z" />
    <glyph glyph-name="parenleft" unicode="(" horiz-adv-x="317" 
d="M286 -141q-41 30 -84.5 72t-79.5 96.5t-59.5 123t-23.5 151.5q0 76 23.5 143.5t59.5 124t79.5 101t84.5 74.5l21 -19q-35 -34 -63.5 -78.5t-49.5 -96t-32.5 -110t-11.5 -119.5q0 -81 11.5 -146.5t32.5 -119t49.5 -97.5t63.5 -81l-21 -19v0z" />
    <glyph glyph-name="parenright" unicode=")" horiz-adv-x="317" 
d="M11 -122q68 74 112 178t44 241q0 147 -44 254t-112 175l20 19q41 -30 85 -73t80 -98.5t59.5 -123.5t23.5 -148q0 -78 -23.5 -146t-59.5 -124t-80 -99.5t-85 -73.5z" />
    <glyph glyph-name="asterisk" unicode="*" horiz-adv-x="358" 
d="M84 419q-8 6 -13 15t-5 19t6 20.5t20 19.5l76 51l-91 1q-17 -1 -27.5 4t-16 12.5t-6 17.5t2.5 19q5 18 24.5 26.5t45.5 -12.5l71 -55l-29 85q-6 16 -5 28t7 20t15 11.5t19 3.5q20 0 33.5 -15t1.5 -48l-29 -85l71 55q26 21 45.5 12t24.5 -28q3 -9 2 -19t-6 -17.5t-16 -12
t-27 -3.5h-91l75 -52q28 -18 26 -39.5t-18 -33.5q-8 -5 -17.5 -7t-19 1.5t-17.5 12t-12 24.5l-27 88l-27 -88q-9 -31 -29 -36.5t-37 5.5z" />
    <glyph glyph-name="plus" unicode="+" horiz-adv-x="464" 
d="M202 313h-166v51h166v182h60v-182h166v-51h-166v-182h-60v182z" />
    <glyph glyph-name="comma" unicode="," horiz-adv-x="228" 
d="M23 -96q104 47 102 116q-3 -3 -10.5 -6t-17.5 -3q-27 0 -44.5 17.5t-17.5 46.5q0 30 21.5 48t52.5 18q33 0 58.5 -24t25.5 -69q0 -61 -41.5 -103.5t-121.5 -60.5z" />
    <glyph glyph-name="hyphen" unicode="-" horiz-adv-x="273" 
d="M34 334h215l-11 -89h-214z" />
    <glyph glyph-name="period" unicode="." horiz-adv-x="220" 
d="M110 -6q-31 0 -52.5 21.5t-21.5 51.5q0 32 21.5 53t52.5 21q30 0 52.5 -21t22.5 -53q0 -30 -22.5 -51.5t-52.5 -21.5z" />
    <glyph glyph-name="slash" unicode="/" horiz-adv-x="378" 
d="M308 734h52l-308 -864h-52z" />
    <glyph glyph-name="zero" unicode="0" horiz-adv-x="658" 
d="M326 -12q-54 0 -106.5 20t-93.5 62.5t-66.5 108.5t-25.5 158q0 99 29 169t73 114.5t96.5 64.5t99.5 20q52 0 104 -20.5t94 -63.5t68.5 -109.5t26.5 -159.5q0 -97 -27.5 -166t-71 -113t-96.5 -64.5t-104 -20.5zM329 25q36 0 62.5 16t44 53t25.5 96t8 145q0 95 -8.5 159
t-26 102.5t-44 55t-61.5 16.5q-34 0 -60 -15t-43.5 -51.5t-26.5 -97t-9 -151.5t8.5 -153.5t25.5 -101.5t43 -56t62 -17z" />
    <glyph glyph-name="one" unicode="1" horiz-adv-x="373" 
d="M26 24l48 8q12 2 19.5 5t12 10t6.5 19.5t2 33.5v460l-88 4v25q72 15 125.5 41.5t91.5 70.5l22 -5v-596q0 -21 1.5 -33.5t6 -19.5t11.5 -10t19 -5l45 -8v-24h-322v24z" />
    <glyph glyph-name="two" unicode="2" horiz-adv-x="521" 
d="M15 69q127 104 210 197q27 30 48 58t36 57t22.5 63t7.5 76t-8.5 70.5t-22.5 46t-33 24.5t-41 7q-37 0 -49 -11.5t-14 -37.5q-3 -49 -21.5 -69t-54.5 -20q-32 0 -48 17.5t-16 43.5q0 22 14 43t42 36.5t68 25t93 9.5q52 0 96.5 -12.5t76.5 -37.5t50 -62.5t18 -87.5
q0 -54 -30 -105t-80.5 -99t-116.5 -94t-138 -91v-4h251q19 0 31.5 2.5t21.5 10.5t18 23.5t21 41.5h24l-15 -190h-461v69z" />
    <glyph glyph-name="three" unicode="3" horiz-adv-x="523" 
d="M216 -12q-100 0 -152.5 29t-52.5 83q0 26 16.5 42.5t48.5 16.5q29 0 46.5 -15.5t24.5 -57.5q4 -19 8 -31t10.5 -18.5t19 -9t33.5 -2.5q33 0 55.5 12.5t36.5 35t20 53.5t6 69q0 80 -30 113t-102 33h-51v39h42q67 0 96.5 34t29.5 113q0 73 -25 107t-75 34q-26 0 -37 -8
t-14 -35q-5 -46 -20 -65.5t-51 -19.5q-32 0 -47.5 16.5t-15.5 40.5q0 26 16 46t44 34t64.5 21t78.5 7q108 0 167 -45.5t59 -120.5q0 -56 -41.5 -103t-133.5 -67v-3q90 -8 145.5 -51.5t55.5 -123.5q0 -41 -16.5 -78t-50.5 -64.5t-86 -44t-122 -16.5z" />
    <glyph glyph-name="four" unicode="4" horiz-adv-x="570" 
d="M225 24l39 8q11 2 18.5 5t12 10t6 19.5t1.5 33.5v98h-287v48l344 447h88v-430h105l-11 -65h-94v-98q0 -21 1.5 -33.5t6 -19.5t11.5 -10t19 -5l42 -8v-24h-302v24zM302 263v286h-3l-218 -283v-3h221z" />
    <glyph glyph-name="five" unicode="5" horiz-adv-x="520" 
d="M216 -12q-88 0 -139 28.5t-51 79.5q0 24 16 41.5t48 17.5q33 0 50.5 -16t23.5 -64q4 -31 14.5 -40.5t45.5 -9.5q138 0 138 156q0 41 -13 69.5t-35.5 46t-53.5 25.5t-68 8q-38 0 -67 -5t-46 -11l-10 7l41 372h278q11 0 18.5 1.5t13.5 7t12 16t15 28.5h25l-19 -163h-311
l-17 -150q15 5 42.5 10.5t69.5 5.5q53 0 99 -13.5t80 -41t53.5 -69.5t19.5 -98q0 -53 -20.5 -96.5t-57 -75.5t-86.5 -49.5t-109 -17.5z" />
    <glyph glyph-name="six" unicode="6" horiz-adv-x="580" 
d="M299 -12q-55 0 -104.5 19.5t-86.5 59t-58.5 99t-21.5 139.5q0 107 31 183t80.5 124t111 70.5t123.5 22.5q73 0 118.5 -23.5t45.5 -68.5q0 -26 -15.5 -42.5t-47.5 -16.5q-35 0 -51 17t-22 56q-5 23 -13 32t-32 9q-30 0 -60 -14.5t-54 -49t-40 -92t-19 -142.5q26 18 64 33
t91 15q47 0 86 -13t67.5 -39t44 -64.5t15.5 -88.5q0 -51 -18.5 -92.5t-52 -71t-80 -45.5t-102.5 -16zM301 25q30 0 50 11t31 33t15.5 55t4.5 78q0 87 -28.5 125t-85.5 38q-32 0 -57.5 -7.5t-47.5 -21.5q-1 -11 -1 -14.5v-15.5q0 -64 4 -116t17 -88.5t36 -56.5t62 -20z" />
    <glyph glyph-name="seven" unicode="7" horiz-adv-x="497" 
d="M106 0q21 94 54 175.5t74 153t87.5 134t95.5 119.5h-302q-15 0 -24.5 -2.5t-16.5 -10.5t-13.5 -22.5t-16.5 -39.5h-25l17 186h451v-63q-51 -71 -88 -143t-63.5 -148.5t-44 -160.5t-28.5 -178h-157v0z" />
    <glyph glyph-name="eight" unicode="8" horiz-adv-x="554" 
d="M276 -13q-51 0 -96 11t-79.5 33t-54.5 54.5t-20 76.5q0 28 11.5 53t32 46.5t48.5 40t60 33.5v3q-59 32 -90.5 77t-31.5 101q0 43 18.5 77.5t50 59.5t73 38.5t87.5 13.5q41 0 80 -9.5t69.5 -29.5t49 -50t18.5 -70q0 -25 -11 -47t-29.5 -41.5t-42.5 -36t-49 -30.5v-4
q76 -40 117 -84.5t41 -110.5q0 -41 -19 -78.5t-52.5 -65.5t-79.5 -44.5t-101 -16.5zM283 26q60 0 96 30.5t36 87.5q0 28 -14.5 50.5t-41.5 43t-65.5 40l-86.5 43.5q-12 -12 -24 -26t-21.5 -31.5t-16 -40t-6.5 -50.5q0 -72 36.5 -109.5t107.5 -37.5zM339 406q21 23 38.5 54
t17.5 82q0 63 -30 94t-86 31q-54 0 -84.5 -27t-30.5 -75q0 -26 13 -47.5t36.5 -40.5t55.5 -36.5t70 -34.5z" />
    <glyph glyph-name="nine" unicode="9" horiz-adv-x="580" 
d="M213 -12q-75 0 -121.5 23.5t-46.5 69.5q0 27 15 43t49 16q33 0 49 -17t24 -57q5 -23 13.5 -32t32.5 -9q37 0 67 14.5t51.5 48.5t34 91t15.5 143q-26 -18 -64.5 -33.5t-89.5 -15.5q-47 0 -86 13.5t-67.5 39t-44.5 63.5t-16 88q0 52 18.5 94t52.5 72t80 46t102 16
t105.5 -19.5t86 -59t57.5 -99t21 -139.5q0 -105 -27 -181t-73.5 -124.5t-107.5 -71.5t-130 -23zM290 327q32 0 58.5 7.5t48.5 21.5v31q0 64 -4 116t-16.5 88.5t-35.5 56.5t-62 20q-59 0 -80 -44.5t-21 -135.5q0 -85 27.5 -123t84.5 -38z" />
    <glyph glyph-name="colon" unicode=":" horiz-adv-x="227" 
d="M114 -6q-31 0 -53 21.5t-22 51.5q0 31 22 52.5t53 21.5q30 0 52 -21.5t22 -52.5q0 -30 -22 -51.5t-52 -21.5zM114 281q-31 0 -53 21.5t-22 51.5q0 31 22 52.5t53 21.5q30 0 52 -21.5t22 -52.5q0 -30 -22 -51.5t-52 -21.5z" />
    <glyph glyph-name="semicolon" unicode=";" horiz-adv-x="229" 
d="M25 -96q54 24 78.5 53t23.5 63q-3 -3 -10 -6t-18 -3q-27 0 -44.5 17.5t-17.5 46.5q0 30 22 48t52 18q33 0 58.5 -24t25.5 -69q0 -61 -41.5 -103.5t-121.5 -60.5zM114 281q-31 0 -53 21.5t-22 51.5q0 31 22 52.5t53 21.5q30 0 52 -21.5t22 -52.5q0 -30 -22 -51.5
t-52 -21.5z" />
    <glyph glyph-name="less" unicode="&#x3c;" horiz-adv-x="464" 
d="M34 305v49l392 177v-58l-329 -143l329 -142v-59z" />
    <glyph glyph-name="equal" unicode="=" horiz-adv-x="505" 
d="M36 289h433v-51h-433v51zM36 439h433v-51h-433v51z" />
    <glyph glyph-name="greater" unicode="&#x3e;" horiz-adv-x="464" 
d="M38 129v59l329 142l-329 143v58l392 -177v-49z" />
    <glyph glyph-name="question" unicode="?" horiz-adv-x="456" 
d="M149 380q26 9 51.5 22t46 32.5t33.5 47t13 66.5q0 35 -7.5 58t-20 36.5t-29 19t-34.5 5.5q-23 0 -31 -8t-12 -34q-5 -38 -22 -56t-52 -18q-31 0 -45 17.5t-14 39.5q0 23 13 41t36.5 30.5t55 19t68.5 6.5q106 0 164 -48.5t58 -139.5q0 -45 -17 -81t-47 -64t-71.5 -47.5
t-89.5 -31.5v-87h-47v174zM172 -6q-31 0 -52.5 22t-21.5 51q0 32 21.5 53t52.5 21q30 0 53 -21t23 -53q0 -15 -6.5 -28t-17 -23t-24 -16t-28.5 -6z" />
    <glyph glyph-name="at" unicode="@" horiz-adv-x="864" 
d="M409 -141q-83 0 -153 23.5t-120.5 69t-79 111t-28.5 149.5q0 94 36.5 176.5t98.5 143.5t144 96.5t172 35.5q81 0 147 -22.5t112.5 -63t72 -97t25.5 -124.5q0 -87 -24.5 -148t-62.5 -100t-84 -56.5t-88 -17.5q-32 0 -52.5 8t-32 22.5t-15 33.5t-2.5 40h-4
q-27 -43 -65 -72.5t-82 -29.5q-47 0 -76 32.5t-29 97.5q0 71 24.5 131t62.5 103.5t84.5 67.5t90.5 24q38 0 64 -10.5t49 -26.5h3l43 33l14 -7q-4 -10 -8 -26q-4 -14 -8.5 -34.5l-10.5 -49.5l-35 -190q-9 -51 -2.5 -76.5t38.5 -25.5q24 0 48 14t44 44t32.5 76.5t12.5 110.5
q0 67 -18.5 122.5t-54.5 96t-89.5 63t-124.5 22.5q-77 0 -143.5 -28.5t-116 -80t-77.5 -124t-28 -159.5q0 -74 19 -136t58.5 -106t99.5 -68.5t143 -24.5q67 0 125 14.5t109 37.5v-31q-18 -11 -46 -22.5t-62 -20.5t-72.5 -15t-77.5 -6zM380 108q25 0 48 23.5t46 58.5l45 238
q-5 14 -15 23t-30 9q-25 0 -49 -24t-43.5 -64t-31.5 -90.5t-12 -102.5q0 -40 10.5 -55.5t31.5 -15.5z" />
    <glyph glyph-name="A" unicode="A" horiz-adv-x="669" 
d="M-3 24l26 7q11 3 19 7.5t15 15t14.5 29l19.5 50.5l199 560h82l207 -567q10 -27 18 -44.5t15 -28t15 -15.5t18 -8l24 -6v-24h-301v24l28 7q20 5 27.5 14t7.5 23q0 13 -5 31.5t-13 39.5l-32 91h-207l-30 -91q-8 -21 -11 -38t-3 -28q0 -20 9 -28.5t30 -13.5l30 -7v-24h-202
v24zM187 269h181l-90 260h-5z" />
    <glyph glyph-name="B" unicode="B" horiz-adv-x="635" 
d="M20 24l39 8q10 2 17 5t11 9.5t6 19.5t2 34v493q0 21 -2 33.5t-6 19.5t-11 10t-17 5l-39 8v24h299q126 0 191.5 -38.5t65.5 -125.5q0 -69 -45.5 -106.5t-130.5 -51.5v-5q103 -11 157 -50.5t54 -120.5q0 -96 -69.5 -145.5t-194.5 -49.5h-327v24zM331 40q58 0 90 33.5
t32 115.5q0 83 -30.5 118t-102.5 35h-76v-232q0 -23 3 -37t12 -21.5t26 -9.5t46 -2zM309 381q63 0 91 32t28 98q0 41 -7 68.5t-21.5 44t-37 23t-52.5 6.5q-20 0 -38 -2t-28 -4v-266h65z" />
    <glyph glyph-name="C" unicode="C" horiz-adv-x="618" 
d="M358 -12q-71 0 -131 21t-103.5 64.5t-68.5 110t-25 157.5q0 98 28.5 167.5t77.5 113t113.5 63.5t135.5 20q58 0 107 -7t81 -17l11 -203h-28q-18 43 -37.5 79t-36.5 61t-40.5 36.5t-67.5 11.5q-48 0 -82.5 -16.5t-57 -53t-33.5 -95t-11 -141.5q0 -95 11 -159t33 -102.5
t55.5 -55t78.5 -16.5q53 0 79 13.5t46 42.5q20 30 37 62.5t34 76.5h25l-11 -192q-35 -15 -91 -28.5t-129 -13.5z" />
    <glyph glyph-name="D" unicode="D" horiz-adv-x="711" 
d="M20 24l39 8q10 2 17 5t11 10t6 19.5t2 33.5v493q0 21 -2 33.5t-6 19.5t-11 10t-17 5l-39 8v24h320q75 0 137.5 -18.5t108 -58.5t70.5 -104.5t25 -155.5q0 -86 -24.5 -152.5t-70 -111.5t-109.5 -68.5t-142 -23.5h-315v24zM326 39q55 0 93 20t61 58t33.5 93t10.5 125
q0 86 -11.5 146.5t-36 99t-62.5 56t-90 17.5q-29 0 -49 -2.5t-30 -6.5v-514q0 -30 2.5 -48t11 -27.5t24.5 -13t43 -3.5z" />
    <glyph glyph-name="E" unicode="E" 
d="M20 24l39 8q10 2 17 5t11 10t6 19.5t2 33.5v493q0 21 -2 33.5t-6 19.5t-11 10t-17 5l-39 8v24h527l10 -191h-26q-18 40 -30.5 63t-22.5 38q-12 17 -22.5 27t-24.5 15t-33 6.5t-48 1.5q-45 0 -68.5 -3t-36.5 -6v-265h39q27 0 45.5 1.5t30.5 5t19 9.5t12 15q10 18 16 35.5
t12 42.5h27v-259h-27q-6 24 -12 42t-16 38q-5 10 -11 16t-17.5 9.5t-30 4.5t-48.5 1h-39v-193q0 -36 2 -57.5t13 -32.5t34 -14t65 -3q32 0 52 2t34 8t24 17t22 28q13 18 28.5 51.5t33.5 79.5h28l-14 -226h-547v24z" />
    <glyph glyph-name="F" unicode="F" horiz-adv-x="575" 
d="M20 24l39 8q10 2 17 5t11 9.5t6 19.5t2 34v493q0 21 -2 33.5t-6 19.5t-11 10t-17 5l-39 8v24h521l10 -199h-28q-18 44 -30.5 67.5t-24.5 41.5q-11 16 -20.5 26t-23 15.5t-32.5 7t-49 1.5q-38 0 -61 -2.5t-37 -5.5v-277h25q31 0 50.5 1.5t31.5 5t18.5 9.5t11.5 14
q10 17 17 36t14 45h26v-266h-26q-7 26 -14 46t-17 40q-5 10 -11 16t-18 9t-31.5 4t-51.5 1h-25v-229q0 -21 1.5 -33.5t5 -19t11 -9.5t19.5 -5l50 -9v-24h-312v24z" />
    <glyph glyph-name="G" unicode="G" horiz-adv-x="682" 
d="M380 -12q-168 0 -259 88.5t-91 266.5q0 99 29.5 167.5t79.5 112t116 63t140 19.5q65 0 111.5 -6t81.5 -15l11 -206h-27q-20 48 -36 78t-31 52q-12 17 -22 28.5t-23.5 18t-31.5 9t-45 2.5q-99 0 -147 -72t-48 -232q0 -89 10 -152.5t32 -104t58 -59.5t88 -19q32 0 54.5 7
t39.5 15v150q0 21 -1.5 33.5t-6 19t-11.5 9.5t-17 5l-40 9v24h282v-24l-29 -7q-10 -3 -16 -6t-9.5 -10t-5 -19.5t-1.5 -33.5v-176q-21 -7 -48 -13t-58 -11t-63.5 -8t-65.5 -3z" />
    <glyph glyph-name="H" unicode="H" horiz-adv-x="746" 
d="M20 24l39 8q10 2 17 5t11 9.5t6 19.5t2 34v493q0 21 -2 33.5t-6 19.5t-11 10t-17 5l-39 8v24h300v-24l-39 -8q-11 -3 -18 -6t-11 -9.5t-5.5 -19t-1.5 -33.5v-219h256v219q0 21 -1.5 33.5t-5.5 19t-11 9.5t-18 6l-38 8v24h299v-24l-38 -8q-11 -2 -17.5 -5t-11 -10
t-6 -19.5t-1.5 -33.5v-493q0 -21 1.5 -33.5t5.5 -19.5t11 -10t18 -5l38 -8v-24h-299v24l38 8q11 3 18 5.5t11 9.5t5.5 19.5t1.5 33.5v233h-256v-233q0 -21 1.5 -33.5t5.5 -19.5t11 -9.5t18 -5.5l39 -8v-24h-300v24z" />
    <glyph glyph-name="I" unicode="I" horiz-adv-x="347" 
d="M20 24l42 8q10 2 17 5t11.5 9.5t6 19.5t1.5 34v493q0 21 -1.5 34t-6 19.5t-11.5 9.5t-17 5l-42 8v24h307v-24l-42 -8q-11 -2 -18 -5t-11 -10t-5.5 -19.5t-1.5 -33.5v-493q0 -21 1.5 -33.5t5.5 -19.5t11 -10t18 -5l42 -8v-24h-307v24z" />
    <glyph glyph-name="J" unicode="J" horiz-adv-x="340" 
d="M20 -176q-66 0 -98.5 23t-32.5 57q0 26 16 42.5t46 16.5q35 0 51 -18t24 -60q4 -15 7.5 -18.5t14.5 -3.5q20 0 33.5 20t13.5 69v641q0 21 -1.5 33.5t-5.5 19t-11 9.5t-18 6l-40 8v24h301v-24l-39 -8q-11 -2 -17.5 -5t-11 -10t-6 -19.5t-1.5 -33.5v-531q0 -52 -15 -96
t-43.5 -75.5t-70.5 -49t-96 -17.5z" />
    <glyph glyph-name="K" unicode="K" horiz-adv-x="684" 
d="M485 0q-58 74 -113 160.5t-99 174.5v16l189 219q15 17 21.5 31.5t6.5 25.5q0 24 -35 34l-30 8v24h230v-24l-25 -6q-13 -3 -23 -8t-21 -14t-24.5 -23l-33.5 -36l-145 -162q24 -47 54 -97l62 -98.5l63.5 -92.5t58.5 -78q10 -12 15.5 -16t16.5 -7l31 -7v-24h-199zM20 24
l39 8q10 2 17 5t11 9.5t6 19.5t2 34v493q0 21 -2 33.5t-6 19.5t-11 10t-17 5l-39 8v24h300v-24l-39 -8q-11 -3 -18 -6t-11 -9.5t-5.5 -19t-1.5 -33.5v-493q0 -21 1.5 -33.5t5.5 -19.5t11 -9.5t18 -5.5l39 -8v-24h-300v24z" />
    <glyph glyph-name="L" unicode="L" horiz-adv-x="578" 
d="M20 24l39 8q10 2 17 5t11 9.5t6 19.5t2 34v493q0 21 -2 33.5t-6 19.5t-11 10t-17 5l-39 8v24h306v-24l-45 -9q-11 -2 -18 -5t-11 -9.5t-5.5 -19t-1.5 -33.5v-462q0 -30 2 -47.5t11.5 -27.5t29 -13t54.5 -3q31 0 51.5 2t34.5 8t24 16t21 27q14 21 30 54.5t35 85.5h28
l-14 -233h-532v24z" />
    <glyph glyph-name="M" unicode="M" horiz-adv-x="857" 
d="M20 24l32 7q12 2 20 5.5t13 11.5t7.5 22.5t2.5 39.5v483q0 21 -2 33.5t-6 19.5t-11 10t-17 5l-39 8v24h248l161 -460h4l156 460h248v-24l-38 -8q-11 -2 -17.5 -5t-11 -10t-6 -19.5t-1.5 -33.5v-493q0 -21 1.5 -33.5t5.5 -19.5t11 -10t18 -5l38 -8v-24h-297v24l36 8
q11 3 18 5.5t11 9.5t5.5 19.5t1.5 33.5v508h-4l-201 -592h-54l-208 592h-4v-496q0 -26 2 -41t6.5 -23t13 -11t22.5 -6l34 -7v-24h-199v24z" />
    <glyph glyph-name="N" unicode="N" horiz-adv-x="689" 
d="M145 589h-4v-477q0 -26 2 -41t7 -23t13.5 -11t22.5 -6l38 -7v-24h-204v24l32 7q12 2 20 5.5t13 11.5t7.5 22.5t2.5 39.5v483q0 21 -2 33.5t-6 19.5t-11 10t-17 5l-39 8v24h232l296 -448h4v336q0 26 -1.5 41t-6.5 23t-13.5 11t-22.5 6l-42 7v24h208v-24l-33 -7
q-11 -2 -19 -5.5t-13 -11.5t-7.5 -22.5t-2.5 -39.5v-585h-59z" />
    <glyph glyph-name="O" unicode="O" horiz-adv-x="712" 
d="M352 -12q-65 0 -123.5 21.5t-103 65t-70.5 109t-26 153.5q0 98 29 168t76 114.5t106.5 65t119.5 20.5q65 0 123.5 -21.5t103 -65t70.5 -109.5t26 -156q0 -99 -29 -168t-76 -113t-106.5 -64t-119.5 -20zM358 27q43 0 74.5 16t52.5 52t31 94.5t10 143.5q0 76 -8.5 137.5
t-29 105t-53.5 67t-82 23.5q-42 0 -73.5 -16.5t-52 -53t-31 -95.5t-10.5 -144q0 -76 8.5 -137t28.5 -104t53 -66t82 -23z" />
    <glyph glyph-name="P" unicode="P" horiz-adv-x="611" 
d="M20 24l39 8q10 2 17 5t11 9.5t6 19.5t2 34v493q0 21 -1.5 33.5t-5.5 19t-9.5 9t-14.5 4.5l-44 10v24h308q131 0 198 -49.5t67 -150.5q0 -45 -16 -84t-47 -68.5t-77.5 -46.5t-106.5 -17q-28 0 -45.5 4t-24.5 7v27q43 -1 74 7t50.5 27.5t29 52.5t9.5 82t-6.5 81.5t-21 52
t-37 27.5t-55.5 8q-23 0 -44 -2t-30 -5v-546q0 -21 1 -33.5t5 -19t11.5 -9.5t19.5 -5l49 -9v-24h-311v24z" />
    <glyph glyph-name="Q" unicode="Q" horiz-adv-x="712" 
d="M590 -171q-28 0 -51.5 3.5t-45.5 11t-43 18.5t-44 27q-33 22 -67 49.5l-74 62.5q-52 12 -95 39.5t-74.5 69.5t-49 99t-17.5 128q0 98 29 168t76 114.5t106.5 65.5t119.5 21q65 0 123.5 -21.5t103 -65t70.5 -110t26 -156.5q0 -77 -18 -135.5t-49 -100t-73.5 -68
t-90.5 -39.5v-3q20 -18 44 -36.5t47 -32.5q38 -23 69.5 -32t61.5 -9q23 0 43.5 7t33.5 12v-24q-9 -9 -23.5 -20t-34 -20.5t-45.5 -16t-58 -6.5zM358 26q43 0 74.5 16t52.5 52.5t31 95t10 143.5q0 76 -8.5 137.5t-29 105t-53.5 67t-82 23.5q-42 0 -73.5 -16.5t-52 -53
t-31 -95.5t-10.5 -144q0 -76 8.5 -137.5t28.5 -104.5t53 -66t82 -23z" />
    <glyph glyph-name="R" unicode="R" horiz-adv-x="673" 
d="M20 24l39 8q10 2 17 5t11 9.5t6 19.5t2 34v493q0 21 -2 33.5t-6 19.5t-11 10t-17 5l-39 8v24h311q136 0 197 -45.5t61 -134.5q0 -61 -35.5 -103.5t-109.5 -64.5v-3q17 -34 38.5 -72.5l45 -77l47 -74.5t44.5 -63q8 -11 16.5 -16t23.5 -10l18 -5v-24h-194q-24 32 -48 70.5
l-47.5 79.5t-44.5 82.5t-37 78.5h-61v-211q0 -21 1.5 -33.5t5 -19.5t10.5 -10t18 -5l39 -8v-24h-299v24zM296 347q37 0 63.5 8t43.5 26t25 47.5t8 72.5q0 44 -6.5 73.5t-20 47t-35.5 24.5t-53 7q-27 0 -46.5 -2t-29.5 -5v-295q2 -1 16.5 -2.5t34.5 -1.5z" />
    <glyph glyph-name="S" unicode="S" horiz-adv-x="519" 
d="M237 -13q-66 0 -117.5 10t-81.5 24l-12 188h29q18 -38 33.5 -67.5t35.5 -58.5q22 -33 49 -44.5t74 -11.5q66 0 95.5 31.5t29.5 82.5q0 24 -7.5 43.5t-25.5 36.5t-47.5 34t-74.5 35q-50 21 -85 43t-57 47.5t-31.5 56t-9.5 68.5q0 43 17 80t48 64t74.5 42t96.5 15
q63 0 103.5 -7t66.5 -17l11 -168h-27q-9 20 -16.5 34.5t-15 26.5t-15 22.5l-16.5 22.5q-10 13 -19 21.5t-20 14t-26.5 8t-37.5 2.5q-56 0 -85.5 -25.5t-29.5 -74.5q0 -22 5.5 -39.5t20.5 -33.5t41.5 -31t69.5 -33q57 -24 96.5 -47t65 -48.5t37 -55t11.5 -64.5
q0 -47 -16.5 -88.5t-48.5 -72t-79.5 -48.5t-108.5 -18z" />
    <glyph glyph-name="T" unicode="T" horiz-adv-x="619" 
d="M155 24l42 8q12 2 19 5t11 10t5.5 19.5t1.5 33.5v554h-14q-29 0 -47 -1.5t-30 -6.5t-21 -15t-19 -27q-8 -13 -15 -26t-14 -28t-14.5 -33.5l-16.5 -42.5h-29l9 219h573l9 -219h-29l-16.5 42.5t-14.5 33.5t-14 28t-15 26q-11 17 -20 27t-21 15t-29.5 6.5t-47.5 1.5h-13
v-554q0 -21 1 -33.5t5 -19.5t11.5 -10t19.5 -5l41 -8v-24h-308v24z" />
    <glyph glyph-name="U" unicode="U" horiz-adv-x="692" 
d="M361 -12q-62 0 -112.5 13t-87 41t-56.5 72.5t-20 108.5v370q0 21 -1.5 33.5t-6 19.5t-11.5 10t-17 5l-38 8v24h298v-24l-37 -8q-11 -3 -18 -6t-11 -9.5t-5.5 -19t-1.5 -33.5v-386q0 -83 38 -122t128 -39q85 0 122 46t37 127v362q0 26 -1.5 41t-6.5 23t-14 11t-23 6l-43 7
v24h209v-24l-33 -7q-11 -2 -18.5 -5.5t-12.5 -11.5t-7.5 -22.5t-2.5 -39.5v-371q0 -46 -14.5 -87t-44.5 -71.5t-76.5 -48t-111.5 -17.5z" />
    <glyph glyph-name="V" unicode="V" horiz-adv-x="658" 
d="M86 567q-9 25 -16 41.5t-14 27.5t-15.5 17.5t-20.5 9.5l-24 6v24h300v-24l-28 -7q-35 -8 -35 -37q0 -12 5 -30.5t13 -40.5l135 -389h5l127 389q6 20 10 37.5t4 30.5q0 18 -9 27t-29 13l-32 7v24h200v-24l-27 -7q-11 -3 -18.5 -9t-14 -17t-13 -29.5l-16.5 -46.5l-196 -560
h-81z" />
    <glyph glyph-name="W" unicode="W" horiz-adv-x="977" 
d="M84 572l-15 42.5t-12.5 26.5t-14 14.5t-18.5 7.5l-26 6v24h292v-24l-28 -6q-33 -9 -33 -38q0 -14 5 -32.5t11 -38.5l119 -380h5l106 321l-28 86q-14 43 -25.5 59.5t-32.5 22.5l-25 6v24h291v-24l-33 -7q-31 -7 -31 -39q0 -13 4 -31t10 -38l119 -380h5l107 380
q5 19 9 37.5t4 32.5q0 32 -34 39l-32 6v24h196v-24l-26 -6q-24 -6 -36.5 -30.5t-29.5 -81.5l-169 -551h-84l-134 422h-3l-141 -422h-83z" />
    <glyph glyph-name="X" unicode="X" horiz-adv-x="676" 
d="M13 24l22 5q12 3 21 7.5t18.5 13.5t20.5 24.5l27 39.5l141 219l-156 257l-18 30t-14 20t-15 13.5t-20 8.5l-24 7v24h315v-24l-36 -7q-27 -6 -27 -30q0 -11 5 -25t19 -37l92 -160h3l93 166q11 20 15 33.5t4 24.5q0 22 -31 29l-31 6v24h203v-24l-26 -6q-10 -3 -18 -8
t-16.5 -15t-19 -25t-25.5 -39l-124 -203l161 -267l22 -34.5t16.5 -22t14.5 -13t16 -7.5l23 -5v-24h-310v24l33 5q17 3 23.5 10.5t6.5 19.5q0 21 -26 62l-102 177h-3l-104 -177q-25 -42 -25 -61q0 -24 28 -31l29 -5v-24h-201v24z" />
    <glyph glyph-name="Y" unicode="Y" horiz-adv-x="629" 
d="M172 24l42 8q12 2 19 5t11 10t5.5 19.5t1.5 33.5v183l-160 293q-13 24 -22.5 39.5t-17 25t-15.5 14.5t-18 8l-22 6v24h308v-24l-28 -6q-21 -5 -30 -14t-9 -25q0 -21 19 -56l117 -231h4l103 227q10 20 13 34t3 25q0 15 -8.5 24.5t-31.5 14.5l-29 7v24h206v-24l-21 -6
q-12 -4 -21 -10.5t-18 -18t-19 -28.5t-22 -43l-130 -273v-190q0 -21 1 -33.5t5 -19.5t11.5 -10t19.5 -5l41 -8v-24h-308v24z" />
    <glyph glyph-name="Z" unicode="Z" horiz-adv-x="567" 
d="M21 39l364 612v4h-48q-56 0 -89 -1.5t-53.5 -6t-31.5 -14t-21 -24.5q-9 -13 -16.5 -25.5t-15 -26.5t-15.5 -32l-18 -41h-27l11 209h488v-39l-362 -611v-4h51q58 0 94 2t58 7t34.5 15t24.5 25q20 26 35 57.5t36 83.5h29l-15 -229h-513v39z" />
    <glyph glyph-name="bracketleft" unicode="[" horiz-adv-x="340" 
d="M92 734h223v-24l-76 -9q-16 -2 -26 -5t-15 -10t-7 -19.5t-2 -34.5v-659q0 -22 2 -35t7 -20t15 -10t26 -5l76 -9v-24h-223v864z" />
    <glyph glyph-name="backslash" unicode="\" horiz-adv-x="378" 
d="M18 734h52l308 -864h-52z" />
    <glyph glyph-name="bracketright" unicode="]" horiz-adv-x="340" 
d="M25 -106l76 9q16 2 26 5t15.5 10t7.5 20t2 35v659q0 22 -2 34.5t-7.5 19.5t-15.5 10t-26 5l-76 9v24h223v-864h-223v24z" />
    <glyph glyph-name="asciicircum" unicode="^" horiz-adv-x="437" 
d="M52 471l144 228h45l144 -228l-14 -15l-153 132l-151 -132z" />
    <glyph glyph-name="underscore" unicode="_" horiz-adv-x="346" 
d="M-2 -120h350v-51h-350v51z" />
    <glyph glyph-name="grave" unicode="`" horiz-adv-x="497" 
d="M169 628q-23 7 -33 22t-10 30q0 20 14 36.5t35 16.5q24 0 47 -20l142 -119l-8 -16z" />
    <glyph glyph-name="a" unicode="a" horiz-adv-x="515" 
d="M169 -13q-70 0 -110 34.5t-40 98.5q0 32 12.5 55.5t35 40.5t52.5 29t65 20l118 29v93q0 29 -3 49.5t-12 33t-24.5 18.5t-40.5 6q-27 0 -37 -7.5t-12 -29.5q-4 -38 -17.5 -58t-50.5 -20q-31 0 -46 15.5t-15 40.5q0 24 16 42t43.5 29.5t65 17.5t81.5 6q92 0 139 -32
t47 -103v-289q0 -25 5.5 -37.5t19.5 -20.5q9 -5 21.5 -7t25.5 -2v-21q-13 -10 -40.5 -20t-63.5 -10q-42 0 -65 16t-30 44h-5q-19 -25 -54 -43t-81 -18zM230 49q27 0 45.5 11t26.5 26v161l-58 -6q-43 -4 -67.5 -26t-24.5 -77q0 -47 21.5 -68t56.5 -21z" />
    <glyph glyph-name="b" unicode="b" horiz-adv-x="587" 
d="M271 -12q-67 0 -116.5 11.5t-93.5 36.5v601q0 17 -1 27t-4.5 16t-9.5 9.5l-15 8.5l-39 19v20l197 19l10 -7q-1 -14 -2 -32q-1 -16 -1.5 -37.5t-0.5 -49.5v-73q0 -20 -0.5 -36t-0.5 -29q-1 -15 -1 -27h4q31 26 73.5 45t93.5 19q36 0 71 -12.5t62.5 -41t45 -75.5t17.5 -116
q0 -75 -21.5 -131t-60 -92.5t-91.5 -54.5t-116 -18zM282 25q35 0 61 11t43.5 37t26 70.5t8.5 111.5q0 107 -34.5 153t-98.5 46q-35 0 -57 -8.5t-36 -14.5v-370q17 -17 38 -26.5t49 -9.5z" />
    <glyph glyph-name="c" unicode="c" horiz-adv-x="484" 
d="M266 -12q-59 0 -104.5 19t-76 54t-46.5 84t-16 109q0 79 27.5 132t70 85t94.5 45.5t102 13.5q73 0 111.5 -23.5t38.5 -66.5q0 -27 -18 -45t-47 -18q-35 0 -48.5 19.5t-17.5 48.5q-4 31 -12.5 39.5t-33.5 8.5t-48.5 -9t-42 -31.5t-29.5 -61t-11 -97.5q0 -114 37 -172.5
t122 -58.5q48 0 86 12.5t64 26.5v-31q-11 -12 -29.5 -26.5t-44.5 -27t-58 -21t-70 -8.5z" />
    <glyph glyph-name="d" unicode="d" horiz-adv-x="600" 
d="M223 -12q-36 0 -71.5 13.5t-63 43.5t-44.5 78t-17 118q0 76 23.5 130.5t62.5 89.5t90.5 51.5t107.5 16.5q25 0 46 -3t37 -8q-1 11 -1 23q-1 11 -1 24v27v45q0 16 -1.5 26t-4.5 15.5t-9 9l-15 8.5l-42 21v20l200 19l9 -7q-1 -14 -2 -32q-1 -16 -1 -37.5v-49.5v-517
q0 -18 1 -29t4.5 -17.5t9.5 -10.5t16 -8l32 -15v-19l-185 -26l-10 7l2 55h-4q-32 -26 -75 -44t-94 -18zM294 57q37 0 60.5 10t37.5 17v367q-14 15 -35 28t-51 13q-32 0 -58 -11.5t-44.5 -37.5t-28.5 -69t-10 -106q0 -58 8.5 -98.5t25 -65.5t40.5 -36t55 -11z" />
    <glyph glyph-name="e" unicode="e" horiz-adv-x="515" 
d="M276 -12q-63 0 -110.5 19t-79 54.5t-47.5 86t-16 113.5t21 113t56.5 84.5t81 53t94.5 18.5q50 0 89.5 -13.5t67.5 -43.5t43 -77.5t16 -115.5h-334q1 -62 13 -103.5t34 -67t53 -36t69 -10.5q51 0 87 12.5t65 26.5v-30q-12 -12 -31.5 -26.5t-45 -27.5t-57.5 -21.5t-69 -8.5
zM270 495q-46 0 -77 -42t-35 -138l195 10q0 45 -3.5 77.5t-13 53t-25.5 30t-41 9.5z" />
    <glyph glyph-name="f" unicode="f" horiz-adv-x="332" 
d="M15 23l32 8q10 3 16.5 6t10 9t4.5 15.5t1 24.5v377h-70v22l70 31v34q0 49 17 87.5t48 65.5t75 41.5t98 14.5q55 0 83.5 -18.5t28.5 -51.5q0 -24 -14.5 -38.5t-41.5 -14.5q-31 0 -46 14.5t-18 46.5q-2 17 -6 22t-13 5q-15 0 -28.5 -5t-24.5 -18t-17.5 -34t-6.5 -53v-99
h114l-12 -52h-102v-373q0 -18 1 -28.5t4.5 -16.5t9.5 -8.5t16 -4.5l44 -9v-23h-273v23z" />
    <glyph glyph-name="g" unicode="g" horiz-adv-x="511" 
d="M209 -208q-107 0 -164.5 31.5t-57.5 86.5q0 36 32 63t89 41v4q-36 9 -57 32t-21 58q0 19 7 36t18.5 31.5t25 25.5t26.5 20v4q-35 17 -58.5 50.5t-23.5 79.5q0 43 17.5 75.5t46 54.5t66 33t77.5 11q65 0 116 -24q23 20 51.5 34t60.5 14q26 0 43 -13t17 -39
q0 -21 -11 -36.5t-35 -15.5q-22 0 -31.5 9.5t-16.5 24.5q-8 15 -23 15t-34 -9v-4q30 -17 50 -47.5t20 -71.5q0 -44 -17.5 -76t-46 -53.5t-66 -32t-77.5 -10.5q-52 0 -97 17q-9 -8 -17.5 -20.5t-8.5 -27.5q0 -17 13 -26.5t42 -9.5h170q34 0 63 -6t50 -21t33 -40.5t12 -64.5
q0 -38 -16 -74t-50.5 -65t-88 -46.5t-128.5 -17.5zM228 -173q81 0 128.5 28.5t47.5 82.5q0 33 -20.5 52t-69.5 19h-167q-17 -7 -34 -26.5t-17 -54.5q0 -48 31 -74.5t101 -26.5zM232 228q40 0 59 28t19 99q0 79 -19.5 109.5t-58.5 30.5q-40 0 -59.5 -28.5t-19.5 -100.5
q0 -78 20 -108t59 -30z" />
    <glyph glyph-name="h" unicode="h" horiz-adv-x="608" 
d="M15 23l32 8q10 3 16.5 6t10 9t4.5 15.5t1 24.5v551q0 17 -1 27t-4.5 16t-9.5 9.5l-15 8.5l-39 19v20l197 19l10 -7q-1 -16 -2 -34q-1 -16 -1.5 -38t-0.5 -47v-73q0 -20 -0.5 -36.5t-1.5 -29.5q-1 -15 -1 -28h4q39 26 87 46t100 20q69 0 100.5 -32.5t31.5 -100.5v-310
q0 -16 1.5 -25.5t5 -15t9.5 -8.5t16 -6l32 -8v-23h-259v23l31 8q10 3 16 5.5t9 8t4 15t1 26.5v278q0 48 -18 66.5t-58 18.5q-31 0 -61 -6.5t-49 -11.5v-345q0 -17 1 -26.5t4 -15t9 -8t16 -5.5l31 -8v-23h-259v23z" />
    <glyph glyph-name="i" unicode="i" horiz-adv-x="288" 
d="M15 23l32 8q10 3 16.5 6t10 9t4.5 15.5t1 24.5v321q0 16 -1 25t-4.5 15t-9.5 10.5t-16 10.5l-35 21v17l195 23l9 -6q-1 -14 -2.5 -41.5t-1.5 -64.5v-331q0 -32 6 -41t26 -14l32 -8v-23h-262v23zM142 590q-32 0 -54.5 21t-22.5 52t22.5 52t54.5 21t54 -21t22 -52t-22 -52
t-54 -21z" />
    <glyph glyph-name="j" unicode="j" horiz-adv-x="282" 
d="M12 -210q-59 0 -86.5 23.5t-27.5 56.5q0 25 16 39t42 14q33 0 46.5 -16t17.5 -51q2 -20 5.5 -25t11.5 -5q20 0 31 15.5t11 48.5v517q0 16 -1 25t-4.5 15t-9.5 10.5t-16 10.5l-35 21v17l195 23l9 -6q-1 -14 -2.5 -42t-1.5 -64v-414q0 -55 -15.5 -95t-42.5 -66.5t-63.5 -39
t-79.5 -12.5zM140 590q-32 0 -54 21t-22 52t22 52t54 21t54.5 -21t22.5 -52t-22.5 -52t-54.5 -21z" />
    <glyph glyph-name="k" unicode="k" horiz-adv-x="564" 
d="M398 0q-51 63 -91 124l-78 124v13l113 126q27 30 35 46.5t8 27.5q0 17 -33 27l-14 4v23h201v-23l-25 -7q-10 -3 -18.5 -7t-18 -10.5t-21 -17.5l-27.5 -27l-99 -103l44 -70.5l47 -71.5l48 -67t45 -57q14 -18 33 -24l22 -7v-23h-171zM15 23l32 8q10 3 16.5 6t10 9t4.5 15.5
t1 24.5v551q0 17 -1 27t-4.5 16t-9.5 9.5l-15 8.5l-39 19v20l197 19l10 -7q-1 -16 -2 -34q-1 -16 -1.5 -38t-0.5 -47v-544q0 -17 1 -26.5t4 -15t9 -8t15 -5.5l30 -8v-23h-257v23z" />
    <glyph glyph-name="l" unicode="l" horiz-adv-x="291" 
d="M15 23l32 8q10 3 16.5 6t10.5 9t5 15.5t1 24.5v551q0 17 -1 26.5t-4.5 15.5t-9.5 10t-16 9l-39 19v20l198 19l10 -7q-1 -16 -2 -34q-1 -16 -1.5 -38t-0.5 -47v-544q0 -16 1 -25.5t5 -15t10 -8.5t17 -6l32 -8v-23h-264v23z" />
    <glyph glyph-name="m" unicode="m" horiz-adv-x="901" 
d="M15 23l32 8q10 3 16.5 6t10 9t4.5 15.5t1 24.5v321q0 16 -1 25t-4.5 15t-9.5 10.5t-16 10.5l-35 21v17l188 23l9 -7l-2 -61h5q38 27 83.5 47.5t96.5 20.5q49 0 76.5 -17.5t41.5 -51.5h4q41 27 86.5 48t101.5 21q122 0 122 -134v-309q0 -16 1.5 -25.5t5 -15t9.5 -8.5
t16 -6l32 -8v-23h-257v23l30 8q9 3 15 5.5t9 8t4 15t1 26.5v277q0 48 -14.5 67t-52.5 19q-31 0 -59 -6.5t-48 -13.5q1 -6 1.5 -15t0.5 -23v-305q0 -32 6 -41t23 -14l30 -8v-23h-252v23l30 8q9 3 14.5 5.5t9 8t4.5 15t1 26.5v277q0 47 -14.5 66.5t-53.5 19.5
q-30 0 -57.5 -6.5t-46.5 -11.5v-345q0 -17 1 -26.5t4 -15t9 -8t15 -5.5l30 -8v-23h-257v23z" />
    <glyph glyph-name="n" unicode="n" horiz-adv-x="608" 
d="M15 23l32 8q10 3 16.5 6t10 9t4.5 15.5t1 24.5v321q0 16 -1 25t-4.5 15t-9.5 10.5t-16 10.5l-35 21v17l188 23l9 -6l-2 -62h5q38 27 87 47.5t101 20.5q69 0 100.5 -32.5t31.5 -100.5v-310q0 -16 1.5 -25.5t5 -15t9.5 -8.5t16 -6l32 -8v-23h-259v23l31 8q10 3 16 5.5t9 8
t4 15t1 26.5v278q0 48 -18 66.5t-58 18.5q-31 0 -61 -6.5t-49 -11.5v-345q0 -17 1 -26.5t4 -15t9 -8t16 -5.5l31 -8v-23h-259v23z" />
    <glyph glyph-name="o" unicode="o" horiz-adv-x="569" 
d="M284 -13q-54 0 -101.5 17t-83 50.5t-56 84t-20.5 118.5q0 69 22 120.5t59 85.5t83.5 50.5t96.5 16.5q54 0 101.5 -16.5t83 -49.5t56.5 -83.5t21 -117.5q0 -69 -22 -121t-58.5 -86.5t-84 -51.5t-97.5 -17zM288 23q27 0 48.5 10.5t36 36.5t22.5 70t8 111q0 72 -8 119
t-23 74.5t-38 38.5t-53 11q-28 0 -49.5 -11t-36 -37t-22 -68.5t-7.5 -104.5q0 -73 7.5 -121t22.5 -76.5t38 -40.5t54 -12z" />
    <glyph glyph-name="p" unicode="p" horiz-adv-x="605" 
d="M15 -180l32 9q10 3 16.5 6t10 8.5t4.5 15t1 25.5v523q0 16 -1 25t-4.5 15t-9.5 10.5t-16 10.5l-35 21v17l188 23l9 -6l-1 -59h4q32 26 74.5 45.5t94.5 19.5q35 0 70 -12.5t63 -41t45.5 -75.5t17.5 -116q0 -75 -21 -131t-59 -92.5t-90.5 -54.5t-115.5 -18q-18 0 -40 3
t-40 8v-18q0 -8 0.5 -19.5t0.5 -24.5v-53q0 -17 1 -26.5t4.5 -15t9.5 -8.5t16 -5l43 -9v-23h-272v23zM299 25q35 0 61 11t43.5 37t26.5 70.5t9 111.5q0 107 -34.5 153t-98.5 46q-35 0 -57 -8.5t-36 -14.5v-370q17 -17 37 -26.5t49 -9.5z" />
    <glyph glyph-name="q" unicode="q" horiz-adv-x="592" 
d="M318 -180l43 9q10 2 16 5t9.5 8.5t4.5 15t1 26.5v92v29.5t1 23.5l2 21h-4q-31 -26 -74 -44t-94 -18q-36 0 -71.5 13.5t-63 43.5t-44.5 78t-17 118q0 76 23.5 130.5t62.5 89.5t90.5 51.5t107.5 16.5q54 0 89 -11t65 -29h6l39 41l16 -6v-640q0 -16 1 -25.5t4.5 -15t10 -8.5
t16.5 -6l32 -9v-23h-272v23zM294 57q37 0 60.5 10t37.5 17v370q-14 14 -35 26t-51 12q-32 0 -58 -11.5t-44.5 -37.5t-28.5 -69t-10 -106q0 -58 8.5 -98.5t25 -65.5t40.5 -36t55 -11z" />
    <glyph glyph-name="r" unicode="r" horiz-adv-x="438" 
d="M15 23l32 8q10 3 16.5 6t10 9t4.5 15.5t1 24.5v321q0 16 -1 25t-4.5 15t-9.5 10.5t-16 10.5l-35 21v17l188 23l9 -7l-2 -66h5q12 13 28.5 26t35.5 23.5t39.5 17.5t40.5 7q34 0 53 -17.5t19 -51.5q0 -32 -18 -49.5t-44 -17.5q-16 0 -26.5 3t-18 8t-13 13t-11.5 18
q-4 9 -8 12t-11 3t-16 -3t-18 -7.5t-17.5 -10.5t-14.5 -12v-332q0 -17 1 -27t4.5 -15.5t9.5 -8t15 -4.5l40 -8v-23h-268v23z" />
    <glyph glyph-name="s" unicode="s" horiz-adv-x="422" 
d="M185 -12q-43 0 -83 6t-71 16l-5 152h25q14 -29 28.5 -51.5t31.5 -45.5q15 -22 34 -31.5t54 -9.5q39 0 65 20.5t26 57.5q0 19 -6.5 33t-20.5 26t-36.5 23.5t-54.5 23.5q-66 25 -105.5 62t-39.5 99q0 35 14.5 64.5t40.5 51t63.5 33.5t83.5 12q42 0 76 -5.5t57 -14.5l5 -132
h-23q-14 26 -26.5 46t-27.5 37q-17 21 -34 27t-43 6q-38 0 -59.5 -18.5t-21.5 -51.5q0 -31 23 -54t84 -46q81 -30 120.5 -67t39.5 -95q0 -38 -14.5 -70t-41.5 -55t-67 -36t-91 -13z" />
    <glyph glyph-name="t" unicode="t" horiz-adv-x="348" 
d="M196 -12q-60 0 -94 28.5t-34 95.5v351h-66v22q55 20 95.5 59t61.5 99h43v-128h136l-12 -52h-124v-341q0 -35 14.5 -50.5t50.5 -15.5q20 0 40.5 3.5t34.5 7.5v-25q-8 -7 -21.5 -16.5t-31.5 -17.5t-41.5 -14t-51.5 -6z" />
    <glyph glyph-name="u" unicode="u" horiz-adv-x="604" 
d="M208 -12q-61 0 -96.5 33.5t-35.5 98.5v295q0 15 -1 23.5t-4 14t-8.5 9.5t-15.5 9l-37 20v18l189 20l11 -9v-369q0 -45 19 -65t57 -20q31 0 59.5 8.5t50.5 16.5v324q0 15 -1 23.5t-4 14t-8.5 9.5t-15.5 9l-37 20v18l189 20l11 -9v-407q0 -18 1 -29t4.5 -17.5t9.5 -10.5
t16 -8l33 -15v-19l-186 -26l-9 7l2 65h-5q-39 -28 -86 -50t-102 -22z" />
    <glyph glyph-name="v" unicode="v" horiz-adv-x="535" 
d="M72 412q-8 19 -14 31.5t-12 21t-13.5 13.5t-17.5 8l-21 6v23h270v-23l-27 -7q-17 -5 -23 -13t-6 -24q0 -10 3.5 -23t9.5 -30l92 -251h5l90 251q13 36 13 55q0 28 -29 35l-27 7v23h176v-23l-23 -6q-10 -3 -17 -8.5t-13 -15t-12.5 -24.5t-14.5 -37l-155 -401h-70z" />
    <glyph glyph-name="w" unicode="w" horiz-adv-x="808" 
d="M72 412q-7 19 -13 32t-12.5 21t-14 13t-17.5 8l-21 6v23h259v-23l-24 -6q-15 -5 -20 -12t-5 -19q0 -11 4 -25.5t10 -34.5l82 -251h5l81 234l-11 34q-14 40 -24 54.5t-27 19.5l-21 6v23h250v-23l-27 -7q-14 -4 -19.5 -12.5t-5.5 -22.5q0 -21 12 -55l84 -251h5l80 251
q6 20 9 33t3 23q0 27 -29 34l-27 7v23h176v-23l-23 -6q-10 -3 -17 -8.5t-13 -15t-12.5 -24.5t-14.5 -37l-144 -401h-70l-110 316h-3l-115 -316h-69z" />
    <glyph glyph-name="x" unicode="x" horiz-adv-x="565" 
d="M12 23l25 6q24 7 40 22.5t41 51.5l97 140l-117 172q-15 22 -25 35t-17.5 20.5t-15 11t-17.5 6.5l-15 4v23h272v-23l-22 -4q-27 -6 -27 -27q0 -17 21 -48l67 -103h3l50 89q13 23 18 37t5 24q0 19 -27 27l-26 5v23h190v-23l-23 -6q-12 -3 -22 -8.5t-19.5 -14.5t-19.5 -22.5
t-22 -32.5l-82 -129l125 -179l22 -32t17 -21t16.5 -13t20.5 -8l13 -3v-23h-272v23l24 4q26 5 26 26q0 10 -7 23t-18 30l-72 107h-3l-58 -96q-14 -24 -20.5 -38t-6.5 -25t7 -17t27 -10l19 -4v-23h-192v23z" />
    <glyph glyph-name="y" unicode="y" horiz-adv-x="535" 
d="M111 -207q-45 0 -70 19t-25 49q0 26 16 40.5t42 14.5q28 0 41.5 -12t20.5 -35q3 -11 7 -15t12 -4q16 0 35 23.5t45 85.5l13 30l-177 422l-16.5 35.5t-12 21.5t-11 11.5t-14.5 6.5l-21 6v23h265v-23l-27 -7q-15 -4 -22 -11.5t-7 -23.5q0 -19 14 -55l95 -247h4l91 247
q14 39 14 59q0 14 -7.5 20.5t-22.5 10.5l-28 7v23h176v-23l-25 -7q-9 -3 -15 -8t-11.5 -14t-12 -24t-15.5 -38l-180 -447q-14 -34 -28.5 -63.5t-34 -51t-45.5 -34t-63 -12.5z" />
    <glyph glyph-name="z" unicode="z" horiz-adv-x="476" 
d="M15 34l291 440v4h-66q-28 0 -46 -1t-29.5 -4.5t-19.5 -9.5t-16 -15q-18 -22 -31 -44l-33 -57h-23l9 168h409v-32l-292 -442v-4h63q36 0 59 1.5t38 6t24 12t18 19.5q17 24 32 48t29 53h24l-14 -177h-426v34z" />
    <glyph glyph-name="braceleft" unicode="{" horiz-adv-x="358" 
d="M328 -130q-65 4 -107.5 13t-67.5 23.5t-35 35t-10 46.5q0 20 7.5 54.5l16 71l16 68t7.5 46.5q0 11 -4.5 21t-16.5 18t-34 13.5t-57 7.5v32q35 2 57 7.5t34 13.5t16.5 18.5t4.5 21.5q0 15 -7.5 46.5l-16 67l-16 69.5t-7.5 54q0 26 10 46t35 35t67.5 24t107.5 12v-25
q-37 -5 -59 -10.5t-34 -14t-16 -23t-4 -37.5q0 -27 3.5 -56.5t8 -57.5l8.5 -54t4 -47q0 -43 -29.5 -67t-101.5 -37v-4q39 -6 64.5 -15t40.5 -21.5t20.5 -29t5.5 -37.5t-4 -47.5l-8.5 -55t-8 -58.5t-3.5 -57q0 -24 4 -38t16 -23t34 -14t59 -10v-26v0z" />
    <glyph glyph-name="bar" unicode="|" horiz-adv-x="224" 
d="M87 734h50v-864h-50v864z" />
    <glyph glyph-name="braceright" unicode="}" horiz-adv-x="358" 
d="M38 -104q37 5 59 10t34 14t16 23t4 38q0 27 -4 56.5t-8.5 58t-8 55t-3.5 47.5q0 43 29.5 67t101.5 37v4q-39 6 -64.5 15t-40.5 21.5t-20.5 29t-5.5 37.5t3.5 47t8 54.5t8.5 58t4 56.5q0 23 -4 37.5t-16 23t-34 14t-59 10.5v25q65 -3 107.5 -12t67.5 -24t35 -35t10 -46
q0 -20 -7.5 -54l-16 -70l-16 -67.5t-7.5 -46.5q0 -11 4.5 -21t16.5 -18t34 -13.5t57 -7.5v-32q-35 -2 -57 -7.5t-34 -13.5t-16.5 -18.5t-4.5 -21.5q0 -15 7.5 -47l16 -68l16 -70t7.5 -54q0 -26 -10 -46.5t-35 -35t-67.5 -23.5t-107.5 -13v26z" />
    <glyph glyph-name="asciitilde" unicode="~" horiz-adv-x="379" 
d="M29 241q22 52 41.5 83t53.5 31q17 0 37.5 -5.5l41 -11.5l40 -11.5t35.5 -5.5q15 0 26.5 10t25.5 33l22 -10l-20.5 -47t-20.5 -36t-24 -23t-30 -8t-37.5 5t-41.5 11.5t-40.5 11.5t-35.5 5q-15 0 -26 -10t-25 -33z" />
    <glyph glyph-name="Adieresis" unicode="&#xc4;" horiz-adv-x="669" 
d="M-3 24l26 7q11 3 19 7.5t15 15t14.5 29l19.5 50.5l199 560h82l207 -567q10 -27 18 -44.5t15 -28t15 -15.5t18 -8l24 -6v-24h-301v24l28 7q20 5 27.5 14t7.5 23q0 13 -5 31.5t-13 39.5l-32 91h-207l-30 -91q-8 -21 -11 -38t-3 -28q0 -20 9 -28.5t30 -13.5l30 -7v-24h-202
v24zM187 269h181l-90 260h-5zM222 728q-28 0 -48 19t-20 48t20 48t48 19q29 0 49 -19t20 -48t-20 -48t-49 -19zM438 728q-29 0 -49 19t-20 48t20 48t49 19q28 0 48 -19t20 -48t-20 -48t-48 -19z" />
    <glyph glyph-name="Aring" unicode="&#xc5;" horiz-adv-x="669" 
d="M-3 24l26 7q11 3 19 7.5t15 15t14.5 29l19.5 50.5l199 560h82l207 -567q10 -27 18 -44.5t15 -28t15 -15.5t18 -8l24 -6v-24h-301v24l28 7q20 5 27.5 14t7.5 23q0 13 -5 31.5t-13 39.5l-32 91h-207l-30 -91q-8 -21 -11 -38t-3 -28q0 -20 9 -28.5t30 -13.5l30 -7v-24h-202
v24zM330 720q-43 0 -69.5 26.5t-26.5 64.5q0 40 27 66t69 26t69 -26t27 -66q0 -38 -27.5 -64.5t-68.5 -26.5zM187 269h181l-90 260h-5zM330 752q25 0 40 16.5t15 42.5t-15 43t-40 17q-24 0 -39.5 -17t-15.5 -43t15 -42.5t40 -16.5z" />
    <glyph glyph-name="Ccedilla" unicode="&#xc7;" horiz-adv-x="618" 
d="M252 -185q45 11 65 24.5t20 31.5q0 15 -14 22t-38 9l-5 8l40 80q-63 5 -116.5 28.5t-92 67t-60 107t-21.5 148.5q0 98 28.5 167.5t77.5 113t113.5 63.5t135.5 20q58 0 107 -7t81 -17l11 -203h-28q-18 43 -37.5 79t-36.5 61t-40.5 36.5t-67.5 11.5q-48 0 -82.5 -16.5
t-57 -53t-33.5 -95t-11 -141.5q0 -95 11 -159t33 -102.5t55.5 -55t78.5 -16.5q53 0 79 13.5t46 42.5q20 30 37 62.5t34 76.5h25l-11 -192q-35 -15 -91 -28.5t-129 -13.5h-2l-24 -36q39 -4 62 -20.5t23 -43.5q0 -42 -45 -64t-120 -28v19z" />
    <glyph glyph-name="Eacute" unicode="&#xc9;" 
d="M207 740l155 112q23 17 44 17t35 -16.5t14 -38.5q0 -17 -10 -30.5t-36 -18.5l-196 -41zM20 24l39 8q10 2 17 5t11 10t6 19.5t2 33.5v493q0 21 -2 33.5t-6 19.5t-11 10t-17 5l-39 8v24h527l10 -191h-26q-18 40 -30.5 63t-22.5 38q-12 17 -22.5 27t-24.5 15t-33 6.5
t-48 1.5q-45 0 -68.5 -3t-36.5 -6v-265h39q27 0 45.5 1.5t30.5 5t19 9.5t12 15q10 18 16 35.5t12 42.5h27v-259h-27q-6 24 -12 42t-16 38q-5 10 -11 16t-17.5 9.5t-30 4.5t-48.5 1h-39v-193q0 -36 2 -57.5t13 -32.5t34 -14t65 -3q32 0 52 2t34 8t24 17t22 28
q13 18 28.5 51.5t33.5 79.5h28l-14 -226h-547v24z" />
    <glyph glyph-name="Ntilde" unicode="&#xd1;" horiz-adv-x="689" 
d="M200 730l20.5 47t20 36t23.5 23.5t30 8.5t38.5 -3.5t44 -8t43.5 -8t37 -3.5q15 0 26.5 10t25.5 33l21 -11l-20.5 -47.5t-20 -36.5t-23 -23t-30.5 -8q-17 0 -38.5 3.5t-44 8t-43.5 8t-37 3.5t-27 -10t-25 -33zM145 589h-4v-477q0 -26 2 -41t7 -23t13.5 -11t22.5 -6l38 -7
v-24h-204v24l32 7q12 2 20 5.5t13 11.5t7.5 22.5t2.5 39.5v483q0 21 -2 33.5t-6 19.5t-11 10t-17 5l-39 8v24h232l296 -448h4v336q0 26 -1.5 41t-6.5 23t-13.5 11t-22.5 6l-42 7v24h208v-24l-33 -7q-11 -2 -19 -5.5t-13 -11.5t-7.5 -22.5t-2.5 -39.5v-585h-59z" />
    <glyph glyph-name="Odieresis" unicode="&#xd6;" horiz-adv-x="712" 
d="M248 728q-28 0 -48 19t-20 48t20 48t48 19q29 0 49 -19t20 -48t-20 -48t-49 -19zM464 728q-29 0 -49 19t-20 48t20 48t49 19q28 0 48 -19t20 -48t-20 -48t-48 -19zM352 -12q-65 0 -123.5 21.5t-103 65t-70.5 109t-26 153.5q0 98 29 168t76 114.5t106.5 65t119.5 20.5
q65 0 123.5 -21.5t103 -65t70.5 -109.5t26 -156q0 -99 -29 -168t-76 -113t-106.5 -64t-119.5 -20zM358 27q43 0 74.5 16t52.5 52t31 94.5t10 143.5q0 76 -8.5 137.5t-29 105t-53.5 67t-82 23.5q-42 0 -73.5 -16.5t-52 -53t-31 -95.5t-10.5 -144q0 -76 8.5 -137t28.5 -104
t53 -66t82 -23z" />
    <glyph glyph-name="Udieresis" unicode="&#xdc;" horiz-adv-x="692" 
d="M361 -12q-62 0 -112.5 13t-87 41t-56.5 72.5t-20 108.5v370q0 21 -1.5 33.5t-6 19.5t-11.5 10t-17 5l-38 8v24h298v-24l-37 -8q-11 -3 -18 -6t-11 -9.5t-5.5 -19t-1.5 -33.5v-386q0 -83 38 -122t128 -39q85 0 122 46t37 127v362q0 26 -1.5 41t-6.5 23t-14 11t-23 6l-43 7
v24h209v-24l-33 -7q-11 -2 -18.5 -5.5t-12.5 -11.5t-7.5 -22.5t-2.5 -39.5v-371q0 -46 -14.5 -87t-44.5 -71.5t-76.5 -48t-111.5 -17.5zM282 728q-28 0 -48 19t-20 48t20 48t48 19q29 0 49 -19t20 -48t-20 -48t-49 -19zM498 728q-29 0 -49 19t-20 48t20 48t49 19
q28 0 48 -19t20 -48t-20 -48t-48 -19z" />
    <glyph glyph-name="aacute" unicode="&#xe1;" horiz-adv-x="515" 
d="M169 -13q-70 0 -110 34.5t-40 98.5q0 32 12.5 55.5t35 40.5t52.5 29t65 20l118 29v93q0 29 -3 49.5t-12 33t-24.5 18.5t-40.5 6q-27 0 -37 -7.5t-12 -29.5q-4 -38 -17.5 -58t-50.5 -20q-31 0 -46 15.5t-15 40.5q0 24 16 42t43.5 29.5t65 17.5t81.5 6q92 0 139 -32
t47 -103v-289q0 -25 5.5 -37.5t19.5 -20.5q9 -5 21.5 -7t25.5 -2v-21q-13 -10 -40.5 -20t-63.5 -10q-42 0 -65 16t-30 44h-5q-19 -25 -54 -43t-81 -18zM230 49q27 0 45.5 11t26.5 26v161l-58 -6q-43 -4 -67.5 -26t-24.5 -77q0 -47 21.5 -68t56.5 -21zM151 594l142 119
q23 20 46 20q21 0 35 -16.5t14 -36.5q0 -15 -9.5 -30t-32.5 -22l-188 -50z" />
    <glyph glyph-name="agrave" unicode="&#xe0;" horiz-adv-x="515" 
d="M169 -13q-70 0 -110 34.5t-40 98.5q0 32 12.5 55.5t35 40.5t52.5 29t65 20l118 29v93q0 29 -3 49.5t-12 33t-24.5 18.5t-40.5 6q-27 0 -37 -7.5t-12 -29.5q-4 -38 -17.5 -58t-50.5 -20q-31 0 -46 15.5t-15 40.5q0 24 16 42t43.5 29.5t65 17.5t81.5 6q92 0 139 -32
t47 -103v-289q0 -25 5.5 -37.5t19.5 -20.5q9 -5 21.5 -7t25.5 -2v-21q-13 -10 -40.5 -20t-63.5 -10q-42 0 -65 16t-30 44h-5q-19 -25 -54 -43t-81 -18zM230 49q27 0 45.5 11t26.5 26v161l-58 -6q-43 -4 -67.5 -26t-24.5 -77q0 -47 21.5 -68t56.5 -21zM159 628q-23 7 -33 22
t-10 30q0 20 14 36.5t35 16.5q24 0 47 -20l142 -119l-8 -16z" />
    <glyph glyph-name="acircumflex" unicode="&#xe2;" horiz-adv-x="515" 
d="M169 -13q-70 0 -110 34.5t-40 98.5q0 32 12.5 55.5t35 40.5t52.5 29t65 20l118 29v93q0 29 -3 49.5t-12 33t-24.5 18.5t-40.5 6q-27 0 -37 -7.5t-12 -29.5q-4 -38 -17.5 -58t-50.5 -20q-31 0 -46 15.5t-15 40.5q0 24 16 42t43.5 29.5t65 17.5t81.5 6q92 0 139 -32
t47 -103v-289q0 -25 5.5 -37.5t19.5 -20.5q9 -5 21.5 -7t25.5 -2v-21q-13 -10 -40.5 -20t-63.5 -10q-42 0 -65 16t-30 44h-5q-19 -25 -54 -43t-81 -18zM230 49q27 0 45.5 11t26.5 26v161l-58 -6q-43 -4 -67.5 -26t-24.5 -77q0 -47 21.5 -68t56.5 -21zM103 588l122 140h45
l123 -140l-10 -15l-135 64l-135 -64z" />
    <glyph glyph-name="adieresis" unicode="&#xe4;" horiz-adv-x="515" 
d="M169 -13q-70 0 -110 34.5t-40 98.5q0 32 12.5 55.5t35 40.5t52.5 29t65 20l118 29v93q0 29 -3 49.5t-12 33t-24.5 18.5t-40.5 6q-27 0 -37 -7.5t-12 -29.5q-4 -38 -17.5 -58t-50.5 -20q-31 0 -46 15.5t-15 40.5q0 24 16 42t43.5 29.5t65 17.5t81.5 6q92 0 139 -32
t47 -103v-289q0 -25 5.5 -37.5t19.5 -20.5q9 -5 21.5 -7t25.5 -2v-21q-13 -10 -40.5 -20t-63.5 -10q-42 0 -65 16t-30 44h-5q-19 -25 -54 -43t-81 -18zM230 49q27 0 45.5 11t26.5 26v161l-58 -6q-43 -4 -67.5 -26t-24.5 -77q0 -47 21.5 -68t56.5 -21zM148 581q-28 0 -48 19
t-20 48t20 48t48 19q29 0 49 -19t20 -48t-20 -48t-49 -19zM348 581q-29 0 -49 19t-20 48t20 48t49 19q28 0 48 -19t20 -48t-20 -48t-48 -19z" />
    <glyph glyph-name="atilde" unicode="&#xe3;" horiz-adv-x="515" 
d="M169 -13q-70 0 -110 34.5t-40 98.5q0 32 12.5 55.5t35 40.5t52.5 29t65 20l118 29v93q0 29 -3 49.5t-12 33t-24.5 18.5t-40.5 6q-27 0 -37 -7.5t-12 -29.5q-4 -38 -17.5 -58t-50.5 -20q-31 0 -46 15.5t-15 40.5q0 24 16 42t43.5 29.5t65 17.5t81.5 6q92 0 139 -32
t47 -103v-289q0 -25 5.5 -37.5t19.5 -20.5q9 -5 21.5 -7t25.5 -2v-21q-13 -10 -40.5 -20t-63.5 -10q-42 0 -65 16t-30 44h-5q-19 -25 -54 -43t-81 -18zM230 49q27 0 45.5 11t26.5 26v161l-58 -6q-43 -4 -67.5 -26t-24.5 -77q0 -47 21.5 -68t56.5 -21zM86 583l21 47.5
t20.5 36.5t23.5 23t30 8t37 -3.5t41 -8t41 -8t36 -3.5q15 0 26.5 10t25.5 33l22 -11l-20.5 -47.5t-20 -36.5t-23.5 -23t-31 -8q-17 0 -37.5 3.5t-41.5 8t-40.5 8t-35.5 3.5t-27 -10t-25 -33z" />
    <glyph glyph-name="aring" unicode="&#xe5;" horiz-adv-x="515" 
d="M169 -13q-70 0 -110 34.5t-40 98.5q0 32 12.5 55.5t35 40.5t52.5 29t65 20l118 29v93q0 29 -3 49.5t-12 33t-24.5 18.5t-40.5 6q-27 0 -37 -7.5t-12 -29.5q-4 -38 -17.5 -58t-50.5 -20q-31 0 -46 15.5t-15 40.5q0 24 16 42t43.5 29.5t65 17.5t81.5 6q92 0 139 -32
t47 -103v-289q0 -25 5.5 -37.5t19.5 -20.5q9 -5 21.5 -7t25.5 -2v-21q-13 -10 -40.5 -20t-63.5 -10q-42 0 -65 16t-30 44h-5q-19 -25 -54 -43t-81 -18zM230 49q27 0 45.5 11t26.5 26v161l-58 -6q-43 -4 -67.5 -26t-24.5 -77q0 -47 21.5 -68t56.5 -21zM248 573
q-43 0 -69.5 26.5t-26.5 64.5q0 40 27 66t69 26t69 -26t27 -66q0 -38 -27.5 -64.5t-68.5 -26.5zM248 605q25 0 40 16.5t15 42.5t-15 43t-40 17q-24 0 -39.5 -17t-15.5 -43t15 -42.5t40 -16.5z" />
    <glyph glyph-name="ccedilla" unicode="&#xe7;" horiz-adv-x="484" 
d="M151 -185q45 11 65 24.5t20 31.5q0 15 -14 22t-38 9l-5 8l40 82q-48 7 -84.5 29t-61 55.5t-37.5 78.5t-13 99q0 79 27.5 132t70 85t94.5 45.5t102 13.5q73 0 111.5 -23.5t38.5 -66.5q0 -27 -18 -45t-47 -18q-35 0 -48.5 19.5t-17.5 48.5q-4 31 -12.5 39.5t-33.5 8.5
t-48.5 -9t-42 -31.5t-29.5 -61t-11 -97.5q0 -114 37 -172.5t122 -58.5q48 0 86 12.5t64 26.5v-31q-11 -12 -29.5 -26.5t-44.5 -27t-58 -21t-70 -8.5h-11l-24 -36q39 -4 62 -20.5t23 -43.5q0 -42 -45 -64t-120 -28v19z" />
    <glyph glyph-name="eacute" unicode="&#xe9;" horiz-adv-x="515" 
d="M276 -12q-63 0 -110.5 19t-79 54.5t-47.5 86t-16 113.5t21 113t56.5 84.5t81 53t94.5 18.5q50 0 89.5 -13.5t67.5 -43.5t43 -77.5t16 -115.5h-334q1 -62 13 -103.5t34 -67t53 -36t69 -10.5q51 0 87 12.5t65 26.5v-30q-12 -12 -31.5 -26.5t-45 -27.5t-57.5 -21.5t-69 -8.5
zM270 495q-46 0 -77 -42t-35 -138l195 10q0 45 -3.5 77.5t-13 53t-25.5 30t-41 9.5zM178 594l142 119q23 20 46 20q21 0 35 -16.5t14 -36.5q0 -15 -9.5 -30t-32.5 -22l-188 -50z" />
    <glyph glyph-name="egrave" unicode="&#xe8;" horiz-adv-x="515" 
d="M276 -12q-63 0 -110.5 19t-79 54.5t-47.5 86t-16 113.5t21 113t56.5 84.5t81 53t94.5 18.5q50 0 89.5 -13.5t67.5 -43.5t43 -77.5t16 -115.5h-334q1 -62 13 -103.5t34 -67t53 -36t69 -10.5q51 0 87 12.5t65 26.5v-30q-12 -12 -31.5 -26.5t-45 -27.5t-57.5 -21.5t-69 -8.5
zM270 495q-46 0 -77 -42t-35 -138l195 10q0 45 -3.5 77.5t-13 53t-25.5 30t-41 9.5zM185 628q-23 7 -33 22t-10 30q0 20 14 36.5t35 16.5q24 0 47 -20l142 -119l-8 -16z" />
    <glyph glyph-name="ecircumflex" unicode="&#xea;" horiz-adv-x="515" 
d="M276 -12q-63 0 -110.5 19t-79 54.5t-47.5 86t-16 113.5t21 113t56.5 84.5t81 53t94.5 18.5q50 0 89.5 -13.5t67.5 -43.5t43 -77.5t16 -115.5h-334q1 -62 13 -103.5t34 -67t53 -36t69 -10.5q51 0 87 12.5t65 26.5v-30q-12 -12 -31.5 -26.5t-45 -27.5t-57.5 -21.5t-69 -8.5
zM270 495q-46 0 -77 -42t-35 -138l195 10q0 45 -3.5 77.5t-13 53t-25.5 30t-41 9.5zM129 588l122 140h45l123 -140l-10 -15l-135 64l-135 -64z" />
    <glyph glyph-name="edieresis" unicode="&#xeb;" horiz-adv-x="515" 
d="M276 -12q-63 0 -110.5 19t-79 54.5t-47.5 86t-16 113.5t21 113t56.5 84.5t81 53t94.5 18.5q50 0 89.5 -13.5t67.5 -43.5t43 -77.5t16 -115.5h-334q1 -62 13 -103.5t34 -67t53 -36t69 -10.5q51 0 87 12.5t65 26.5v-30q-12 -12 -31.5 -26.5t-45 -27.5t-57.5 -21.5t-69 -8.5
zM270 495q-46 0 -77 -42t-35 -138l195 10q0 45 -3.5 77.5t-13 53t-25.5 30t-41 9.5zM374 581q-29 0 -49 19t-20 48t20 48t49 19q28 0 48 -19t20 -48t-20 -48t-48 -19zM174 581q-28 0 -48 19t-20 48t20 48t48 19q29 0 49 -19t20 -48t-20 -48t-49 -19z" />
    <glyph glyph-name="iacute" unicode="&#xed;" horiz-adv-x="288" 
d="M49 594l142 119q23 20 46 20q21 0 35 -16.5t14 -36.5q0 -15 -9.5 -30t-32.5 -22l-188 -50zM15 26l32 8q17 5 24.5 11t7.5 26v349q0 22 -5.5 30t-25.5 19l-35 20v17l195 23l9 -7q-2 -31 -3 -56.5t-1 -48.5v-346q0 -21 6.5 -26.5t25.5 -10.5l32 -8v-26h-262v26z" />
    <glyph glyph-name="igrave" unicode="&#xec;" horiz-adv-x="288" 
d="M15 26l32 8q17 5 24.5 11t7.5 26v349q0 22 -5.5 30t-25.5 19l-35 20v17l195 23l9 -7q-2 -31 -3 -56.5t-1 -48.5v-346q0 -21 6.5 -26.5t25.5 -10.5l32 -8v-26h-262v26zM55 628q-23 7 -33 22t-10 30q0 20 14 36.5t35 16.5q24 0 47 -20l142 -119l-8 -16z" />
    <glyph glyph-name="icircumflex" unicode="&#xee;" horiz-adv-x="288" 
d="M0 588l122 140h45l123 -140l-10 -15l-135 64l-135 -64zM15 26l32 8q17 5 24.5 11t7.5 26v349q0 22 -5.5 30t-25.5 19l-35 20v17l195 23l9 -7q-2 -31 -3 -56.5t-1 -48.5v-346q0 -21 6.5 -26.5t25.5 -10.5l32 -8v-26h-262v26z" />
    <glyph glyph-name="idieresis" unicode="&#xef;" horiz-adv-x="288" 
d="M45 581q-28 0 -48 19t-20 48t20 48t48 19q29 0 49 -19t20 -48t-20 -48t-49 -19zM245 581q-29 0 -49 19t-20 48t20 48t49 19q28 0 48 -19t20 -48t-20 -48t-48 -19zM15 26l32 8q17 5 24.5 11t7.5 26v349q0 22 -5.5 30t-25.5 19l-35 20v17l195 23l9 -7q-2 -31 -3 -56.5
t-1 -48.5v-346q0 -21 6.5 -26.5t25.5 -10.5l32 -8v-26h-262v26z" />
    <glyph glyph-name="ntilde" unicode="&#xf1;" horiz-adv-x="608" 
d="M15 23l32 8q10 3 16.5 6t10 9t4.5 15.5t1 24.5v321q0 16 -1 25t-4.5 15t-9.5 10.5t-16 10.5l-35 21v17l188 23l9 -6l-2 -62h5q38 27 87 47.5t101 20.5q69 0 100.5 -32.5t31.5 -100.5v-310q0 -16 1.5 -25.5t5 -15t9.5 -8.5t16 -6l32 -8v-23h-259v23l31 8q10 3 16 5.5t9 8
t4 15t1 26.5v278q0 48 -18 66.5t-58 18.5q-31 0 -61 -6.5t-49 -11.5v-345q0 -17 1 -26.5t4 -15t9 -8t16 -5.5l31 -8v-23h-259v23zM146 583l21 47.5t20.5 36.5t23.5 23t30 8t37 -3.5t41 -8t41 -8t36 -3.5q15 0 26.5 10t25.5 33l22 -11l-20.5 -47.5t-20 -36.5t-23.5 -23
t-31 -8q-17 0 -37.5 3.5t-41.5 8t-40.5 8t-35.5 3.5t-27 -10t-25 -33z" />
    <glyph glyph-name="oacute" unicode="&#xf3;" horiz-adv-x="569" 
d="M188 594l142 119q23 20 46 20q21 0 35 -16.5t14 -36.5q0 -15 -9.5 -30t-32.5 -22l-188 -50zM284 -13q-54 0 -101.5 17t-83 50.5t-56 84t-20.5 118.5q0 69 22 120.5t59 85.5t83.5 50.5t96.5 16.5q54 0 101.5 -16.5t83 -49.5t56.5 -83.5t21 -117.5q0 -69 -22 -121
t-58.5 -86.5t-84 -51.5t-97.5 -17zM288 23q27 0 48.5 10.5t36 36.5t22.5 70t8 111q0 72 -8 119t-23 74.5t-38 38.5t-53 11q-28 0 -49.5 -11t-36 -37t-22 -68.5t-7.5 -104.5q0 -73 7.5 -121t22.5 -76.5t38 -40.5t54 -12z" />
    <glyph glyph-name="ograve" unicode="&#xf2;" horiz-adv-x="569" 
d="M284 -13q-54 0 -101.5 17t-83 50.5t-56 84t-20.5 118.5q0 69 22 120.5t59 85.5t83.5 50.5t96.5 16.5q54 0 101.5 -16.5t83 -49.5t56.5 -83.5t21 -117.5q0 -69 -22 -121t-58.5 -86.5t-84 -51.5t-97.5 -17zM288 23q27 0 48.5 10.5t36 36.5t22.5 70t8 111q0 72 -8 119
t-23 74.5t-38 38.5t-53 11q-28 0 -49.5 -11t-36 -37t-22 -68.5t-7.5 -104.5q0 -73 7.5 -121t22.5 -76.5t38 -40.5t54 -12zM194 628q-23 7 -33 22t-10 30q0 20 14 36.5t35 16.5q24 0 47 -20l142 -119l-8 -16z" />
    <glyph glyph-name="ocircumflex" unicode="&#xf4;" horiz-adv-x="569" 
d="M139 588l122 140h45l123 -140l-10 -15l-135 64l-135 -64zM284 -13q-54 0 -101.5 17t-83 50.5t-56 84t-20.5 118.5q0 69 22 120.5t59 85.5t83.5 50.5t96.5 16.5q54 0 101.5 -16.5t83 -49.5t56.5 -83.5t21 -117.5q0 -69 -22 -121t-58.5 -86.5t-84 -51.5t-97.5 -17zM288 23
q27 0 48.5 10.5t36 36.5t22.5 70t8 111q0 72 -8 119t-23 74.5t-38 38.5t-53 11q-28 0 -49.5 -11t-36 -37t-22 -68.5t-7.5 -104.5q0 -73 7.5 -121t22.5 -76.5t38 -40.5t54 -12z" />
    <glyph glyph-name="odieresis" unicode="&#xf6;" horiz-adv-x="569" 
d="M184 581q-28 0 -48 19t-20 48t20 48t48 19q29 0 49 -19t20 -48t-20 -48t-49 -19zM384 581q-29 0 -49 19t-20 48t20 48t49 19q28 0 48 -19t20 -48t-20 -48t-48 -19zM284 -13q-54 0 -101.5 17t-83 50.5t-56 84t-20.5 118.5q0 69 22 120.5t59 85.5t83.5 50.5t96.5 16.5
q54 0 101.5 -16.5t83 -49.5t56.5 -83.5t21 -117.5q0 -69 -22 -121t-58.5 -86.5t-84 -51.5t-97.5 -17zM288 23q27 0 48.5 10.5t36 36.5t22.5 70t8 111q0 72 -8 119t-23 74.5t-38 38.5t-53 11q-28 0 -49.5 -11t-36 -37t-22 -68.5t-7.5 -104.5q0 -73 7.5 -121t22.5 -76.5
t38 -40.5t54 -12z" />
    <glyph glyph-name="otilde" unicode="&#xf5;" horiz-adv-x="569" 
d="M284 -13q-54 0 -101.5 17t-83 50.5t-56 84t-20.5 118.5q0 69 22 120.5t59 85.5t83.5 50.5t96.5 16.5q54 0 101.5 -16.5t83 -49.5t56.5 -83.5t21 -117.5q0 -69 -22 -121t-58.5 -86.5t-84 -51.5t-97.5 -17zM288 23q27 0 48.5 10.5t36 36.5t22.5 70t8 111q0 72 -8 119
t-23 74.5t-38 38.5t-53 11q-28 0 -49.5 -11t-36 -37t-22 -68.5t-7.5 -104.5q0 -73 7.5 -121t22.5 -76.5t38 -40.5t54 -12zM122 583l21 47.5t20.5 36.5t23.5 23t30 8t37 -3.5t41 -8t41 -8t36 -3.5q15 0 26.5 10t25.5 33l22 -11l-20.5 -47.5t-20 -36.5t-23.5 -23t-31 -8
q-17 0 -37.5 3.5t-41.5 8t-40.5 8t-35.5 3.5t-27 -10t-25 -33z" />
    <glyph glyph-name="uacute" unicode="&#xfa;" horiz-adv-x="604" 
d="M211 594l142 119q23 20 46 20q21 0 35 -16.5t14 -36.5q0 -15 -9.5 -30t-32.5 -22l-188 -50zM208 -12q-61 0 -96.5 33.5t-35.5 98.5v295q0 15 -1 23.5t-4 14t-8.5 9.5t-15.5 9l-37 20v18l189 20l11 -9v-369q0 -45 19 -65t57 -20q31 0 59.5 8.5t50.5 16.5v324q0 15 -1 23.5
t-4 14t-8.5 9.5t-15.5 9l-37 20v18l189 20l11 -9v-407q0 -18 1 -29t4.5 -17.5t9.5 -10.5t16 -8l33 -15v-19l-186 -26l-9 7l2 65h-5q-39 -28 -86 -50t-102 -22z" />
    <glyph glyph-name="ugrave" unicode="&#xf9;" horiz-adv-x="604" 
d="M208 -12q-61 0 -96.5 33.5t-35.5 98.5v295q0 15 -1 23.5t-4 14t-8.5 9.5t-15.5 9l-37 20v18l189 20l11 -9v-369q0 -45 19 -65t57 -20q31 0 59.5 8.5t50.5 16.5v324q0 15 -1 23.5t-4 14t-8.5 9.5t-15.5 9l-37 20v18l189 20l11 -9v-407q0 -18 1 -29t4.5 -17.5t9.5 -10.5
t16 -8l33 -15v-19l-186 -26l-9 7l2 65h-5q-39 -28 -86 -50t-102 -22zM217 628q-23 7 -33 22t-10 30q0 20 14 36.5t35 16.5q24 0 47 -20l142 -119l-8 -16z" />
    <glyph glyph-name="ucircumflex" unicode="&#xfb;" horiz-adv-x="604" 
d="M161 588l122 140h45l123 -140l-10 -15l-135 64l-135 -64zM208 -12q-61 0 -96.5 33.5t-35.5 98.5v295q0 15 -1 23.5t-4 14t-8.5 9.5t-15.5 9l-37 20v18l189 20l11 -9v-369q0 -45 19 -65t57 -20q31 0 59.5 8.5t50.5 16.5v324q0 15 -1 23.5t-4 14t-8.5 9.5t-15.5 9l-37 20
v18l189 20l11 -9v-407q0 -18 1 -29t4.5 -17.5t9.5 -10.5t16 -8l33 -15v-19l-186 -26l-9 7l2 65h-5q-39 -28 -86 -50t-102 -22z" />
    <glyph glyph-name="udieresis" unicode="&#xfc;" horiz-adv-x="604" 
d="M206 581q-28 0 -48 19t-20 48t20 48t48 19q29 0 49 -19t20 -48t-20 -48t-49 -19zM406 581q-29 0 -49 19t-20 48t20 48t49 19q28 0 48 -19t20 -48t-20 -48t-48 -19zM208 -12q-61 0 -96.5 33.5t-35.5 98.5v295q0 15 -1 23.5t-4 14t-8.5 9.5t-15.5 9l-37 20v18l189 20l11 -9
v-369q0 -45 19 -65t57 -20q31 0 59.5 8.5t50.5 16.5v324q0 15 -1 23.5t-4 14t-8.5 9.5t-15.5 9l-37 20v18l189 20l11 -9v-407q0 -18 1 -29t4.5 -17.5t9.5 -10.5t16 -8l33 -15v-19l-186 -26l-9 7l2 65h-5q-39 -28 -86 -50t-102 -22z" />
    <glyph glyph-name="dagger" unicode="&#x2020;" horiz-adv-x="415" 
d="M146 364q8 11 16 25.5t14.5 30.5t10.5 32.5t5 31.5q-19 -2 -35.5 -8.5t-31.5 -14l-28 -13.5t-26 -6q-26 0 -39.5 16t-13.5 38q0 23 13.5 39t39.5 16q13 0 26 -6l28 -13.5t31.5 -14.5t35.5 -9q-2 20 -9.5 40t-16 37.5l-15.5 32.5t-7 26q0 25 18.5 41.5t43.5 16.5
t43.5 -16.5t18.5 -41.5q0 -11 -6.5 -26t-15 -32.5t-16 -37.5t-9.5 -40q19 2 36 9t32 14.5t28.5 13.5t25.5 6q26 0 39.5 -16t13.5 -39q0 -22 -13.5 -38t-39.5 -16q-12 0 -25.5 6t-28.5 13.5t-32 14t-36 8.5q1 -15 5.5 -31.5t11 -32.5t14 -30.5t15.5 -25.5l-48 -431h-25z" />
    <glyph glyph-name="degree" unicode="&#xb0;" horiz-adv-x="304" 
d="M152 456q-27 0 -49.5 10t-39 27t-25.5 39.5t-9 47.5t9 47t25.5 39t39 27t49.5 10t49.5 -10t39 -27t25.5 -39t9 -47t-9 -47.5t-25.5 -39.5t-39 -27t-49.5 -10zM152 492q36 0 58 26t22 62q0 35 -22 61t-58 26t-58 -26t-22 -61q0 -36 22 -62t58 -26z" />
    <glyph glyph-name="cent" unicode="&#xa2;" horiz-adv-x="485" 
d="M260 596h40v-67q5 1 9 1h9q75 0 113.5 -23.5t38.5 -66.5q0 -27 -16.5 -44.5t-45.5 -17.5q-35 0 -47.5 18t-16.5 47q-5 29 -14 38.5t-30 11.5v-432h17q52 0 89.5 13.5t63.5 27.5v-31q-10 -11 -25.5 -24t-37 -24.5t-48.5 -20.5t-59 -12v-100h-40v98q-57 2 -101 22.5
t-74 55.5t-46 84t-16 108q0 66 20.5 114t54 80t76 49.5t86.5 24.5v70zM161 294q0 -95 23.5 -150.5t75.5 -73.5v419q-20 -5 -38 -17.5t-31.5 -35t-21.5 -57.5t-8 -85z" />
    <glyph glyph-name="sterling" unicode="&#xa3;" horiz-adv-x="529" 
d="M39 379h63q-8 31 -13.5 62t-5.5 59q0 45 17 83t49 65t77.5 42t102.5 15q85 0 130 -26.5t45 -73.5q0 -29 -18 -44.5t-44 -15.5q-35 0 -50.5 20t-24.5 58q-4 16 -7 25t-7.5 13.5t-11.5 5.5t-19 1q-42 0 -66 -30.5t-24 -105.5q0 -30 2.5 -71.5t4.5 -81.5h157v-41h-155
q0 -10 0.5 -18.5t0.5 -16.5q0 -63 -33.5 -108t-94.5 -81v-6h282q15 0 25.5 2t19.5 10.5t17.5 24t19.5 42.5h25l-22 -187h-462v76q54 34 81.5 72t27.5 95q0 20 -5 44l-11 51h-73v41z" />
    <glyph glyph-name="section" unicode="&#xa7;" horiz-adv-x="558" 
d="M251 -204q-78 0 -118.5 26t-40.5 68q0 25 14.5 39.5t42.5 14.5q30 0 44.5 -16t18.5 -52q4 -28 13.5 -37t41.5 -9q35 0 56 20.5t21 58.5q0 21 -7 38t-24.5 36t-47.5 43l-77 59q-42 31 -73 57.5t-52 51.5t-31 50.5t-10 56.5q0 56 33.5 92.5t81.5 61.5q-21 37 -21 80
q0 36 13.5 66.5t38 53t60.5 35t81 12.5q75 0 115 -25t40 -65q0 -22 -15.5 -38t-43.5 -16q-31 0 -43.5 16.5t-17.5 54.5q-3 23 -13 31t-38 8q-35 0 -56 -21.5t-21 -59.5q0 -21 6.5 -37.5t23.5 -35t46.5 -42.5t76.5 -59q46 -35 78.5 -62t52 -52t28.5 -50t9 -56
q0 -52 -32.5 -88.5t-78.5 -65.5q19 -35 19 -73t-14 -69.5t-39.5 -54t-61.5 -34.5t-79 -12zM407 67q36 27 36 75q0 17 -6.5 32t-23 33t-45 40.5l-71.5 55.5q-48 35 -84 65.5t-59 60.5q-20 -13 -29.5 -30.5t-9.5 -43.5q0 -17 7 -32.5t24 -33t45 -40l69 -53.5l86 -67.5
t61 -61.5z" />
    <glyph glyph-name="bullet" unicode="&#x2022;" horiz-adv-x="335" 
d="M166 197q-27 0 -50.5 10.5t-41 28.5t-27.5 41.5t-10 50.5q0 28 10 52t27.5 41.5t41 27.5t50.5 10q26 0 50 -10t42 -27.5t29 -41.5t11 -52q0 -27 -11 -50.5t-29 -41.5t-42 -28.5t-50 -10.5z" />
    <glyph glyph-name="paragraph" unicode="&#xb6;" horiz-adv-x="531" 
d="M255 338q-7 -1 -15.5 -1.5t-19.5 -0.5q-52 0 -89.5 13.5t-62 38t-36 58t-11.5 73.5q0 38 12.5 70t37.5 55t62 36t86 13h292v-24l-38 -8q-11 -2 -17.5 -5t-11 -10t-6 -19.5t-1.5 -33.5v-693h-49v754h-85v-754h-48v438z" />
    <glyph glyph-name="germandbls" unicode="&#xdf;" horiz-adv-x="633" 
d="M425 -9q-76 0 -112 22t-36 60q0 24 15 39.5t42 15.5q31 0 43 -16t15 -44q4 -26 12.5 -33.5t34.5 -7.5q35 0 54.5 18.5t19.5 49.5q0 17 -5.5 31t-18 27.5t-32.5 28t-50 33.5q-32 20 -53.5 36.5t-34.5 32.5t-18.5 32t-5.5 34q0 32 17.5 62.5t38.5 62t38.5 66t17.5 75.5
q0 46 -21.5 77.5t-71.5 31.5q-48 0 -74.5 -31t-26.5 -106v-505q0 -16 0.5 -26t3 -15.5t6.5 -8t12 -4.5l26 -6v-23h-246v23l32 8q10 3 16.5 6t10 9t4.5 15.5t1 24.5v377h-70v22l70 31v16q0 61 21 104t55 70.5t77.5 40t87.5 12.5q52 0 90 -10.5t63 -28.5t37 -41t12 -48
q0 -39 -23.5 -70t-52 -56l-52 -45.5t-23.5 -39.5q0 -9 5 -17t18 -18.5t36.5 -26t60.5 -37.5q34 -20 57.5 -39t38 -39t21 -41.5t6.5 -47.5q0 -38 -14 -68t-39 -51t-59.5 -32.5t-76.5 -11.5z" />
    <glyph glyph-name="registered" unicode="&#xae;" horiz-adv-x="394" 
d="M197 336q-38 0 -70.5 14.5t-56 39t-37 57.5t-13.5 71t13.5 71t37 58t56 39t70.5 14q37 0 69.5 -14t56.5 -39t38 -58t14 -71t-14 -71t-38 -57.5t-56.5 -39t-69.5 -14.5zM197 360q33 0 60.5 12.5t47.5 34t31 50t11 61.5t-11 62t-31 50t-47.5 33.5t-60.5 12.5t-60.5 -12.5
t-47 -33.5t-30.5 -50t-11 -62t11 -61.5t30.5 -50t47 -34t60.5 -12.5zM103 438l12 3q6 2 8 4t2 13v125q0 11 -2 14t-8 5l-11 2v14h91q44 0 62.5 -13t18.5 -39q0 -35 -38 -46v-2q9 -19 19.5 -37t21.5 -33q2 -3 5.5 -5t6.5 -3l8 -2v-13h-62q-14 19 -24.5 40t-18.5 40h-19v-47
q0 -11 1.5 -13t8.5 -4l12 -3v-13h-94v13zM190 521q20 0 28 10.5t8 30.5q0 21 -8 30t-25 9h-9.5t-8.5 -1v-79h15z" />
    <glyph glyph-name="copyright" unicode="&#xa9;" horiz-adv-x="788" 
d="M398 132q-45 0 -83 12.5t-65.5 38t-43.5 65.5t-16 94q0 60 17.5 102t47.5 68.5t70 38.5t84 12q42 0 72 -5.5t50 -10.5l4 -122h-21l-22.5 44t-22.5 36q-12 16 -24.5 22.5t-40.5 6.5q-54 0 -76.5 -42t-22.5 -135q0 -55 6.5 -92.5t19.5 -60.5t33 -33t47 -10q23 0 38 7t27 25
t21.5 38.5l22.5 48.5h21l-7 -124q-21 -8 -55 -16t-81 -8zM393 -16q-76 0 -141 28.5t-113 77.5t-75 114.5t-27 139.5t27 139.5t75 114t113 76.5t141 28q75 0 140.5 -28t114 -76.5t76 -114t27.5 -139.5t-27.5 -139.5t-76 -114.5t-114 -77.5t-140.5 -28.5zM393 22
q68 0 125.5 25.5t99 69t64.5 102.5t23 125t-23 124.5t-64.5 102t-99 69t-125.5 25.5q-69 0 -126 -25.5t-98.5 -69t-64.5 -102t-23 -124.5t23 -125t64.5 -102.5t98.5 -69t126 -25.5z" />
    <glyph glyph-name="trademark" unicode="&#x2122;" horiz-adv-x="718" 
d="M309 432l20 4q10 2 13.5 10t3.5 29v168q0 15 -3 19.5t-13 6.5l-18 5v19h133l57 -163h1l56 163h133v-18l-19 -5q-9 -3 -12.5 -7t-3.5 -19v-179q0 -17 3 -22t12 -7l21 -4v-19h-151v19l20 4q10 2 12.5 7t2.5 22v192h-2l-80 -238h-32l-85 238h-2v-181q0 -23 3.5 -30.5
t15.5 -9.5l21 -4v-19h-107v19zM76 432l24 5q11 2 13.5 7t2.5 22v204h-4q-18 0 -26 -3t-15 -14q-9 -14 -15 -27.5l-16 -37.5h-17l4 105h258l4 -105h-16l-16.5 37t-14.5 28q-7 11 -15.5 14t-26.5 3h-4v-204q0 -17 2.5 -22t13.5 -7l25 -5v-18h-161v18z" />
    <glyph glyph-name="acute" unicode="&#xb4;" horiz-adv-x="500" 
d="M135 594l142 119q23 20 46 20q21 0 35 -16.5t14 -36.5q0 -15 -9.5 -30t-32.5 -22l-188 -50z" />
    <glyph glyph-name="dieresis" unicode="&#xa8;" horiz-adv-x="500" 
d="M150 581q-28 0 -48 19t-20 48t20 48t48 19q29 0 49 -19t20 -48t-20 -48t-49 -19zM350 581q-29 0 -49 19t-20 48t20 48t49 19q28 0 48 -19t20 -48t-20 -48t-48 -19z" />
    <glyph glyph-name="notequal" unicode="&#x2260;" horiz-adv-x="505" 
d="M36 438h244l77 137h57l-77 -137h132v-50h-160l-56 -100h216v-50h-244l-77 -137h-56l76 137h-132v50h160l56 100h-216v50z" />
    <glyph glyph-name="AE" unicode="&#xc6;" horiz-adv-x="917" 
d="M-4 24l26 7q12 3 21 7.5t19 15t22.5 29t30.5 50.5l293 514q-6 6 -14.5 9t-18.5 5l-40 8v24h526l11 -191h-27q-17 40 -29.5 63t-22.5 38q-11 17 -21.5 27t-24.5 15t-32.5 6.5t-46.5 1.5q-39 0 -62.5 -2.5t-36.5 -6.5v-265h31q27 0 45.5 1.5t30.5 5t19 9.5t12 15
q9 18 15.5 35.5t12.5 42.5h26v-259h-26q-6 24 -12.5 42t-15.5 38q-5 10 -11 16t-17.5 9.5t-30 4.5t-48.5 1h-31v-193q0 -36 2.5 -57.5t13 -32.5t32 -14t59.5 -3q31 0 51 2t33.5 8t23.5 17t22 28q13 18 28.5 51.5t32.5 79.5h28l-14 -226h-532v24l38 8q10 2 17.5 5t12 10
t6.5 19.5t2 33.5v119h-208l-43 -80q-13 -23 -21 -43t-8 -34q-1 -23 31 -31l29 -7v-24h-209v24zM238 257h187v336h-3z" />
    <glyph glyph-name="Oslash" unicode="&#xd8;" horiz-adv-x="712" 
d="M148 55q-54 44 -86.5 114t-32.5 168t29 168t76 114.5t106.5 65t119.5 20.5q94 0 171 -45l44 70h48l-59 -93q54 -43 86.5 -113.5t32.5 -170.5q0 -99 -29 -168t-76 -113t-106.5 -64t-119.5 -20q-95 0 -171 44l-61 -96h-48zM358 27q43 0 74.5 16t52.5 52t31 94.5t10 143.5
q0 131 -22 209l-278 -439q40 -76 132 -76zM186 357q0 -65 5 -116.5t16 -90.5l278 439q-20 38 -52 57.5t-80 19.5q-42 0 -73.5 -16.5t-52 -53t-31 -95.5t-10.5 -144z" />
    <glyph glyph-name="plusminus" unicode="&#xb1;" horiz-adv-x="464" 
d="M36 51h392v-51h-392v51zM202 326h-166v52h166v172h60v-172h166v-52h-166v-172h-60v172z" />
    <glyph glyph-name="lessequal" unicode="&#x2264;" horiz-adv-x="464" 
d="M36 312v50l392 166v-58l-329 -132l329 -133v-59zM36 51h392v-51h-392v51z" />
    <glyph glyph-name="greaterequal" unicode="&#x2265;" horiz-adv-x="464" 
d="M36 146v59l329 133l-329 132v58l392 -166v-50zM428 0h-392v51h392v-51z" />
    <glyph glyph-name="yen" unicode="&#xa5;" horiz-adv-x="609" 
d="M58 344h162l-126 232l-22.5 39.5t-16 25t-14.5 14.5t-16 8l-22 6v24h302v-24l-26 -6q-21 -5 -30 -14t-9 -25q0 -17 18 -56l99 -202h5l88 198q17 40 17 60q0 15 -9 23.5t-31 15.5l-25 6v24h197v-24l-21 -6q-11 -4 -19 -10t-16.5 -17.5t-17.5 -29t-21 -43.5l-107 -219h164
v-41h-175v-73h175v-41h-175v-89q0 -21 1 -33.5t5 -19.5t11.5 -10t19.5 -5l42 -8v-24h-308v24l41 8q12 2 19 5t11 10t5.5 19.5t1.5 33.5v89h-177v41h177v73h-177v41z" />
    <glyph glyph-name="ordfeminine" unicode="&#xaa;" horiz-adv-x="431" 
d="M143 265q-57 0 -89.5 27.5t-32.5 78.5t37 77.5t96 40.5l95 24v65q0 50 -12 70t-52 20q-22 0 -27.5 -8t-8.5 -25q-5 -32 -16 -48.5t-42 -16.5q-26 0 -39 13.5t-13 34.5q0 19 12.5 34.5t35 26t53.5 16t67 5.5q75 0 117.5 -27.5t42.5 -88.5v-220q0 -20 3.5 -30.5t15.5 -15.5
q16 -8 39 -8v-20q-13 -8 -35.5 -16.5t-54.5 -8.5q-37 0 -56 13t-25 35h-3q-15 -19 -42.5 -33.5t-65.5 -14.5zM193 319q20 0 34.5 8.5t21.5 19.5v125l-47 -5q-34 -4 -49.5 -20.5t-15.5 -61.5q0 -37 14.5 -51.5t41.5 -14.5z" />
    <glyph glyph-name="ordmasculine" unicode="&#xba;" horiz-adv-x="474" 
d="M237 266q-42 0 -81 13.5t-68.5 40.5t-47 67.5t-17.5 94.5q0 55 18.5 96t48.5 68t68.5 40.5t78.5 13.5q42 0 81 -13t68.5 -40t47 -67t17.5 -94q0 -56 -18.5 -97t-48.5 -68.5t-68.5 -41t-78.5 -13.5zM239 299q22 0 39 8t28 28t17 54.5t6 87.5q0 57 -5.5 94t-17 58
t-29.5 29.5t-42 8.5q-23 0 -39.5 -8.5t-27.5 -29t-16.5 -53.5t-5.5 -82q0 -57 5 -95t16.5 -60t29 -31t42.5 -9z" />
    <glyph glyph-name="ae" unicode="&#xe6;" horiz-adv-x="775" 
d="M543 -12q-68 0 -116 21.5t-78 62.5q-67 -85 -177 -85q-72 0 -112.5 34t-40.5 98q0 32 12.5 56.5t34.5 42t52 30t66 20.5l116 28v91q0 27 -3 47.5t-11.5 33.5t-24 19.5t-40.5 6.5q-27 0 -37 -7.5t-13 -29.5q-4 -38 -17.5 -58t-49.5 -20q-31 0 -46.5 15.5t-15.5 41.5
q0 24 16 41.5t43.5 29t63.5 17.5t77 6q60 0 96.5 -17.5t54.5 -48.5q29 31 67 48.5t85 17.5q48 0 86.5 -14.5t65.5 -45.5t41.5 -80t14.5 -119h-324q2 -59 14.5 -99t33.5 -64t50.5 -34.5t64.5 -10.5q51 0 85.5 12.5t62.5 26.5v-30q-12 -12 -30.5 -26.5t-43.5 -27.5t-56 -21.5
t-67 -8.5zM537 495q-47 0 -76.5 -44.5t-31.5 -144.5l188 10q0 94 -15.5 136.5t-64.5 42.5zM230 49q32 0 55.5 18.5t39.5 48.5q-23 54 -25 134l-56 -6q-43 -4 -67.5 -28t-24.5 -79q0 -47 21.5 -67.5t56.5 -20.5z" />
    <glyph glyph-name="oslash" unicode="&#xf8;" horiz-adv-x="569" 
d="M120 37q-45 33 -71 88t-26 132q0 69 22 120.5t59 85.5t83.5 50.5t96.5 16.5q73 0 135 -31l50 77h45l-63 -97q44 -33 69.5 -86.5t25.5 -129.5q0 -69 -22 -121t-58.5 -86.5t-84 -51.5t-97.5 -17q-74 0 -132 30l-53 -81h-45zM163 256q0 -44 2.5 -77t8.5 -58l206 319
q-15 32 -40 43t-59 11q-28 0 -50 -12t-37 -40t-23 -73.5t-8 -112.5zM288 23q27 0 49 12t37.5 40.5t23.5 75t8 115.5q-1 41 -3.5 72t-7.5 55l-206 -318q16 -30 40 -41t59 -11z" />
    <glyph glyph-name="questiondown" unicode="&#xbf;" horiz-adv-x="456" 
d="M258 -89q-106 0 -164.5 48.5t-58.5 139.5q0 45 17 81t47 64t71.5 47.5t89.5 31.5v87h48v-174q-26 -9 -52 -22t-46.5 -32.5t-33.5 -47t-13 -66.5q0 -35 7.5 -58t20 -36.5t29 -19t34.5 -5.5q24 0 32 8t12 34q5 38 22 56t51 18q31 0 45.5 -17.5t14.5 -39.5q0 -23 -13.5 -41
t-36.5 -30.5t-54.5 -19t-68.5 -6.5zM284 475q-15 0 -28.5 5.5t-24 15t-16.5 23t-6 29.5q0 15 6 28.5t16.5 23.5t24 16t28.5 6q31 0 52.5 -22t21.5 -52q0 -32 -21.5 -52.5t-52.5 -20.5z" />
    <glyph glyph-name="exclamdown" unicode="&#xa1;" horiz-adv-x="275" 
d="M136 472q-30 0 -52.5 20.5t-22.5 52.5q0 30 22.5 52t52.5 22t52.5 -22t22.5 -52q0 -32 -22.5 -52.5t-52.5 -20.5zM136 -90q-20 0 -37.5 6.5t-28.5 20.5t-15 34.5t2 49.5l64 385h29l65 -385q11 -57 -13.5 -84t-65.5 -27z" />
    <glyph glyph-name="florin" unicode="&#x192;" horiz-adv-x="463" 
d="M46 397h85l13 88q17 114 77 166.5t151 52.5q62 0 93 -24.5t31 -58.5q0 -27 -16 -41t-40 -14q-28 0 -42 15t-20 56q-4 21 -8 26t-18 5q-11 0 -20.5 -4t-17 -15.5t-14 -32t-11.5 -53.5l-25 -166h116v-41h-122l-46 -315q-9 -65 -27.5 -110.5t-45 -74t-60.5 -41t-74 -12.5
q-30 0 -51.5 6.5t-35 17t-20 24t-6.5 27.5q0 23 14 36.5t40 13.5q24 0 36 -12.5t18 -47.5q4 -20 8 -25.5t12 -5.5q16 0 25.5 16t16.5 63l63 440h-79v41z" />
    <glyph glyph-name="approxequal" unicode="&#x2248;" horiz-adv-x="505" 
d="M469 319q-10 -21 -20.5 -39.5t-24 -32t-31 -21t-40.5 -7.5t-50.5 7t-55.5 15l-54 15t-45 7q-23 0 -40 -20.5t-26 -44.5l-46 20q15 41 42.5 70t72.5 29q22 0 49.5 -7t55 -15.5t53.5 -15.5t46 -7q25 0 41 21t28 47zM469 471q-10 -21 -20.5 -39.5t-24 -32t-31 -21
t-40.5 -7.5t-50.5 7t-55.5 15.5t-54 15.5t-45 7q-23 0 -40 -21t-26 -45l-46 21q15 40 42.5 69.5t72.5 29.5q22 0 49.5 -7t55 -15.5t53.5 -15.5t46 -7q25 0 41 21t28 47z" />
    <glyph glyph-name="guillemotleft" unicode="&#xab;" horiz-adv-x="448" 
d="M35 243v19l172 198h32l-93 -207l93 -208h-32zM209 243v19l172 198h32l-93 -207l93 -208h-32z" />
    <glyph glyph-name="guillemotright" unicode="&#xbb;" horiz-adv-x="448" 
d="M128 253l-93 207h33l172 -198v-19l-172 -198h-33zM302 253l-93 207h33l172 -198v-19l-172 -198h-33z" />
    <glyph glyph-name="ellipsis" unicode="&#x2026;" horiz-adv-x="648" 
d="M110 -6q-31 0 -52.5 21.5t-21.5 51.5q0 32 21.5 53t52.5 21q30 0 52.5 -21t22.5 -53q0 -30 -22.5 -51.5t-52.5 -21.5zM324 -6q-31 0 -52.5 21.5t-21.5 51.5q0 32 21.5 53t52.5 21q30 0 52.5 -21t22.5 -53q0 -30 -22.5 -51.5t-52.5 -21.5zM538 -6q-31 0 -53 21.5t-22 51.5
q0 32 22 53t53 21q30 0 52.5 -21t22.5 -53q0 -30 -22.5 -51.5t-52.5 -21.5z" />
    <glyph glyph-name="uni00A0" unicode="&#xa0;" horiz-adv-x="500" 
 />
    <glyph glyph-name="Agrave" unicode="&#xc0;" horiz-adv-x="669" 
d="M-3 24l26 7q11 3 19 7.5t15 15t14.5 29l19.5 50.5l199 560h82l207 -567q10 -27 18 -44.5t15 -28t15 -15.5t18 -8l24 -6v-24h-301v24l28 7q20 5 27.5 14t7.5 23q0 13 -5 31.5t-13 39.5l-32 91h-207l-30 -91q-8 -21 -11 -38t-3 -28q0 -20 9 -28.5t30 -13.5l30 -7v-24h-202
v24zM187 269h181l-90 260h-5zM440 724l-196 41q-26 5 -36 18.5t-10 30.5q0 22 14 38.5t35 16.5t44 -17l155 -112z" />
    <glyph glyph-name="Atilde" unicode="&#xc3;" horiz-adv-x="669" 
d="M-3 24l26 7q11 3 19 7.5t15 15t14.5 29l19.5 50.5l199 560h82l207 -567q10 -27 18 -44.5t15 -28t15 -15.5t18 -8l24 -6v-24h-301v24l28 7q20 5 27.5 14t7.5 23q0 13 -5 31.5t-13 39.5l-32 91h-207l-30 -91q-8 -21 -11 -38t-3 -28q0 -20 9 -28.5t30 -13.5l30 -7v-24h-202
v24zM165 730l20.5 47t20 36t23.5 23.5t30 8.5t38.5 -3.5t44 -8t43.5 -8t37 -3.5q15 0 26.5 10t25.5 33l21 -11l-20.5 -47.5t-20 -36.5t-23 -23t-30.5 -8q-17 0 -38.5 3.5t-44 8t-43.5 8t-37 3.5t-27 -10t-25 -33zM187 269h181l-90 260h-5z" />
    <glyph glyph-name="Otilde" unicode="&#xd5;" horiz-adv-x="712" 
d="M191 730l20.5 47t20 36t23.5 23.5t30 8.5t38.5 -3.5t44 -8t43.5 -8t37 -3.5q15 0 26.5 10t25.5 33l21 -11l-20.5 -47.5t-20 -36.5t-23 -23t-30.5 -8q-17 0 -38.5 3.5t-44 8t-43.5 8t-37 3.5t-27 -10t-25 -33zM352 -12q-65 0 -123.5 21.5t-103 65t-70.5 109t-26 153.5
q0 98 29 168t76 114.5t106.5 65t119.5 20.5q65 0 123.5 -21.5t103 -65t70.5 -109.5t26 -156q0 -99 -29 -168t-76 -113t-106.5 -64t-119.5 -20zM358 27q43 0 74.5 16t52.5 52t31 94.5t10 143.5q0 76 -8.5 137.5t-29 105t-53.5 67t-82 23.5q-42 0 -73.5 -16.5t-52 -53
t-31 -95.5t-10.5 -144q0 -76 8.5 -137t28.5 -104t53 -66t82 -23z" />
    <glyph glyph-name="OE" unicode="&#x152;" horiz-adv-x="982" 
d="M376 0q-71 0 -134 17.5t-110.5 57t-75 104.5t-27.5 160q0 91 27.5 157.5t75.5 110t112 65t138 21.5h543l11 -191h-27q-17 40 -29.5 63t-22.5 38q-12 17 -22.5 27t-24.5 15t-33.5 6.5t-48.5 1.5q-45 0 -68 -3t-36 -6v-265h39q27 0 45.5 1.5t30.5 5t19 9.5t12 15
q10 18 16 35.5t12 42.5h27v-259h-27q-6 24 -12 42t-16 38q-5 10 -11 16t-17.5 9.5t-30 4.5t-48.5 1h-39v-193q0 -36 2 -57.5t13 -32.5t34 -14t64 -3q32 0 52.5 2t34.5 8t24 17t22 28q13 18 28.5 51.5t32.5 79.5h29l-15 -226h-569zM385 36q28 0 45.5 4.5t27 15.5t12.5 30.5
t3 48.5v430q0 27 -3 44.5t-13 28t-28 15t-49 4.5q-55 0 -92.5 -18.5t-60 -55.5t-32 -92.5t-9.5 -130.5q0 -88 10.5 -149.5t33.5 -100.5t61 -56.5t94 -17.5z" />
    <glyph glyph-name="oe" unicode="&#x153;" horiz-adv-x="888" 
d="M280 -13q-53 0 -99.5 17t-81.5 50.5t-55.5 84t-20.5 118.5q0 69 22 120.5t58 85.5t83 50.5t97 16.5q61 0 108.5 -23.5t79.5 -68.5q32 43 78.5 67.5t103.5 24.5q48 0 87 -13.5t66.5 -43.5t42.5 -77.5t16 -115.5h-332q1 -62 12.5 -103.5t33.5 -67t52.5 -36t68.5 -10.5
q51 0 87.5 12.5t64.5 26.5v-30q-12 -12 -31.5 -26.5t-45 -27.5t-57.5 -21.5t-69 -8.5q-68 0 -113 23t-72 64q-33 -43 -81 -65.5t-103 -22.5zM286 23q27 0 48 10.5t35 36.5t21.5 70t7.5 111q0 72 -7.5 119t-22 74.5t-36.5 38.5t-52 11q-28 0 -49.5 -11t-35.5 -37t-21.5 -68.5
t-7.5 -104.5q0 -73 7 -121t22 -76.5t37.5 -40.5t53.5 -12zM643 495q-46 0 -76 -42t-34 -138l193 10q0 45 -3.5 77.5t-13 53t-25.5 30t-41 9.5z" />
    <glyph glyph-name="endash" unicode="&#x2013;" horiz-adv-x="383" 
d="M40 312h303v-46h-303v46z" />
    <glyph glyph-name="emdash" unicode="&#x2014;" horiz-adv-x="610" 
d="M40 312h529v-46h-529v46z" />
    <glyph glyph-name="quotedblleft" unicode="&#x201c;" horiz-adv-x="401" 
d="M109 469q-31 0 -55 21.5t-24 63.5q0 57 36.5 95.5t107.5 55.5l7 -20q-46 -21 -66 -47t-20 -57q4 2 11 5t16 3q24 0 40 -16.5t16 -43.5q0 -28 -20 -44t-49 -16zM300 469q-31 0 -55 21.5t-24 63.5q0 57 36 95.5t108 55.5l6 -20q-45 -21 -65.5 -47t-19.5 -57q3 2 10 5t16 3
q24 0 40 -16.5t16 -43.5q0 -28 -20 -44t-48 -16z" />
    <glyph glyph-name="quotedblright" unicode="&#x201d;" horiz-adv-x="401" 
d="M29 489q46 21 66.5 47t19.5 57q-3 -2 -10 -5t-17 -3q-23 0 -39 16.5t-16 43.5q0 28 20 44.5t48 16.5q31 0 55 -22t24 -64q0 -57 -36 -95.5t-108 -55.5zM220 489q45 21 65.5 47t19.5 57q-3 -2 -10 -5t-16 -3q-24 0 -40 16.5t-16 43.5q0 28 20 44.5t48 16.5q31 0 55 -22
t24 -64q0 -57 -36 -95.5t-107 -55.5z" />
    <glyph glyph-name="quoteleft" unicode="&#x2018;" horiz-adv-x="210" 
d="M109 469q-31 0 -55 21.5t-24 63.5q0 57 36.5 95.5t107.5 55.5l7 -20q-46 -21 -66 -47t-20 -57q4 2 11 5t16 3q24 0 40 -16.5t16 -43.5q0 -28 -20 -44t-49 -16z" />
    <glyph glyph-name="quoteright" unicode="&#x2019;" horiz-adv-x="210" 
d="M29 489q46 21 66.5 47t19.5 57q-3 -2 -10 -5t-17 -3q-23 0 -39 16.5t-16 43.5q0 28 20 44.5t48 16.5q31 0 55 -22t24 -64q0 -57 -36 -95.5t-108 -55.5z" />
    <glyph glyph-name="divide" unicode="&#xf7;" horiz-adv-x="464" 
d="M232 110q-29 0 -48.5 20t-19.5 47q0 29 19.5 48.5t48.5 19.5q28 0 48 -19.5t20 -48.5q0 -27 -20 -47t-48 -20zM232 432q-29 0 -48.5 20t-19.5 47q0 29 19.5 48.5t48.5 19.5q28 0 48 -19.5t20 -48.5q0 -27 -20 -47t-48 -20zM36 364h392v-51h-392v51z" />
    <glyph glyph-name="ydieresis" unicode="&#xff;" horiz-adv-x="535" 
d="M111 -207q-45 0 -70 19t-25 49q0 26 16 40.5t42 14.5q28 0 41.5 -12t20.5 -35q3 -11 7 -15t12 -4q16 0 35 23.5t45 85.5l13 30l-177 422l-16.5 35.5t-12 21.5t-11 11.5t-14.5 6.5l-21 6v23h265v-23l-27 -7q-15 -4 -22 -11.5t-7 -23.5q0 -19 14 -55l95 -247h4l91 247
q14 39 14 59q0 14 -7.5 20.5t-22.5 10.5l-28 7v23h176v-23l-25 -7q-9 -3 -15 -8t-11.5 -14t-12 -24t-15.5 -38l-180 -447q-14 -34 -28.5 -63.5t-34 -51t-45.5 -34t-63 -12.5zM205 581q-28 0 -48 19t-20 48t20 48t48 19q29 0 49 -19t20 -48t-20 -48t-49 -19zM405 581
q-29 0 -49 19t-20 48t20 48t49 19q28 0 48 -19t20 -48t-20 -48t-48 -19z" />
    <glyph glyph-name="Ydieresis" unicode="&#x178;" horiz-adv-x="629" 
d="M172 24l42 8q12 2 19 5t11 10t5.5 19.5t1.5 33.5v183l-160 293q-13 24 -22.5 39.5t-17 25t-15.5 14.5t-18 8l-22 6v24h308v-24l-28 -6q-21 -5 -30 -14t-9 -25q0 -21 19 -56l117 -231h4l103 227q10 20 13 34t3 25q0 15 -8.5 24.5t-31.5 14.5l-29 7v24h206v-24l-21 -6
q-12 -4 -21 -10.5t-18 -18t-19 -28.5t-22 -43l-130 -273v-190q0 -21 1 -33.5t5 -19.5t11.5 -10t19.5 -5l41 -8v-24h-308v24zM250 728q-28 0 -48 19t-20 48t20 48t48 19q29 0 49 -19t20 -48t-20 -48t-49 -19zM466 728q-29 0 -49 19t-20 48t20 48t49 19q28 0 48 -19t20 -48
t-20 -48t-48 -19z" />
    <glyph glyph-name="fraction" unicode="&#x2044;" horiz-adv-x="303" 
d="M383 714h55l-518 -764h-55z" />
    <glyph glyph-name="Euro" unicode="&#x20ac;" horiz-adv-x="593" 
d="M17 424h65q11 74 41 127t71.5 87.5t91.5 50.5t102 16q39 0 73 -7.5t58.5 -21.5t39 -35.5t14.5 -49.5q0 -26 -17.5 -41.5t-46.5 -15.5q-35 0 -51 20t-23 67q-2 15 -5 24t-10 14t-18.5 6.5t-30.5 1.5q-30 0 -55 -12.5t-43.5 -41t-30 -75t-14.5 -114.5h216l-7 -41h-210v-19
v-31.5t1 -28.5h195l-7 -41h-185q6 -58 19.5 -97t36 -63t54 -34.5t73.5 -10.5q51 0 86 14t64 31v-32q-12 -14 -31 -28.5t-44.5 -26.5t-58 -20t-71.5 -8q-56 0 -103 17t-83.5 51t-60 85.5t-32.5 121.5h-63v41h60q-1 8 -1 17v19v21.5t1 21.5h-60v41z" />
    <glyph glyph-name="guilsinglleft" unicode="&#x2039;" horiz-adv-x="274" 
d="M35 243v19l172 198h32l-93 -207l93 -208h-32z" />
    <glyph glyph-name="guilsinglright" unicode="&#x203a;" horiz-adv-x="274" 
d="M128 253l-93 207h33l172 -198v-19l-172 -198h-33z" />
    <glyph glyph-name="daggerdbl" unicode="&#x2021;" horiz-adv-x="415" 
d="M206 -98q-25 0 -43 16t-18 39q0 13 6.5 27.5t15 30.5t16 33t9.5 35q-19 -2 -35.5 -8.5t-31.5 -14l-28 -13.5t-26 -6q-26 0 -39.5 16t-13.5 38t13.5 38t39.5 16q13 0 26 -5.5t28 -13t31.5 -14.5t35.5 -9q-2 24 -13.5 43.5t-30.5 33.5l48 107h21l48 -107q-38 -30 -44 -77
q19 2 36 9t32 14.5t28.5 13t25.5 5.5q26 0 39.5 -16t13.5 -38t-13.5 -38t-39.5 -16q-12 0 -25.5 6t-28.5 13.5t-32 14t-36 8.5q2 -18 9.5 -35t16 -33t15 -30.5t6.5 -27.5q0 -23 -18.5 -39t-43.5 -16zM148 420q19 14 30.5 33.5t13.5 43.5q-19 -2 -35.5 -9t-31.5 -14.5
t-28 -13t-26 -5.5q-26 0 -39.5 16t-13.5 38t13.5 38t39.5 16q13 0 26 -5.5t28 -13t31.5 -14.5t35.5 -9q-2 18 -9.5 35t-16 33.5t-15 31.5t-6.5 27q0 24 18 39t43 15t43.5 -15t18.5 -39q0 -12 -6.5 -27t-15 -31.5t-16 -33.5t-9.5 -35q19 2 36 8.5t32 14t28.5 13.5t25.5 6
q26 0 39.5 -16t13.5 -38t-13.5 -38t-39.5 -16q-12 0 -25.5 5.5t-28.5 13t-32 14.5t-36 9q6 -47 44 -77l-48 -107h-21z" />
    <glyph glyph-name="periodcentered" unicode="&#xb7;" horiz-adv-x="221" 
d="M112 264q-15 0 -29 6t-24 16t-16 23t-6 28q0 32 22 53t53 21q15 0 28.5 -5.5t24 -15.5t16.5 -23.5t6 -29.5q0 -15 -6 -28t-16.5 -23t-24 -16t-28.5 -6z" />
    <glyph glyph-name="quotesinglbase" unicode="&#x201a;" horiz-adv-x="210" 
d="M29 -86q46 21 66.5 47t19.5 58q-3 -3 -10 -6t-17 -3q-23 0 -39 16.5t-16 43.5q0 28 20 44.5t48 16.5q31 0 55 -22t24 -64q0 -57 -36 -95.5t-108 -55.5z" />
    <glyph glyph-name="quotedblbase" unicode="&#x201e;" horiz-adv-x="401" 
d="M29 -86q46 21 66.5 47t19.5 58q-3 -3 -10 -6t-17 -3q-23 0 -39 16.5t-16 43.5q0 28 20 44.5t48 16.5q31 0 55 -22t24 -64q0 -57 -36 -95.5t-108 -55.5zM220 -86q45 21 65.5 47t19.5 58q-3 -3 -10 -6t-16 -3q-24 0 -40 16.5t-16 43.5q0 28 20 44.5t48 16.5q31 0 55 -22
t24 -64q0 -57 -36 -95.5t-107 -55.5z" />
    <glyph glyph-name="perthousand" unicode="&#x2030;" horiz-adv-x="1138" 
d="M197 346q-31 0 -61.5 10.5t-54.5 32t-39 54t-15 76.5q0 49 17 84t43 57.5t56.5 33t57.5 10.5q29 0 59.5 -11t55 -32.5t40 -55t15.5 -78.5q0 -47 -16.5 -81t-42 -56.5t-56.5 -33t-59 -10.5zM199 376q35 0 51 31t16 112q0 45 -4 74.5t-12.5 47.5t-21 25.5t-29.5 7.5
q-16 0 -28.5 -7t-20.5 -23.5t-12.5 -44.5t-4.5 -71t4 -72t12 -47t20.5 -25.5t29.5 -7.5zM554 -13q-30 0 -60.5 10.5t-54.5 32t-39 54t-15 77.5q0 48 17 83t43 57.5t56 33t57 10.5q29 0 59.5 -11t55 -32.5t40.5 -54.5t16 -78q0 -47 -16.5 -81t-42 -56.5t-56.5 -33.5t-60 -11z
M557 17q34 0 50 31.5t16 111.5q0 45 -4 74.5t-12.5 47.5t-21 25.5t-28.5 7.5q-17 0 -29.5 -6.5t-20.5 -23t-12.5 -44.5t-4.5 -71q0 -87 16 -120t51 -33zM936 -13q-30 0 -60.5 10.5t-55 32t-39.5 54t-15 77.5q0 48 17 83t43 57.5t56.5 33t57.5 10.5q29 0 59.5 -11t55 -32.5
t40.5 -54.5t16 -78q0 -47 -16.5 -81t-42 -56.5t-56.5 -33.5t-60 -11zM939 17q34 0 50 31.5t16 111.5q0 45 -4 74.5t-12.5 47.5t-21 25.5t-28.5 7.5q-17 0 -29.5 -6.5t-20.5 -23t-12.5 -44.5t-4.5 -71q0 -87 16 -120t51 -33zM600 714h55l-518 -764h-55z" />
    <glyph glyph-name="Acircumflex" unicode="&#xc2;" horiz-adv-x="669" 
d="M-3 24l26 7q11 3 19 7.5t15 15t14.5 29l19.5 50.5l199 560h82l207 -567q10 -27 18 -44.5t15 -28t15 -15.5t18 -8l24 -6v-24h-301v24l28 7q20 5 27.5 14t7.5 23q0 13 -5 31.5t-13 39.5l-32 91h-207l-30 -91q-8 -21 -11 -38t-3 -28q0 -20 9 -28.5t30 -13.5l30 -7v-24h-202
v24zM187 269h181l-90 260h-5zM179 735l128 129h45l129 -129l-10 -15l-141 53l-141 -53z" />
    <glyph glyph-name="Ecircumflex" unicode="&#xca;" 
d="M165 735l128 129h45l129 -129l-10 -15l-141 53l-141 -53zM20 24l39 8q10 2 17 5t11 10t6 19.5t2 33.5v493q0 21 -2 33.5t-6 19.5t-11 10t-17 5l-39 8v24h527l10 -191h-26q-18 40 -30.5 63t-22.5 38q-12 17 -22.5 27t-24.5 15t-33 6.5t-48 1.5q-45 0 -68.5 -3t-36.5 -6
v-265h39q27 0 45.5 1.5t30.5 5t19 9.5t12 15q10 18 16 35.5t12 42.5h27v-259h-27q-6 24 -12 42t-16 38q-5 10 -11 16t-17.5 9.5t-30 4.5t-48.5 1h-39v-193q0 -36 2 -57.5t13 -32.5t34 -14t65 -3q32 0 52 2t34 8t24 17t22 28q13 18 28.5 51.5t33.5 79.5h28l-14 -226h-547v24z
" />
    <glyph glyph-name="Aacute" unicode="&#xc1;" horiz-adv-x="669" 
d="M-3 24l26 7q11 3 19 7.5t15 15t14.5 29l19.5 50.5l199 560h82l207 -567q10 -27 18 -44.5t15 -28t15 -15.5t18 -8l24 -6v-24h-301v24l28 7q20 5 27.5 14t7.5 23q0 13 -5 31.5t-13 39.5l-32 91h-207l-30 -91q-8 -21 -11 -38t-3 -28q0 -20 9 -28.5t30 -13.5l30 -7v-24h-202
v24zM187 269h181l-90 260h-5zM221 740l155 112q23 17 44 17t35 -16.5t14 -38.5q0 -17 -10 -30.5t-36 -18.5l-196 -41z" />
    <glyph glyph-name="Edieresis" unicode="&#xcb;" 
d="M20 24l39 8q10 2 17 5t11 10t6 19.5t2 33.5v493q0 21 -2 33.5t-6 19.5t-11 10t-17 5l-39 8v24h527l10 -191h-26q-18 40 -30.5 63t-22.5 38q-12 17 -22.5 27t-24.5 15t-33 6.5t-48 1.5q-45 0 -68.5 -3t-36.5 -6v-265h39q27 0 45.5 1.5t30.5 5t19 9.5t12 15q10 18 16 35.5
t12 42.5h27v-259h-27q-6 24 -12 42t-16 38q-5 10 -11 16t-17.5 9.5t-30 4.5t-48.5 1h-39v-193q0 -36 2 -57.5t13 -32.5t34 -14t65 -3q32 0 52 2t34 8t24 17t22 28q13 18 28.5 51.5t33.5 79.5h28l-14 -226h-547v24zM208 728q-28 0 -48 19t-20 48t20 48t48 19q29 0 49 -19
t20 -48t-20 -48t-49 -19zM424 728q-29 0 -49 19t-20 48t20 48t49 19q28 0 48 -19t20 -48t-20 -48t-48 -19z" />
    <glyph glyph-name="Egrave" unicode="&#xc8;" 
d="M426 724l-196 41q-26 5 -36 18.5t-10 30.5q0 22 14 38.5t35 16.5t44 -17l155 -112zM20 24l39 8q10 2 17 5t11 10t6 19.5t2 33.5v493q0 21 -2 33.5t-6 19.5t-11 10t-17 5l-39 8v24h527l10 -191h-26q-18 40 -30.5 63t-22.5 38q-12 17 -22.5 27t-24.5 15t-33 6.5t-48 1.5
q-45 0 -68.5 -3t-36.5 -6v-265h39q27 0 45.5 1.5t30.5 5t19 9.5t12 15q10 18 16 35.5t12 42.5h27v-259h-27q-6 24 -12 42t-16 38q-5 10 -11 16t-17.5 9.5t-30 4.5t-48.5 1h-39v-193q0 -36 2 -57.5t13 -32.5t34 -14t65 -3q32 0 52 2t34 8t24 17t22 28q13 18 28.5 51.5
t33.5 79.5h28l-14 -226h-547v24z" />
    <glyph glyph-name="Iacute" unicode="&#xcd;" horiz-adv-x="347" 
d="M20 24l42 8q10 2 17 5t11.5 9.5t6 19.5t1.5 34v493q0 21 -1.5 34t-6 19.5t-11.5 9.5t-17 5l-42 8v24h307v-24l-42 -8q-11 -2 -18 -5t-11 -10t-5.5 -19.5t-1.5 -33.5v-493q0 -21 1.5 -33.5t5.5 -19.5t11 -10t18 -5l42 -8v-24h-307v24zM65 740l155 112q23 17 44 17
t35 -16.5t14 -38.5q0 -17 -10 -30.5t-36 -18.5l-196 -41z" />
    <glyph glyph-name="Icircumflex" unicode="&#xce;" horiz-adv-x="347" 
d="M20 24l42 8q10 2 17 5t11.5 9.5t6 19.5t1.5 34v493q0 21 -1.5 34t-6 19.5t-11.5 9.5t-17 5l-42 8v24h307v-24l-42 -8q-11 -2 -18 -5t-11 -10t-5.5 -19.5t-1.5 -33.5v-493q0 -21 1.5 -33.5t5.5 -19.5t11 -10t18 -5l42 -8v-24h-307v24zM23 735l128 129h45l129 -129l-10 -15
l-141 53l-141 -53z" />
    <glyph glyph-name="Idieresis" unicode="&#xcf;" horiz-adv-x="347" 
d="M20 24l42 8q10 2 17 5t11.5 9.5t6 19.5t1.5 34v493q0 21 -1.5 34t-6 19.5t-11.5 9.5t-17 5l-42 8v24h307v-24l-42 -8q-11 -2 -18 -5t-11 -10t-5.5 -19.5t-1.5 -33.5v-493q0 -21 1.5 -33.5t5.5 -19.5t11 -10t18 -5l42 -8v-24h-307v24zM66 728q-28 0 -48 19t-20 48t20 48
t48 19q29 0 49 -19t20 -48t-20 -48t-49 -19zM282 728q-29 0 -49 19t-20 48t20 48t49 19q28 0 48 -19t20 -48t-20 -48t-48 -19z" />
    <glyph glyph-name="Igrave" unicode="&#xcc;" horiz-adv-x="347" 
d="M20 24l42 8q10 2 17 5t11.5 9.5t6 19.5t1.5 34v493q0 21 -1.5 34t-6 19.5t-11.5 9.5t-17 5l-42 8v24h307v-24l-42 -8q-11 -2 -18 -5t-11 -10t-5.5 -19.5t-1.5 -33.5v-493q0 -21 1.5 -33.5t5.5 -19.5t11 -10t18 -5l42 -8v-24h-307v24zM283 724l-196 41q-26 5 -36 18.5
t-10 30.5q0 22 14 38.5t35 16.5t44 -17l155 -112z" />
    <glyph glyph-name="Oacute" unicode="&#xd3;" horiz-adv-x="712" 
d="M247 740l155 112q23 17 44 17t35 -16.5t14 -38.5q0 -17 -10 -30.5t-36 -18.5l-196 -41zM352 -12q-65 0 -123.5 21.5t-103 65t-70.5 109t-26 153.5q0 98 29 168t76 114.5t106.5 65t119.5 20.5q65 0 123.5 -21.5t103 -65t70.5 -109.5t26 -156q0 -99 -29 -168t-76 -113
t-106.5 -64t-119.5 -20zM358 27q43 0 74.5 16t52.5 52t31 94.5t10 143.5q0 76 -8.5 137.5t-29 105t-53.5 67t-82 23.5q-42 0 -73.5 -16.5t-52 -53t-31 -95.5t-10.5 -144q0 -76 8.5 -137t28.5 -104t53 -66t82 -23z" />
    <glyph glyph-name="Ocircumflex" unicode="&#xd4;" horiz-adv-x="712" 
d="M205 735l128 129h45l129 -129l-10 -15l-141 53l-141 -53zM352 -12q-65 0 -123.5 21.5t-103 65t-70.5 109t-26 153.5q0 98 29 168t76 114.5t106.5 65t119.5 20.5q65 0 123.5 -21.5t103 -65t70.5 -109.5t26 -156q0 -99 -29 -168t-76 -113t-106.5 -64t-119.5 -20zM358 27
q43 0 74.5 16t52.5 52t31 94.5t10 143.5q0 76 -8.5 137.5t-29 105t-53.5 67t-82 23.5q-42 0 -73.5 -16.5t-52 -53t-31 -95.5t-10.5 -144q0 -76 8.5 -137t28.5 -104t53 -66t82 -23z" />
    <glyph glyph-name="Ograve" unicode="&#xd2;" horiz-adv-x="712" 
d="M465 724l-196 41q-26 5 -36 18.5t-10 30.5q0 22 14 38.5t35 16.5t44 -17l155 -112zM352 -12q-65 0 -123.5 21.5t-103 65t-70.5 109t-26 153.5q0 98 29 168t76 114.5t106.5 65t119.5 20.5q65 0 123.5 -21.5t103 -65t70.5 -109.5t26 -156q0 -99 -29 -168t-76 -113
t-106.5 -64t-119.5 -20zM358 27q43 0 74.5 16t52.5 52t31 94.5t10 143.5q0 76 -8.5 137.5t-29 105t-53.5 67t-82 23.5q-42 0 -73.5 -16.5t-52 -53t-31 -95.5t-10.5 -144q0 -76 8.5 -137t28.5 -104t53 -66t82 -23z" />
    <glyph glyph-name="Uacute" unicode="&#xda;" horiz-adv-x="692" 
d="M281 740l155 112q23 17 44 17t35 -16.5t14 -38.5q0 -17 -10 -30.5t-36 -18.5l-196 -41zM361 -12q-62 0 -112.5 13t-87 41t-56.5 72.5t-20 108.5v370q0 21 -1.5 33.5t-6 19.5t-11.5 10t-17 5l-38 8v24h298v-24l-37 -8q-11 -3 -18 -6t-11 -9.5t-5.5 -19t-1.5 -33.5v-386
q0 -83 38 -122t128 -39q85 0 122 46t37 127v362q0 26 -1.5 41t-6.5 23t-14 11t-23 6l-43 7v24h209v-24l-33 -7q-11 -2 -18.5 -5.5t-12.5 -11.5t-7.5 -22.5t-2.5 -39.5v-371q0 -46 -14.5 -87t-44.5 -71.5t-76.5 -48t-111.5 -17.5z" />
    <glyph glyph-name="Ucircumflex" unicode="&#xdb;" horiz-adv-x="692" 
d="M239 735l128 129h45l129 -129l-10 -15l-141 53l-141 -53zM361 -12q-62 0 -112.5 13t-87 41t-56.5 72.5t-20 108.5v370q0 21 -1.5 33.5t-6 19.5t-11.5 10t-17 5l-38 8v24h298v-24l-37 -8q-11 -3 -18 -6t-11 -9.5t-5.5 -19t-1.5 -33.5v-386q0 -83 38 -122t128 -39
q85 0 122 46t37 127v362q0 26 -1.5 41t-6.5 23t-14 11t-23 6l-43 7v24h209v-24l-33 -7q-11 -2 -18.5 -5.5t-12.5 -11.5t-7.5 -22.5t-2.5 -39.5v-371q0 -46 -14.5 -87t-44.5 -71.5t-76.5 -48t-111.5 -17.5z" />
    <glyph glyph-name="Ugrave" unicode="&#xd9;" horiz-adv-x="692" 
d="M499 724l-196 41q-26 5 -36 18.5t-10 30.5q0 22 14 38.5t35 16.5t44 -17l155 -112zM361 -12q-62 0 -112.5 13t-87 41t-56.5 72.5t-20 108.5v370q0 21 -1.5 33.5t-6 19.5t-11.5 10t-17 5l-38 8v24h298v-24l-37 -8q-11 -3 -18 -6t-11 -9.5t-5.5 -19t-1.5 -33.5v-386
q0 -83 38 -122t128 -39q85 0 122 46t37 127v362q0 26 -1.5 41t-6.5 23t-14 11t-23 6l-43 7v24h209v-24l-33 -7q-11 -2 -18.5 -5.5t-12.5 -11.5t-7.5 -22.5t-2.5 -39.5v-371q0 -46 -14.5 -87t-44.5 -71.5t-76.5 -48t-111.5 -17.5z" />
    <glyph glyph-name="dotlessi" unicode="&#x131;" horiz-adv-x="288" 
d="M15 26l32 8q17 5 24.5 11t7.5 26v349q0 22 -5.5 30t-25.5 19l-35 20v17l195 23l9 -7q-2 -31 -3 -56.5t-1 -48.5v-346q0 -21 6.5 -26.5t25.5 -10.5l32 -8v-26h-262v26z" />
    <glyph glyph-name="circumflex" unicode="&#x2c6;" horiz-adv-x="500" 
d="M105 588l122 140h45l123 -140l-10 -15l-135 64l-135 -64z" />
    <glyph glyph-name="tilde" unicode="&#x2dc;" horiz-adv-x="500" 
d="M88 583l21 47.5t20.5 36.5t23.5 23t30 8t37 -3.5t41 -8t41 -8t36 -3.5q15 0 26.5 10t25.5 33l22 -11l-20.5 -47.5t-20 -36.5t-23.5 -23t-31 -8q-17 0 -37.5 3.5t-41.5 8t-40.5 8t-35.5 3.5t-27 -10t-25 -33z" />
    <glyph glyph-name="macron" unicode="&#xaf;" horiz-adv-x="500" 
d="M125 675h250v-70h-250v70z" />
    <glyph glyph-name="breve" unicode="&#x2d8;" horiz-adv-x="500" 
d="M251 576q-27 0 -48.5 11.5t-37.5 31t-26.5 44.5t-13.5 53l22 6q14 -27 38 -45.5t66 -18.5q41 0 65 17.5t38 46.5l22 -6q-3 -28 -13 -53t-25.5 -44.5t-37.5 -31t-49 -11.5z" />
    <glyph glyph-name="dotaccent" unicode="&#x2d9;" horiz-adv-x="434" 
d="M215 575q-29 0 -50 19.5t-21 48.5t21 48.5t50 19.5q30 0 51 -19.5t21 -48.5t-21 -48.5t-51 -19.5z" />
    <glyph glyph-name="ring" unicode="&#x2da;" horiz-adv-x="500" 
d="M250 573q-43 0 -69.5 26.5t-26.5 64.5q0 40 27 66t69 26t69 -26t27 -66q0 -38 -27.5 -64.5t-68.5 -26.5zM250 605q25 0 40 16.5t15 42.5t-15 43t-40 17q-24 0 -39.5 -17t-15.5 -43t15 -42.5t40 -16.5z" />
    <glyph glyph-name="cedilla" unicode="&#xb8;" horiz-adv-x="500" 
d="M166 -185q45 11 65 24.5t20 31.5q0 15 -14 22t-38 9l-5 8l45 90h39l-32 -48q39 -4 62 -20.5t23 -43.5q0 -42 -45 -64t-120 -28v19z" />
    <glyph glyph-name="hungarumlaut" unicode="&#x2dd;" horiz-adv-x="500" 
d="M117 590l80 126q20 32 42 32q17 0 34.5 -14.5t17.5 -34.5q0 -14 -7 -27t-27 -24l-124 -74zM284 590l81 126q19 32 42 32q17 0 35 -15t18 -35q0 -12 -6.5 -24t-25.5 -23l-127 -77z" />
    <glyph glyph-name="ogonek" unicode="&#x2db;" horiz-adv-x="445" 
d="M224 -203q-42 0 -68.5 20t-26.5 57q0 20 11.5 38t29 34t38.5 29.5t41 24.5h29q-20 -24 -34.5 -50.5t-14.5 -58.5q0 -20 7 -29.5t18 -13.5q9 -4 20.5 -5t34.5 -1v-21q-12 -8 -33.5 -16t-51.5 -8z" />
    <glyph glyph-name="caron" unicode="&#x2c7;" horiz-adv-x="500" 
d="M105 720l10 14l135 -63l135 63l10 -14l-123 -140h-44z" />
    <glyph glyph-name="lslash" unicode="&#x142;" horiz-adv-x="291" 
d="M6 323l74 39v275q0 17 -1 26.5t-4.5 15.5t-9.5 10t-16 9l-39 19v20l198 19l10 -7q-1 -16 -2 -34q-1 -16 -1.5 -38t-0.5 -47v-198l75 40v-44l-75 -40v-302q0 -16 1 -25.5t5 -15t10 -8.5t17 -6l32 -8v-23h-264v23l32 8q10 3 16.5 6t10.5 9t5 15.5t1 24.5v232l-74 -39v44z
" />
    <glyph glyph-name="Scaron" unicode="&#x160;" horiz-adv-x="519" 
d="M123 860l10 14l135 -56l135 56l10 -14l-123 -133h-44zM237 -13q-66 0 -117.5 10t-81.5 24l-12 188h29q18 -38 33.5 -67.5t35.5 -58.5q22 -33 49 -44.5t74 -11.5q66 0 95.5 31.5t29.5 82.5q0 24 -7.5 43.5t-25.5 36.5t-47.5 34t-74.5 35q-50 21 -85 43t-57 47.5t-31.5 56
t-9.5 68.5q0 43 17 80t48 64t74.5 42t96.5 15q63 0 103.5 -7t66.5 -17l11 -168h-27q-9 20 -16.5 34.5t-15 26.5t-15 22.5l-16.5 22.5q-10 13 -19 21.5t-20 14t-26.5 8t-37.5 2.5q-56 0 -85.5 -25.5t-29.5 -74.5q0 -22 5.5 -39.5t20.5 -33.5t41.5 -31t69.5 -33
q57 -24 96.5 -47t65 -48.5t37 -55t11.5 -64.5q0 -47 -16.5 -88.5t-48.5 -72t-79.5 -48.5t-108.5 -18z" />
    <glyph glyph-name="scaron" unicode="&#x161;" horiz-adv-x="422" 
d="M70 720l10 14l135 -63l135 63l10 -14l-123 -140h-44zM185 -12q-43 0 -83 6t-71 16l-5 152h25q14 -29 28.5 -51.5t31.5 -45.5q15 -22 34 -31.5t54 -9.5q39 0 65 20.5t26 57.5q0 19 -6.5 33t-20.5 26t-36.5 23.5t-54.5 23.5q-66 25 -105.5 62t-39.5 99q0 35 14.5 64.5
t40.5 51t63.5 33.5t83.5 12q42 0 76 -5.5t57 -14.5l5 -132h-23q-14 26 -26.5 46t-27.5 37q-17 21 -34 27t-43 6q-38 0 -59.5 -18.5t-21.5 -51.5q0 -31 23 -54t84 -46q81 -30 120.5 -67t39.5 -95q0 -38 -14.5 -70t-41.5 -55t-67 -36t-91 -13z" />
    <glyph glyph-name="Yacute" unicode="&#xdd;" horiz-adv-x="629" 
d="M172 24l42 8q12 2 19 5t11 10t5.5 19.5t1.5 33.5v183l-160 293q-13 24 -22.5 39.5t-17 25t-15.5 14.5t-18 8l-22 6v24h308v-24l-28 -6q-21 -5 -30 -14t-9 -25q0 -21 19 -56l117 -231h4l103 227q10 20 13 34t3 25q0 15 -8.5 24.5t-31.5 14.5l-29 7v24h206v-24l-21 -6
q-12 -4 -21 -10.5t-18 -18t-19 -28.5t-22 -43l-130 -273v-190q0 -21 1 -33.5t5 -19.5t11.5 -10t19.5 -5l41 -8v-24h-308v24zM249 740l155 112q23 17 44 17t35 -16.5t14 -38.5q0 -17 -10 -30.5t-36 -18.5l-196 -41z" />
    <glyph glyph-name="yacute" unicode="&#xfd;" horiz-adv-x="535" 
d="M111 -207q-45 0 -70 19t-25 49q0 26 16 40.5t42 14.5q28 0 41.5 -12t20.5 -35q3 -11 7 -15t12 -4q16 0 35 23.5t45 85.5l13 30l-177 422l-16.5 35.5t-12 21.5t-11 11.5t-14.5 6.5l-21 6v23h265v-23l-27 -7q-15 -4 -22 -11.5t-7 -23.5q0 -19 14 -55l95 -247h4l91 247
q14 39 14 59q0 14 -7.5 20.5t-22.5 10.5l-28 7v23h176v-23l-25 -7q-9 -3 -15 -8t-11.5 -14t-12 -24t-15.5 -38l-180 -447q-14 -34 -28.5 -63.5t-34 -51t-45.5 -34t-63 -12.5zM209 594l142 119q23 20 46 20q21 0 35 -16.5t14 -36.5q0 -15 -9.5 -30t-32.5 -22l-188 -50z" />
    <glyph glyph-name="Thorn" unicode="&#xde;" horiz-adv-x="613" 
d="M20 24l39 8q10 2 17 5t11 9.5t6 19.5t2 34v493q0 21 -2 33.5t-6 19.5t-11 10t-17 5l-39 8v24h302v-24l-41 -8q-11 -3 -18 -6t-11 -9.5t-5.5 -19t-1.5 -33.5v-38h81q131 0 199 -47t68 -144q0 -44 -16 -81.5t-47 -65.5t-77.5 -43.5t-106.5 -15.5q-28 0 -45.5 3.5t-24.5 6.5
v26q43 -1 74 6t51 26t29.5 50.5t9.5 79.5q0 47 -7.5 78t-22.5 49.5t-38 26t-54 7.5q-26 0 -45 -2.5t-28 -4.5v-410q0 -21 1.5 -33.5t5.5 -19t11.5 -9.5t18.5 -5l50 -9v-24h-312v24z" />
    <glyph glyph-name="thorn" unicode="&#xfe;" horiz-adv-x="591" 
d="M1 -180l32 9q10 3 16.5 6t10 8.5t4.5 15t1 25.5v753q0 17 -1 27t-4.5 16t-9.5 9.5l-15 8.5l-39 19v20l198 19l9 -7q-1 -14 -2 -32q-1 -16 -1.5 -37.5t-0.5 -49.5v-74q0 -20 -0.5 -36.5t-0.5 -28.5q-1 -14 -1 -26h4q31 26 73.5 45t93.5 19q36 0 71 -12.5t62.5 -41
t45 -75.5t17.5 -116q0 -75 -21 -131t-59 -92.5t-90.5 -54.5t-115.5 -18q-17 0 -39.5 3t-40.5 8v-18q0 -8 0.5 -19.5t0.5 -24.5v-53q0 -17 1 -26.5t4.5 -15t9.5 -8.5t16 -5l43 -9v-23h-272v23zM285 25q35 0 61.5 11t44 37t26.5 70.5t9 111.5q0 107 -35 153t-99 46
q-34 0 -56.5 -8.5t-36.5 -14.5v-370q17 -17 37.5 -26.5t48.5 -9.5z" />
    <glyph glyph-name="Zcaron" unicode="&#x17d;" horiz-adv-x="567" 
d="M159 860l10 14l135 -56l135 56l10 -14l-123 -133h-44zM21 39l364 612v4h-48q-56 0 -89 -1.5t-53.5 -6t-31.5 -14t-21 -24.5q-9 -13 -16.5 -25.5t-15 -26.5t-15.5 -32l-18 -41h-27l11 209h488v-39l-362 -611v-4h51q58 0 94 2t58 7t34.5 15t24.5 25q20 26 35 57.5t36 83.5
h29l-15 -229h-513v39z" />
    <glyph glyph-name="zcaron" unicode="&#x17e;" horiz-adv-x="476" 
d="M109 720l10 14l135 -63l135 63l10 -14l-123 -140h-44zM15 34l291 440v4h-66q-28 0 -46 -1t-29.5 -4.5t-19.5 -9.5t-16 -15q-18 -22 -31 -44l-33 -57h-23l9 168h409v-32l-292 -442v-4h63q36 0 59 1.5t38 6t24 12t18 19.5q17 24 32 48t29 53h24l-14 -177h-426v34z" />
    <glyph glyph-name="onehalf" unicode="&#xbd;" horiz-adv-x="728" 
d="M16 338l23 4q18 3 22.5 9t4.5 33v213l-49 5v23q44 8 80.5 27t59.5 46l20 -4v-310q0 -27 5.5 -33t22.5 -9l22 -4v-23h-211v23zM567 714h55l-518 -764h-55zM421 49q40 30 67 53.5t54 52.5q28 30 43 61.5t15 70.5q0 41 -13.5 55.5t-38.5 14.5q-16 0 -20 -6t-6 -24
q-4 -29 -15.5 -42t-37.5 -13q-20 0 -31.5 10.5t-11.5 28.5q0 29 35.5 51.5t97.5 22.5q67 0 108 -27.5t41 -82.5q0 -50 -52.5 -96.5t-152.5 -98.5v-3h132q10 0 16.5 2t11.5 7t10 14.5t11 23.5h22l-8 -124h-277v49z" />
    <glyph glyph-name="onequarter" unicode="&#xbc;" horiz-adv-x="720" 
d="M16 338l23 4q18 3 22.5 9t4.5 33v213l-49 5v23q44 8 80.5 27t59.5 46l20 -4v-310q0 -27 5.5 -33t22.5 -9l22 -4v-23h-211v23zM585 714h55l-519 -764h-55zM500 22l19 4q17 4 22 10t5 33v35h-161v32l201 242h68v-233h56l-6 -41h-50v-35q0 -27 5 -33.5t22 -9.5l19 -4v-22
h-200v22zM546 145v140h-1l-113 -137v-3h114z" />
    <glyph glyph-name="onesuperior" unicode="&#xb9;" horiz-adv-x="240" 
d="M15 338l23 4q18 3 22.5 9t4.5 33v213l-49 5v23q44 8 80.5 27t59.5 46l20 -4v-310q0 -27 5.5 -33t22.5 -9l22 -4v-23h-211v23z" />
    <glyph glyph-name="threequarters" unicode="&#xbe;" horiz-adv-x="766" 
d="M150 309q-63 0 -95 18.5t-32 49.5q0 20 11 29t29 9q20 0 32.5 -10t17.5 -38q4 -20 10.5 -26t27.5 -6q32 0 45 22.5t13 62.5q0 47 -19.5 61.5t-53.5 14.5h-28v32h24q35 0 51.5 16t16.5 58q0 38 -12 54.5t-33 16.5q-16 0 -21.5 -4.5t-7.5 -20.5q-3 -23 -13 -35.5t-35 -12.5
q-19 0 -29.5 10.5t-10.5 25.5q0 30 34.5 47t91.5 17q63 0 99 -23t36 -67q0 -31 -22.5 -56.5t-77.5 -35.5v-2q51 -3 84 -26t33 -70q0 -48 -39.5 -79.5t-126.5 -31.5zM637 714h55l-518 -764h-56zM546 22l19 4q17 4 22.5 10t5.5 33v35h-162v32l201 242h68v-233h56l-6 -41h-50
v-35q0 -27 5 -33.5t22 -9.5l19 -4v-22h-200v22zM593 145v140h-2l-113 -137v-3h115z" />
    <glyph glyph-name="threesuperior" unicode="&#xb3;" horiz-adv-x="323" 
d="M138 309q-63 0 -95 18.5t-32 49.5q0 20 11 29t29 9q20 0 32.5 -10t17.5 -38q4 -20 10.5 -26t27.5 -6q32 0 45 22.5t13 62.5q0 47 -19.5 61.5t-53.5 14.5h-28v32h24q35 0 51.5 16t16.5 58q0 38 -12 54.5t-33 16.5q-16 0 -21.5 -4.5t-7.5 -20.5q-3 -23 -13 -35.5t-35 -12.5
q-19 0 -29.5 10.5t-10.5 25.5q0 30 34.5 47t91.5 17q63 0 99 -23t36 -67q0 -31 -22.5 -56.5t-77.5 -35.5v-2q51 -3 84 -26t33 -70q0 -48 -39.5 -79.5t-126.5 -31.5z" />
    <glyph glyph-name="twosuperior" unicode="&#xb2;" horiz-adv-x="318" 
d="M13 365q39 30 66 53.5t54 52.5q28 30 43 61t15 70q0 41 -13.5 55.5t-38.5 14.5q-16 0 -20 -5.5t-6 -23.5q-4 -30 -15.5 -43t-37.5 -13q-20 0 -31.5 11t-11.5 29q0 29 35.5 51t97.5 22q67 0 108.5 -27.5t41.5 -81.5q0 -50 -52.5 -97t-152.5 -98v-3h132q10 0 16.5 2t11.5 7
t9.5 14t10.5 24h22l-8 -125h-276v50z" />
    <glyph glyph-name="brokenbar" unicode="&#xa6;" horiz-adv-x="224" 
d="M87 256h50v-386h-50v386zM87 734h50v-408h-50v408z" />
    <glyph glyph-name="minus" unicode="&#x2212;" horiz-adv-x="464" 
d="M36 364h392v-51h-392v51z" />
    <glyph glyph-name="multiply" unicode="&#xd7;" horiz-adv-x="438" 
d="M40 189l142 149l-139 147l40 38l136 -145l138 145l38 -38l-138 -147l141 -149l-39 -38l-140 148l-139 -148z" />
    <glyph glyph-name="Lslash" unicode="&#x141;" horiz-adv-x="578" 
d="M9 282l86 32v279q0 21 -2 33.5t-6 19.5t-11 10t-17 5l-39 8v24h306v-24l-45 -9q-11 -2 -18 -5t-11 -9.5t-5.5 -19t-1.5 -33.5v-223l195 73v-43l-195 -73v-196q0 -30 2 -47.5t11.5 -27.5t29 -13t54.5 -3q31 0 51.5 2t34.5 8t24 16t21 27q14 21 30 54.5t35 85.5h28
l-14 -233h-532v24l39 8q10 2 17 5t11 9.5t6 19.5t2 34v172l-86 -32v42z" />
    <glyph glyph-name="space_uni0326" horiz-adv-x="510" 
d="M187 -227q49 13 66 33.5t16 45.5q-3 -2 -9.5 -4.5t-14.5 -2.5q-25 0 -39 14t-14 37q0 22 18.5 38t46.5 16q31 0 52.5 -20t21.5 -56q0 -21 -7.5 -41t-24 -36.5t-43 -28.5t-63.5 -16z" />
    <glyph glyph-name="caron.alt" horiz-adv-x="510" 
d="M257 562l6 142q1 22 12 37t37 15q21 0 35.5 -12.5t14.5 -32.5q0 -7 -2 -16.5t-10 -19.5l-77 -118z" />
    <glyph glyph-name="space_uni0326.alt" horiz-adv-x="510" 
d="M326 754q-50 -14 -66.5 -34.5t-16.5 -45.5q4 3 10.5 5.5t14.5 2.5q24 0 38.5 -14t14.5 -37q0 -22 -18.5 -38.5t-46.5 -16.5q-32 0 -53.5 20t-21.5 57q0 42 32 77t107 45z" />
    <glyph glyph-name="acute.pl" horiz-adv-x="510" 
d="M212 579l44 142q6 19 17.5 32t32.5 13q20 0 38.5 -15t18.5 -38q0 -10 -4 -20t-15 -20l-117 -104z" />
    <glyph glyph-name="grave.uc" horiz-adv-x="500" 
d="M365 724l-196 41q-26 5 -36 18.5t-10 30.5q0 22 14 38.5t35 16.5t44 -17l155 -112z" />
    <glyph glyph-name="dieresis.uc" horiz-adv-x="500" 
d="M142 728q-28 0 -48 19t-20 48t20 48t48 19q29 0 49 -19t20 -48t-20 -48t-49 -19zM358 728q-29 0 -49 19t-20 48t20 48t49 19q28 0 48 -19t20 -48t-20 -48t-48 -19z" />
    <glyph glyph-name="macron.uc" horiz-adv-x="500" 
d="M113 816h272v-70h-272v70z" />
    <glyph glyph-name="acute.uc" horiz-adv-x="500" 
d="M132 740l155 112q23 17 44 17t35 -16.5t14 -38.5q0 -17 -10 -30.5t-36 -18.5l-196 -41z" />
    <glyph glyph-name="circumflex.uc" horiz-adv-x="500" 
d="M99 735l128 129h45l129 -129l-10 -15l-141 53l-141 -53z" />
    <glyph glyph-name="caron.uc" horiz-adv-x="500" 
d="M105 860l10 14l135 -56l135 56l10 -14l-123 -133h-44z" />
    <glyph glyph-name="breve.uc" horiz-adv-x="500" 
d="M251 726q-31 0 -55 11.5t-41.5 31t-28.5 44.5t-14 53l22 6q13 -27 40 -45.5t77 -18.5q48 0 75.5 17.5t41.5 46.5l22 -6q-3 -28 -13.5 -53t-28 -44.5t-42 -31t-55.5 -11.5z" />
    <glyph glyph-name="dotaccent.uc" horiz-adv-x="434" 
d="M215 726q-29 0 -50 19.5t-21 48.5t21 48.5t50 19.5q30 0 51 -19.5t21 -48.5t-21 -48.5t-51 -19.5z" />
    <glyph glyph-name="ring.uc" horiz-adv-x="500" 
d="M250 720q-43 0 -69.5 26.5t-26.5 64.5q0 40 27 66t69 26t69 -26t27 -66q0 -38 -27.5 -64.5t-68.5 -26.5zM250 752q25 0 40 16.5t15 42.5t-15 43t-40 17q-24 0 -39.5 -17t-15.5 -43t15 -42.5t40 -16.5z" />
    <glyph glyph-name="tilde.uc" horiz-adv-x="500" 
d="M85 730l20.5 47t20 36t23.5 23.5t30 8.5t38.5 -3.5t44 -8t43.5 -8t37 -3.5q15 0 26.5 10t25.5 33l21 -11l-20.5 -47.5t-20 -36.5t-23 -23t-30.5 -8q-17 0 -38.5 3.5t-44 8t-43.5 8t-37 3.5t-27 -10t-25 -33z" />
    <glyph glyph-name="hungarumlaut.uc" horiz-adv-x="500" 
d="M117 737l72 116q17 32 40 32q17 0 34.5 -14.5t17.5 -34.5q0 -14 -7 -26.5t-27 -23.5l-114 -65zM284 737l72 116q19 32 41 32q17 0 35 -15t18 -35q0 -12 -6 -23.5t-26 -22.5l-117 -68z" />
    <glyph glyph-name="acute.ucpl" horiz-adv-x="510" 
d="M211 737l49 119q7 19 17.5 32t31.5 13q20 0 37.5 -15t17.5 -38q0 -11 -6.5 -22t-23.5 -23l-107 -77z" />
    <glyph glyph-name="Dcroat" unicode="&#x110;" horiz-adv-x="711" 
d="M27 368h68v225q0 21 -2 33.5t-6 19.5t-11 10t-17 5l-39 8v24h320q75 0 137.5 -18.5t108 -58.5t70.5 -104.5t25 -155.5q0 -86 -24.5 -152.5t-70 -111.5t-109.5 -68.5t-142 -23.5h-315v24l39 8q10 2 17 5t11 10t6 19.5t2 33.5v230h-68v38zM326 39q55 0 93 20t61 58t33.5 93
t10.5 125q0 86 -11.5 146.5t-36 99t-62.5 56t-90 17.5q-29 0 -49 -2.5t-30 -6.5v-277h152v-38h-152v-199q0 -30 2.5 -48t11 -27.5t24.5 -13t43 -3.5z" />
    <glyph glyph-name="Eng" unicode="&#x14a;" horiz-adv-x="689" 
d="M488 -137q26 0 42 28t18 94l-403 604h-4v-477q0 -26 2 -41t7 -23t13.5 -11t22.5 -6l38 -7v-24h-204v24l32 7q12 2 20 5.5t13 11.5t7.5 22.5t2.5 39.5v483q0 21 -2 33.5t-6 19.5t-11 10t-17 5l-39 8v24h232l296 -448h4v336q0 26 -1.5 41t-6.5 23t-13.5 11t-22.5 6l-42 7
v24h208v-24l-33 -7q-11 -2 -19 -5.5t-13 -11.5t-7.5 -22.5t-2.5 -39.5v-584q0 -35 -8 -66.5t-25 -55.5t-44 -38.5t-65 -14.5q-64 0 -93 24.5t-29 56.5q0 24 15 39t44 15q33 0 46 -17t23 -56q4 -15 8.5 -19t16.5 -4z" />
    <glyph glyph-name="IJ" unicode="&#x132;" horiz-adv-x="687" 
d="M20 24l42 8q10 2 17 5t11.5 9.5t6 19.5t1.5 34v493q0 21 -1.5 34t-6 19.5t-11.5 9.5t-17 5l-42 8v24h307v-24l-42 -8q-11 -2 -18 -5t-11 -10t-5.5 -19.5t-1.5 -33.5v-493q0 -21 1.5 -33.5t5.5 -19.5t11 -10t18 -5l42 -8v-24h-307v24zM367 -176q-66 0 -98.5 23t-32.5 57
q0 26 16 42.5t46 16.5q35 0 51 -18t24 -60q4 -15 7.5 -18.5t14.5 -3.5q20 0 33.5 20t13.5 69v641q0 21 -1.5 33.5t-5.5 19t-11 9.5t-18 6l-40 8v24h301v-24l-39 -8q-11 -2 -17.5 -5t-11 -10t-6 -19.5t-1.5 -33.5v-531q0 -52 -15 -96t-43.5 -75.5t-70.5 -49t-96 -17.5z" />
    <glyph glyph-name="uni0237" unicode="&#x237;" horiz-adv-x="282" 
d="M12 -210q-59 0 -86.5 23.5t-27.5 56.5q0 25 16 39t42 14q33 0 46.5 -16t17.5 -51q2 -20 5.5 -25t11.5 -5q20 0 31 15.5t11 48.5v517q0 16 -1 25t-4.5 15t-9.5 10.5t-16 10.5l-35 21v17l195 23l9 -6q-1 -14 -2.5 -42t-1.5 -64v-414q0 -55 -15.5 -95t-42.5 -66.5t-63.5 -39
t-79.5 -12.5z" />
    <glyph glyph-name="dcroat" unicode="&#x111;" horiz-adv-x="600" 
d="M235 642h157q0 15 -1.5 23.5t-5 13.5t-9 8.5t-14.5 8.5l-42 21v20l200 19l9 -7q-1 -13 -2 -29q-1 -14 -1 -33.5v-44.5h63v-42h-63v-487q0 -18 1 -29t4.5 -17.5t9.5 -10.5t16 -8l32 -15v-19l-185 -26l-10 7l2 55h-4q-32 -26 -75 -44t-94 -18q-36 0 -71.5 13.5t-63 43.5
t-44.5 78t-17 118q0 76 23.5 130.5t62.5 89.5t90.5 51.5t107.5 16.5q25 0 46 -3t37 -8q-1 11 -1 23q-1 11 -1 24v27v8h-157v42zM294 57q37 0 60.5 10t37.5 17v367q-14 15 -35 28t-51 13q-32 0 -58 -11.5t-44.5 -37.5t-28.5 -69t-10 -106q0 -58 8.5 -98.5t25 -65.5t40.5 -36
t55 -11z" />
    <glyph glyph-name="eng" unicode="&#x14b;" horiz-adv-x="594" 
d="M332 -210q-58 0 -85.5 23t-27.5 56q0 24 16 38t42 14q32 0 45 -15.5t17 -50.5q3 -20 6.5 -24.5t11.5 -4.5q20 0 31 15.5t11 48.5v474q0 48 -18 66.5t-58 18.5q-31 0 -61 -6.5t-49 -11.5v-345q0 -17 1 -27t4.5 -15.5t9.5 -8t16 -4.5l32 -8v-23h-261v23l32 8q10 3 16.5 6
t10 9t4.5 15.5t1 24.5v321q0 16 -1 25t-4.5 15t-9.5 10.5t-16 10.5l-35 21v17l188 23l9 -6l-2 -62h5q38 27 87 47.5t101 20.5q69 0 100.5 -32.5t31.5 -100.5v-393q0 -55 -15.5 -95t-42.5 -66.5t-64 -39t-79 -12.5z" />
    <glyph glyph-name="ij" unicode="&#x133;" horiz-adv-x="558" 
d="M15 23l32 8q10 3 16.5 6t10 9t4.5 15.5t1 24.5v321q0 16 -1 25t-4.5 15t-9.5 10.5t-16 10.5l-35 21v17l195 23l9 -6q-1 -14 -2.5 -41.5t-1.5 -64.5v-331q0 -32 6 -41t26 -14l32 -8v-23h-262v23zM142 590q-32 0 -54.5 21t-22.5 52t22.5 52t54.5 21t54 -21t22 -52t-22 -52
t-54 -21zM292 -210q-59 0 -86.5 23.5t-27.5 56.5q0 25 16 39t42 14q33 0 46.5 -16t17.5 -51q2 -20 5.5 -25t11.5 -5q20 0 31 15.5t11 48.5v517q0 16 -1 25t-4.5 15t-9.5 10.5t-16 10.5l-35 21v17l195 23l9 -6q-1 -14 -2.5 -42t-1.5 -64v-414q0 -55 -15.5 -95t-42.5 -66.5
t-63.5 -39t-79.5 -12.5zM420 590q-32 0 -54 21t-22 52t22 52t54 21t54.5 -21t22.5 -52t-22.5 -52t-54.5 -21z" />
    <glyph glyph-name="Abreve" unicode="&#x102;" horiz-adv-x="669" 
d="M-3 24l26 7q11 3 19 7.5t15 15t14.5 29l19.5 50.5l199 560h82l207 -567q10 -27 18 -44.5t15 -28t15 -15.5t18 -8l24 -6v-24h-301v24l28 7q20 5 27.5 14t7.5 23q0 13 -5 31.5t-13 39.5l-32 91h-207l-30 -91q-8 -21 -11 -38t-3 -28q0 -20 9 -28.5t30 -13.5l30 -7v-24h-202
v24zM187 269h181l-90 260h-5zM330 726q-31 0 -55 11.5t-41.5 31t-28.5 44.5t-14 53l22 6q13 -27 40 -45.5t77 -18.5q48 0 75.5 17.5t41.5 46.5l22 -6q-3 -28 -13.5 -53t-28 -44.5t-42 -31t-55.5 -11.5z" />
    <glyph glyph-name="Amacron" unicode="&#x100;" horiz-adv-x="669" 
d="M-3 24l26 7q11 3 19 7.5t15 15t14.5 29l19.5 50.5l199 560h82l207 -567q10 -27 18 -44.5t15 -28t15 -15.5t18 -8l24 -6v-24h-301v24l28 7q20 5 27.5 14t7.5 23q0 13 -5 31.5t-13 39.5l-32 91h-207l-30 -91q-8 -21 -11 -38t-3 -28q0 -20 9 -28.5t30 -13.5l30 -7v-24h-202
v24zM187 269h181l-90 260h-5zM194 816h272v-70h-272v70z" />
    <glyph glyph-name="Aogonek" unicode="&#x104;" horiz-adv-x="669" 
d="M382 230h-209l-29 -91q-8 -21 -11 -38t-3 -28q0 -20 9 -28.5t30 -13.5l30 -7v-24h-202v24l26 7q11 3 19 7.5t15 15t14.5 29l19.5 50.5l199 560h82l207 -567q10 -27 18 -44.5t15 -28t15 -15.5t18 -8l24 -6v-24h-101q-40 0 -67 -9.5t-43.5 -24.5t-23.5 -33.5t-7 -37.5
q0 -22 7 -32.5t18 -14.5q9 -4 20.5 -5t34.5 -1v-21q-12 -8 -34 -16t-52 -8q-42 0 -68 19.5t-26 56.5q0 22 10.5 40t28.5 34t42 30t52 28zM187 269h181l-90 260h-5z" />
    <glyph glyph-name="Aringacute" unicode="&#x1fa;" horiz-adv-x="669" 
d="M-3 24l26 7q11 3 19 7.5t15 15t14.5 29l19.5 50.5l199 560h82l207 -567q10 -27 18 -44.5t15 -28t15 -15.5t18 -8l24 -6v-24h-301v24l28 7q20 5 27.5 14t7.5 23q0 13 -5 31.5t-13 39.5l-32 91h-207l-30 -91q-8 -21 -11 -38t-3 -28q0 -20 9 -28.5t30 -13.5l30 -7v-24h-202
v24zM330 720q-43 0 -69.5 26.5t-26.5 64.5q0 40 27 66t69 26t69 -26t27 -66q0 -38 -27.5 -64.5t-68.5 -26.5zM187 269h181l-90 260h-5zM221 930l155 112q23 17 44 17t35 -16.5t14 -38.5q0 -17 -10 -30.5t-36 -18.5l-196 -41zM330 752q25 0 40 16.5t15 42.5t-15 43t-40 17
q-24 0 -39.5 -17t-15.5 -43t15 -42.5t40 -16.5z" />
    <glyph glyph-name="AEacute" unicode="&#x1fc;" horiz-adv-x="917" 
d="M-4 24l26 7q12 3 21 7.5t19 15t22.5 29t30.5 50.5l293 514q-6 6 -14.5 9t-18.5 5l-40 8v24h526l11 -191h-27q-17 40 -29.5 63t-22.5 38q-11 17 -21.5 27t-24.5 15t-32.5 6.5t-46.5 1.5q-39 0 -62.5 -2.5t-36.5 -6.5v-265h31q27 0 45.5 1.5t30.5 5t19 9.5t12 15
q9 18 15.5 35.5t12.5 42.5h26v-259h-26q-6 24 -12.5 42t-15.5 38q-5 10 -11 16t-17.5 9.5t-30 4.5t-48.5 1h-31v-193q0 -36 2.5 -57.5t13 -32.5t32 -14t59.5 -3q31 0 51 2t33.5 8t23.5 17t22 28q13 18 28.5 51.5t32.5 79.5h28l-14 -226h-532v24l38 8q10 2 17.5 5t12 10
t6.5 19.5t2 33.5v119h-208l-43 -80q-13 -23 -21 -43t-8 -34q-1 -23 31 -31l29 -7v-24h-209v24zM238 257h187v336h-3zM523 740l155 112q23 17 44 17t35 -16.5t14 -38.5q0 -17 -10 -30.5t-36 -18.5l-196 -41z" />
    <glyph glyph-name="Cacute" unicode="&#x106;" horiz-adv-x="618" 
d="M358 -12q-71 0 -131 21t-103.5 64.5t-68.5 110t-25 157.5q0 98 28.5 167.5t77.5 113t113.5 63.5t135.5 20q58 0 107 -7t81 -17l11 -203h-28q-18 43 -37.5 79t-36.5 61t-40.5 36.5t-67.5 11.5q-48 0 -82.5 -16.5t-57 -53t-33.5 -95t-11 -141.5q0 -95 11 -159t33 -102.5
t55.5 -55t78.5 -16.5q53 0 79 13.5t46 42.5q20 30 37 62.5t34 76.5h25l-11 -192q-35 -15 -91 -28.5t-129 -13.5zM251 740l155 112q23 17 44 17t35 -16.5t14 -38.5q0 -17 -10 -30.5t-36 -18.5l-196 -41z" />
    <glyph glyph-name="Ccaron" unicode="&#x10c;" horiz-adv-x="618" 
d="M215 860l10 14l135 -56l135 56l10 -14l-123 -133h-44zM358 -12q-71 0 -131 21t-103.5 64.5t-68.5 110t-25 157.5q0 98 28.5 167.5t77.5 113t113.5 63.5t135.5 20q58 0 107 -7t81 -17l11 -203h-28q-18 43 -37.5 79t-36.5 61t-40.5 36.5t-67.5 11.5q-48 0 -82.5 -16.5
t-57 -53t-33.5 -95t-11 -141.5q0 -95 11 -159t33 -102.5t55.5 -55t78.5 -16.5q53 0 79 13.5t46 42.5q20 30 37 62.5t34 76.5h25l-11 -192q-35 -15 -91 -28.5t-129 -13.5z" />
    <glyph glyph-name="Ccircumflex" unicode="&#x108;" horiz-adv-x="618" 
d="M209 735l128 129h45l129 -129l-10 -15l-141 53l-141 -53zM358 -12q-71 0 -131 21t-103.5 64.5t-68.5 110t-25 157.5q0 98 28.5 167.5t77.5 113t113.5 63.5t135.5 20q58 0 107 -7t81 -17l11 -203h-28q-18 43 -37.5 79t-36.5 61t-40.5 36.5t-67.5 11.5q-48 0 -82.5 -16.5
t-57 -53t-33.5 -95t-11 -141.5q0 -95 11 -159t33 -102.5t55.5 -55t78.5 -16.5q53 0 79 13.5t46 42.5q20 30 37 62.5t34 76.5h25l-11 -192q-35 -15 -91 -28.5t-129 -13.5z" />
    <glyph glyph-name="Cdotaccent" unicode="&#x10a;" horiz-adv-x="618" 
d="M358 -12q-71 0 -131 21t-103.5 64.5t-68.5 110t-25 157.5q0 98 28.5 167.5t77.5 113t113.5 63.5t135.5 20q58 0 107 -7t81 -17l11 -203h-28q-18 43 -37.5 79t-36.5 61t-40.5 36.5t-67.5 11.5q-48 0 -82.5 -16.5t-57 -53t-33.5 -95t-11 -141.5q0 -95 11 -159t33 -102.5
t55.5 -55t78.5 -16.5q53 0 79 13.5t46 42.5q20 30 37 62.5t34 76.5h25l-11 -192q-35 -15 -91 -28.5t-129 -13.5zM360 726q-29 0 -50 19.5t-21 48.5t21 48.5t50 19.5q30 0 51 -19.5t21 -48.5t-21 -48.5t-51 -19.5z" />
    <glyph glyph-name="Cacute.pl" horiz-adv-x="618" 
d="M358 -12q-71 0 -131 21t-103.5 64.5t-68.5 110t-25 157.5q0 98 28.5 167.5t77.5 113t113.5 63.5t135.5 20q58 0 107 -7t81 -17l11 -203h-28q-18 43 -37.5 79t-36.5 61t-40.5 36.5t-67.5 11.5q-48 0 -82.5 -16.5t-57 -53t-33.5 -95t-11 -141.5q0 -95 11 -159t33 -102.5
t55.5 -55t78.5 -16.5q53 0 79 13.5t46 42.5q20 30 37 62.5t34 76.5h25l-11 -192q-35 -15 -91 -28.5t-129 -13.5zM319 737l49 119q7 19 17.5 32t31.5 13q20 0 37.5 -15t17.5 -38q0 -11 -6.5 -22t-23.5 -23l-107 -77z" />
    <glyph glyph-name="Dcaron" unicode="&#x10e;" horiz-adv-x="711" 
d="M205 860l10 14l135 -56l135 56l10 -14l-123 -133h-44zM20 24l39 8q10 2 17 5t11 10t6 19.5t2 33.5v493q0 21 -2 33.5t-6 19.5t-11 10t-17 5l-39 8v24h320q75 0 137.5 -18.5t108 -58.5t70.5 -104.5t25 -155.5q0 -86 -24.5 -152.5t-70 -111.5t-109.5 -68.5t-142 -23.5h-315
v24zM326 39q55 0 93 20t61 58t33.5 93t10.5 125q0 86 -11.5 146.5t-36 99t-62.5 56t-90 17.5q-29 0 -49 -2.5t-30 -6.5v-514q0 -30 2.5 -48t11 -27.5t24.5 -13t43 -3.5z" />
    <glyph glyph-name="Ebreve" unicode="&#x114;" 
d="M20 24l39 8q10 2 17 5t11 10t6 19.5t2 33.5v493q0 21 -2 33.5t-6 19.5t-11 10t-17 5l-39 8v24h527l10 -191h-26q-18 40 -30.5 63t-22.5 38q-12 17 -22.5 27t-24.5 15t-33 6.5t-48 1.5q-45 0 -68.5 -3t-36.5 -6v-265h39q27 0 45.5 1.5t30.5 5t19 9.5t12 15q10 18 16 35.5
t12 42.5h27v-259h-27q-6 24 -12 42t-16 38q-5 10 -11 16t-17.5 9.5t-30 4.5t-48.5 1h-39v-193q0 -36 2 -57.5t13 -32.5t34 -14t65 -3q32 0 52 2t34 8t24 17t22 28q13 18 28.5 51.5t33.5 79.5h28l-14 -226h-547v24zM317 726q-31 0 -55 11.5t-41.5 31t-28.5 44.5t-14 53l22 6
q13 -27 40 -45.5t77 -18.5q48 0 75.5 17.5t41.5 46.5l22 -6q-3 -28 -13.5 -53t-28 -44.5t-42 -31t-55.5 -11.5z" />
    <glyph glyph-name="Ecaron" unicode="&#x11a;" 
d="M171 860l10 14l135 -56l135 56l10 -14l-123 -133h-44zM20 24l39 8q10 2 17 5t11 10t6 19.5t2 33.5v493q0 21 -2 33.5t-6 19.5t-11 10t-17 5l-39 8v24h527l10 -191h-26q-18 40 -30.5 63t-22.5 38q-12 17 -22.5 27t-24.5 15t-33 6.5t-48 1.5q-45 0 -68.5 -3t-36.5 -6v-265
h39q27 0 45.5 1.5t30.5 5t19 9.5t12 15q10 18 16 35.5t12 42.5h27v-259h-27q-6 24 -12 42t-16 38q-5 10 -11 16t-17.5 9.5t-30 4.5t-48.5 1h-39v-193q0 -36 2 -57.5t13 -32.5t34 -14t65 -3q32 0 52 2t34 8t24 17t22 28q13 18 28.5 51.5t33.5 79.5h28l-14 -226h-547v24z" />
    <glyph glyph-name="Edotaccent" unicode="&#x116;" 
d="M316 726q-29 0 -50 19.5t-21 48.5t21 48.5t50 19.5q30 0 51 -19.5t21 -48.5t-21 -48.5t-51 -19.5zM20 24l39 8q10 2 17 5t11 10t6 19.5t2 33.5v493q0 21 -2 33.5t-6 19.5t-11 10t-17 5l-39 8v24h527l10 -191h-26q-18 40 -30.5 63t-22.5 38q-12 17 -22.5 27t-24.5 15
t-33 6.5t-48 1.5q-45 0 -68.5 -3t-36.5 -6v-265h39q27 0 45.5 1.5t30.5 5t19 9.5t12 15q10 18 16 35.5t12 42.5h27v-259h-27q-6 24 -12 42t-16 38q-5 10 -11 16t-17.5 9.5t-30 4.5t-48.5 1h-39v-193q0 -36 2 -57.5t13 -32.5t34 -14t65 -3q32 0 52 2t34 8t24 17t22 28
q13 18 28.5 51.5t33.5 79.5h28l-14 -226h-547v24z" />
    <glyph glyph-name="Emacron" unicode="&#x112;" 
d="M20 24l39 8q10 2 17 5t11 10t6 19.5t2 33.5v493q0 21 -2 33.5t-6 19.5t-11 10t-17 5l-39 8v24h527l10 -191h-26q-18 40 -30.5 63t-22.5 38q-12 17 -22.5 27t-24.5 15t-33 6.5t-48 1.5q-45 0 -68.5 -3t-36.5 -6v-265h39q27 0 45.5 1.5t30.5 5t19 9.5t12 15q10 18 16 35.5
t12 42.5h27v-259h-27q-6 24 -12 42t-16 38q-5 10 -11 16t-17.5 9.5t-30 4.5t-48.5 1h-39v-193q0 -36 2 -57.5t13 -32.5t34 -14t65 -3q32 0 52 2t34 8t24 17t22 28q13 18 28.5 51.5t33.5 79.5h28l-14 -226h-547v24zM181 816h272v-70h-272v70z" />
    <glyph glyph-name="Eogonek" unicode="&#x118;" 
d="M20 24l39 8q10 2 17 5t11 10t6 19.5t2 33.5v493q0 21 -2 33.5t-6 19.5t-11 10t-17 5l-39 8v24h527l10 -191h-26q-18 40 -30.5 63t-22.5 38q-12 17 -22.5 27t-24.5 15t-33 6.5t-48 1.5q-45 0 -68.5 -3t-36.5 -6v-265h39q27 0 45.5 1.5t30.5 5t19 9.5t12 15q10 18 16 35.5
t12 42.5h27v-259h-27q-6 24 -12 42t-16 38q-5 10 -11 16t-17.5 9.5t-30 4.5t-48.5 1h-39v-193q0 -36 2 -57.5t13 -32.5t34 -14t65 -3q32 0 52 2t34 8t24 17t22 28q13 18 28.5 51.5t33.5 79.5h28l-14 -226h-95q-21 -24 -35 -50.5t-14 -58.5q0 -20 7 -29.5t18 -13.5
q9 -4 20 -5t34 -1v-21q-11 -8 -32.5 -16t-51.5 -8q-42 0 -69 20t-27 57q0 20 11 38t28 34t38 29.5t41 24.5h-420v24z" />
    <glyph glyph-name="Gbreve" unicode="&#x11e;" horiz-adv-x="682" 
d="M374 726q-31 0 -55 11.5t-41.5 31t-28.5 44.5t-14 53l22 6q13 -27 40 -45.5t77 -18.5q48 0 75.5 17.5t41.5 46.5l22 -6q-3 -28 -13.5 -53t-28 -44.5t-42 -31t-55.5 -11.5zM380 -12q-168 0 -259 88.5t-91 266.5q0 99 29.5 167.5t79.5 112t116 63t140 19.5q65 0 111.5 -6
t81.5 -15l11 -206h-27q-20 48 -36 78t-31 52q-12 17 -22 28.5t-23.5 18t-31.5 9t-45 2.5q-99 0 -147 -72t-48 -232q0 -89 10 -152.5t32 -104t58 -59.5t88 -19q32 0 54.5 7t39.5 15v150q0 21 -1.5 33.5t-6 19t-11.5 9.5t-17 5l-40 9v24h282v-24l-29 -7q-10 -3 -16 -6
t-9.5 -10t-5 -19.5t-1.5 -33.5v-176q-21 -7 -48 -13t-58 -11t-63.5 -8t-65.5 -3z" />
    <glyph glyph-name="Gcircumflex" unicode="&#x11c;" horiz-adv-x="682" 
d="M222 735l128 129h45l129 -129l-10 -15l-141 53l-141 -53zM380 -12q-168 0 -259 88.5t-91 266.5q0 99 29.5 167.5t79.5 112t116 63t140 19.5q65 0 111.5 -6t81.5 -15l11 -206h-27q-20 48 -36 78t-31 52q-12 17 -22 28.5t-23.5 18t-31.5 9t-45 2.5q-99 0 -147 -72t-48 -232
q0 -89 10 -152.5t32 -104t58 -59.5t88 -19q32 0 54.5 7t39.5 15v150q0 21 -1.5 33.5t-6 19t-11.5 9.5t-17 5l-40 9v24h282v-24l-29 -7q-10 -3 -16 -6t-9.5 -10t-5 -19.5t-1.5 -33.5v-176q-21 -7 -48 -13t-58 -11t-63.5 -8t-65.5 -3z" />
    <glyph glyph-name="Gcommaaccent" unicode="&#x122;" horiz-adv-x="682" 
d="M292 -227q49 13 66 33.5t16 45.5q-3 -2 -9.5 -4.5t-14.5 -2.5q-25 0 -39 14t-14 37q0 22 18.5 38t46.5 16q31 0 52.5 -20t21.5 -56q0 -21 -7.5 -41t-24 -36.5t-43 -28.5t-63.5 -16zM380 -12q-168 0 -259 88.5t-91 266.5q0 99 29.5 167.5t79.5 112t116 63t140 19.5
q65 0 111.5 -6t81.5 -15l11 -206h-27q-20 48 -36 78t-31 52q-12 17 -22 28.5t-23.5 18t-31.5 9t-45 2.5q-99 0 -147 -72t-48 -232q0 -89 10 -152.5t32 -104t58 -59.5t88 -19q32 0 54.5 7t39.5 15v150q0 21 -1.5 33.5t-6 19t-11.5 9.5t-17 5l-40 9v24h282v-24l-29 -7
q-10 -3 -16 -6t-9.5 -10t-5 -19.5t-1.5 -33.5v-176q-21 -7 -48 -13t-58 -11t-63.5 -8t-65.5 -3z" />
    <glyph glyph-name="Gdotaccent" unicode="&#x120;" horiz-adv-x="682" 
d="M373 726q-29 0 -50 19.5t-21 48.5t21 48.5t50 19.5q30 0 51 -19.5t21 -48.5t-21 -48.5t-51 -19.5zM380 -12q-168 0 -259 88.5t-91 266.5q0 99 29.5 167.5t79.5 112t116 63t140 19.5q65 0 111.5 -6t81.5 -15l11 -206h-27q-20 48 -36 78t-31 52q-12 17 -22 28.5t-23.5 18
t-31.5 9t-45 2.5q-99 0 -147 -72t-48 -232q0 -89 10 -152.5t32 -104t58 -59.5t88 -19q32 0 54.5 7t39.5 15v150q0 21 -1.5 33.5t-6 19t-11.5 9.5t-17 5l-40 9v24h282v-24l-29 -7q-10 -3 -16 -6t-9.5 -10t-5 -19.5t-1.5 -33.5v-176q-21 -7 -48 -13t-58 -11t-63.5 -8t-65.5 -3
z" />
    <glyph glyph-name="Hbar" unicode="&#x126;" horiz-adv-x="746" 
d="M13 532h82v61q0 21 -2 33.5t-6 19.5t-11 10t-17 5l-39 8v24h300v-24l-39 -8q-11 -3 -18 -6t-11 -9.5t-5.5 -19t-1.5 -33.5v-61h256v61q0 21 -1.5 33.5t-5.5 19t-11 9.5t-18 6l-38 8v24h299v-24l-38 -8q-11 -2 -17.5 -5t-11 -10t-6 -19.5t-1.5 -33.5v-61h81v-39h-81v-393
q0 -21 1.5 -33.5t5.5 -19.5t11 -10t18 -5l38 -8v-24h-299v24l38 8q11 3 18 5.5t11 9.5t5.5 19.5t1.5 33.5v233h-256v-233q0 -21 1.5 -33.5t5.5 -19.5t11 -9.5t18 -5.5l39 -8v-24h-300v24l39 8q10 2 17 5t11 9.5t6 19.5t2 34v393h-82v39zM501 374v119h-256v-119h256z" />
    <glyph glyph-name="Hcircumflex" unicode="&#x124;" horiz-adv-x="746" 
d="M20 24l39 8q10 2 17 5t11 9.5t6 19.5t2 34v493q0 21 -2 33.5t-6 19.5t-11 10t-17 5l-39 8v24h300v-24l-39 -8q-11 -3 -18 -6t-11 -9.5t-5.5 -19t-1.5 -33.5v-219h256v219q0 21 -1.5 33.5t-5.5 19t-11 9.5t-18 6l-38 8v24h299v-24l-38 -8q-11 -2 -17.5 -5t-11 -10
t-6 -19.5t-1.5 -33.5v-493q0 -21 1.5 -33.5t5.5 -19.5t11 -10t18 -5l38 -8v-24h-299v24l38 8q11 3 18 5.5t11 9.5t5.5 19.5t1.5 33.5v233h-256v-233q0 -21 1.5 -33.5t5.5 -19.5t11 -9.5t18 -5.5l39 -8v-24h-300v24zM222 735l128 129h45l129 -129l-10 -15l-141 53l-141 -53z
" />
    <glyph glyph-name="Idotaccent" unicode="&#x130;" horiz-adv-x="347" 
d="M20 24l42 8q10 2 17 5t11.5 9.5t6 19.5t1.5 34v493q0 21 -1.5 34t-6 19.5t-11.5 9.5t-17 5l-42 8v24h307v-24l-42 -8q-11 -2 -18 -5t-11 -10t-5.5 -19.5t-1.5 -33.5v-493q0 -21 1.5 -33.5t5.5 -19.5t11 -10t18 -5l42 -8v-24h-307v24zM173 726q-29 0 -50 19.5t-21 48.5
t21 48.5t50 19.5q30 0 51 -19.5t21 -48.5t-21 -48.5t-51 -19.5z" />
    <glyph glyph-name="Ibreve" unicode="&#x12c;" horiz-adv-x="347" 
d="M20 24l42 8q10 2 17 5t11.5 9.5t6 19.5t1.5 34v493q0 21 -1.5 34t-6 19.5t-11.5 9.5t-17 5l-42 8v24h307v-24l-42 -8q-11 -2 -18 -5t-11 -10t-5.5 -19.5t-1.5 -33.5v-493q0 -21 1.5 -33.5t5.5 -19.5t11 -10t18 -5l42 -8v-24h-307v24zM174 726q-31 0 -55 11.5t-41.5 31
t-28.5 44.5t-14 53l22 6q13 -27 40 -45.5t77 -18.5q48 0 75.5 17.5t41.5 46.5l22 -6q-3 -28 -13.5 -53t-28 -44.5t-42 -31t-55.5 -11.5z" />
    <glyph glyph-name="Imacron" unicode="&#x12a;" horiz-adv-x="347" 
d="M20 24l42 8q10 2 17 5t11.5 9.5t6 19.5t1.5 34v493q0 21 -1.5 34t-6 19.5t-11.5 9.5t-17 5l-42 8v24h307v-24l-42 -8q-11 -2 -18 -5t-11 -10t-5.5 -19.5t-1.5 -33.5v-493q0 -21 1.5 -33.5t5.5 -19.5t11 -10t18 -5l42 -8v-24h-307v24zM38 816h272v-70h-272v70z" />
    <glyph glyph-name="Iogonek" unicode="&#x12e;" horiz-adv-x="347" 
d="M20 24l42 8q10 2 17 5t11.5 9.5t6 19.5t1.5 34v493q0 21 -1.5 34t-6 19.5t-11.5 9.5t-17 5l-42 8v24h307v-24l-42 -8q-11 -2 -18 -5t-11 -10t-5.5 -19.5t-1.5 -33.5v-493q0 -21 1.5 -33.5t5.5 -19.5t11 -10t18 -5l42 -8v-24h-92q-17 -24 -29 -49.5t-12 -57.5
q0 -37 25 -45q9 -4 20 -5t34 -1v-21q-11 -8 -32.5 -16t-52.5 -8q-41 0 -68 21t-27 58q0 20 10.5 38t26.5 33.5t35.5 28.5l37.5 24h-183v24z" />
    <glyph glyph-name="Itilde" unicode="&#x128;" horiz-adv-x="347" 
d="M20 24l42 8q10 2 17 5t11.5 9.5t6 19.5t1.5 34v493q0 21 -1.5 34t-6 19.5t-11.5 9.5t-17 5l-42 8v24h307v-24l-42 -8q-11 -2 -18 -5t-11 -10t-5.5 -19.5t-1.5 -33.5v-493q0 -21 1.5 -33.5t5.5 -19.5t11 -10t18 -5l42 -8v-24h-307v24zM9 730l20.5 47t20 36t23.5 23.5
t30 8.5t38.5 -3.5t44 -8t43.5 -8t37 -3.5q15 0 26.5 10t25.5 33l21 -11l-20.5 -47.5t-20 -36.5t-23 -23t-30.5 -8q-17 0 -38.5 3.5t-44 8t-43.5 8t-37 3.5t-27 -10t-25 -33z" />
    <glyph glyph-name="Jcircumflex" unicode="&#x134;" horiz-adv-x="340" 
d="M19 735l128 129h45l129 -129l-10 -15l-141 53l-141 -53zM20 -176q-66 0 -98.5 23t-32.5 57q0 26 16 42.5t46 16.5q35 0 51 -18t24 -60q4 -15 7.5 -18.5t14.5 -3.5q20 0 33.5 20t13.5 69v641q0 21 -1.5 33.5t-5.5 19t-11 9.5t-18 6l-40 8v24h301v-24l-39 -8
q-11 -2 -17.5 -5t-11 -10t-6 -19.5t-1.5 -33.5v-531q0 -52 -15 -96t-43.5 -75.5t-70.5 -49t-96 -17.5z" />
    <glyph glyph-name="Kcommaaccent" unicode="&#x136;" horiz-adv-x="684" 
d="M284 -227q49 13 66 33.5t16 45.5q-3 -2 -9.5 -4.5t-14.5 -2.5q-25 0 -39 14t-14 37q0 22 18.5 38t46.5 16q31 0 52.5 -20t21.5 -56q0 -21 -7.5 -41t-24 -36.5t-43 -28.5t-63.5 -16zM485 0q-58 74 -113 160.5t-99 174.5v16l189 219q15 17 21.5 31.5t6.5 25.5q0 24 -35 34
l-30 8v24h230v-24l-25 -6q-13 -3 -23 -8t-21 -14t-24.5 -23l-33.5 -36l-145 -162q24 -47 54 -97l62 -98.5l63.5 -92.5t58.5 -78q10 -12 15.5 -16t16.5 -7l31 -7v-24h-199zM20 24l39 8q10 2 17 5t11 9.5t6 19.5t2 34v493q0 21 -2 33.5t-6 19.5t-11 10t-17 5l-39 8v24h300v-24
l-39 -8q-11 -3 -18 -6t-11 -9.5t-5.5 -19t-1.5 -33.5v-493q0 -21 1.5 -33.5t5.5 -19.5t11 -9.5t18 -5.5l39 -8v-24h-300v24z" />
    <glyph glyph-name="Lacute" unicode="&#x139;" horiz-adv-x="578" 
d="M62 740l155 112q23 17 44 17t35 -16.5t14 -38.5q0 -17 -10 -30.5t-36 -18.5l-196 -41zM20 24l39 8q10 2 17 5t11 9.5t6 19.5t2 34v493q0 21 -2 33.5t-6 19.5t-11 10t-17 5l-39 8v24h306v-24l-45 -9q-11 -2 -18 -5t-11 -9.5t-5.5 -19t-1.5 -33.5v-462q0 -30 2 -47.5
t11.5 -27.5t29 -13t54.5 -3q31 0 51.5 2t34.5 8t24 16t21 27q14 21 30 54.5t35 85.5h28l-14 -233h-532v24z" />
    <glyph glyph-name="Lcaron" unicode="&#x13d;" horiz-adv-x="578" 
d="M377 508l7 148q1 23 12 39t40 16q23 0 38 -13t15 -34q0 -9 -3 -19t-11 -20l-81 -122zM20 24l39 8q10 2 17 5t11 9.5t6 19.5t2 34v493q0 21 -2 33.5t-6 19.5t-11 10t-17 5l-39 8v24h306v-24l-45 -9q-11 -2 -18 -5t-11 -9.5t-5.5 -19t-1.5 -33.5v-462q0 -30 2 -47.5
t11.5 -27.5t29 -13t54.5 -3q31 0 51.5 2t34.5 8t24 16t21 27q14 21 30 54.5t35 85.5h28l-14 -233h-532v24z" />
    <glyph glyph-name="Lcommaaccent" unicode="&#x13b;" horiz-adv-x="578" 
d="M232 -227q49 13 66 33.5t16 45.5q-3 -2 -9.5 -4.5t-14.5 -2.5q-25 0 -39 14t-14 37q0 22 18.5 38t46.5 16q31 0 52.5 -20t21.5 -56q0 -21 -7.5 -41t-24 -36.5t-43 -28.5t-63.5 -16zM20 24l39 8q10 2 17 5t11 9.5t6 19.5t2 34v493q0 21 -2 33.5t-6 19.5t-11 10t-17 5
l-39 8v24h306v-24l-45 -9q-11 -2 -18 -5t-11 -9.5t-5.5 -19t-1.5 -33.5v-462q0 -30 2 -47.5t11.5 -27.5t29 -13t54.5 -3q31 0 51.5 2t34.5 8t24 16t21 27q14 21 30 54.5t35 85.5h28l-14 -233h-532v24z" />
    <glyph glyph-name="Ldot" unicode="&#x13f;" horiz-adv-x="578" 
d="M20 24l39 8q10 2 17 5t11 9.5t6 19.5t2 34v493q0 21 -2 33.5t-6 19.5t-11 10t-17 5l-39 8v24h306v-24l-45 -9q-11 -2 -18 -5t-11 -9.5t-5.5 -19t-1.5 -33.5v-462q0 -30 2 -47.5t11.5 -27.5t29 -13t54.5 -3q31 0 51.5 2t34.5 7t24 15t21 25q14 20 30 51.5t35 81.5h28
l-14 -222h-532v24zM488 299q-30 0 -52 22t-22 52q0 32 22 52.5t52 20.5t53 -20.5t23 -52.5q0 -30 -23 -52t-53 -22z" />
    <glyph glyph-name="Nacute" unicode="&#x143;" horiz-adv-x="689" 
d="M256 740l155 112q23 17 44 17t35 -16.5t14 -38.5q0 -17 -10 -30.5t-36 -18.5l-196 -41zM145 589h-4v-477q0 -26 2 -41t7 -23t13.5 -11t22.5 -6l38 -7v-24h-204v24l32 7q12 2 20 5.5t13 11.5t7.5 22.5t2.5 39.5v483q0 21 -2 33.5t-6 19.5t-11 10t-17 5l-39 8v24h232
l296 -448h4v336q0 26 -1.5 41t-6.5 23t-13.5 11t-22.5 6l-42 7v24h208v-24l-33 -7q-11 -2 -19 -5.5t-13 -11.5t-7.5 -22.5t-2.5 -39.5v-585h-59z" />
    <glyph glyph-name="Ncaron" unicode="&#x147;" horiz-adv-x="689" 
d="M220 860l10 14l135 -56l135 56l10 -14l-123 -133h-44zM145 589h-4v-477q0 -26 2 -41t7 -23t13.5 -11t22.5 -6l38 -7v-24h-204v24l32 7q12 2 20 5.5t13 11.5t7.5 22.5t2.5 39.5v483q0 21 -2 33.5t-6 19.5t-11 10t-17 5l-39 8v24h232l296 -448h4v336q0 26 -1.5 41t-6.5 23
t-13.5 11t-22.5 6l-42 7v24h208v-24l-33 -7q-11 -2 -19 -5.5t-13 -11.5t-7.5 -22.5t-2.5 -39.5v-585h-59z" />
    <glyph glyph-name="Ncommaaccent" unicode="&#x145;" horiz-adv-x="689" 
d="M269 -227q49 13 66 33.5t16 45.5q-3 -2 -9.5 -4.5t-14.5 -2.5q-25 0 -39 14t-14 37q0 22 18.5 38t46.5 16q31 0 52.5 -20t21.5 -56q0 -21 -7.5 -41t-24 -36.5t-43 -28.5t-63.5 -16zM145 589h-4v-477q0 -26 2 -41t7 -23t13.5 -11t22.5 -6l38 -7v-24h-204v24l32 7
q12 2 20 5.5t13 11.5t7.5 22.5t2.5 39.5v483q0 21 -2 33.5t-6 19.5t-11 10t-17 5l-39 8v24h232l296 -448h4v336q0 26 -1.5 41t-6.5 23t-13.5 11t-22.5 6l-42 7v24h208v-24l-33 -7q-11 -2 -19 -5.5t-13 -11.5t-7.5 -22.5t-2.5 -39.5v-585h-59z" />
    <glyph glyph-name="Nacute.pl" horiz-adv-x="689" 
d="M323 737l49 119q7 19 17.5 32t31.5 13q20 0 37.5 -15t17.5 -38q0 -11 -6.5 -22t-23.5 -23l-107 -77zM145 589h-4v-477q0 -26 2 -41t7 -23t13.5 -11t22.5 -6l38 -7v-24h-204v24l32 7q12 2 20 5.5t13 11.5t7.5 22.5t2.5 39.5v483q0 21 -2 33.5t-6 19.5t-11 10t-17 5l-39 8
v24h232l296 -448h4v336q0 26 -1.5 41t-6.5 23t-13.5 11t-22.5 6l-42 7v24h208v-24l-33 -7q-11 -2 -19 -5.5t-13 -11.5t-7.5 -22.5t-2.5 -39.5v-585h-59z" />
    <glyph glyph-name="Obreve" unicode="&#x14e;" horiz-adv-x="712" 
d="M356 726q-31 0 -55 11.5t-41.5 31t-28.5 44.5t-14 53l22 6q13 -27 40 -45.5t77 -18.5q48 0 75.5 17.5t41.5 46.5l22 -6q-3 -28 -13.5 -53t-28 -44.5t-42 -31t-55.5 -11.5zM352 -12q-65 0 -123.5 21.5t-103 65t-70.5 109t-26 153.5q0 98 29 168t76 114.5t106.5 65
t119.5 20.5q65 0 123.5 -21.5t103 -65t70.5 -109.5t26 -156q0 -99 -29 -168t-76 -113t-106.5 -64t-119.5 -20zM358 27q43 0 74.5 16t52.5 52t31 94.5t10 143.5q0 76 -8.5 137.5t-29 105t-53.5 67t-82 23.5q-42 0 -73.5 -16.5t-52 -53t-31 -95.5t-10.5 -144q0 -76 8.5 -137
t28.5 -104t53 -66t82 -23z" />
    <glyph glyph-name="Ohungarumlaut" unicode="&#x150;" horiz-adv-x="712" 
d="M243 737l72 116q17 32 40 32q17 0 34.5 -14.5t17.5 -34.5q0 -14 -7 -26.5t-27 -23.5l-114 -65zM410 737l72 116q19 32 41 32q17 0 35 -15t18 -35q0 -12 -6 -23.5t-26 -22.5l-117 -68zM352 -12q-65 0 -123.5 21.5t-103 65t-70.5 109t-26 153.5q0 98 29 168t76 114.5
t106.5 65t119.5 20.5q65 0 123.5 -21.5t103 -65t70.5 -109.5t26 -156q0 -99 -29 -168t-76 -113t-106.5 -64t-119.5 -20zM358 27q43 0 74.5 16t52.5 52t31 94.5t10 143.5q0 76 -8.5 137.5t-29 105t-53.5 67t-82 23.5q-42 0 -73.5 -16.5t-52 -53t-31 -95.5t-10.5 -144
q0 -76 8.5 -137t28.5 -104t53 -66t82 -23z" />
    <glyph glyph-name="Omacron" unicode="&#x14c;" horiz-adv-x="712" 
d="M220 816h272v-70h-272v70zM352 -12q-65 0 -123.5 21.5t-103 65t-70.5 109t-26 153.5q0 98 29 168t76 114.5t106.5 65t119.5 20.5q65 0 123.5 -21.5t103 -65t70.5 -109.5t26 -156q0 -99 -29 -168t-76 -113t-106.5 -64t-119.5 -20zM358 27q43 0 74.5 16t52.5 52t31 94.5
t10 143.5q0 76 -8.5 137.5t-29 105t-53.5 67t-82 23.5q-42 0 -73.5 -16.5t-52 -53t-31 -95.5t-10.5 -144q0 -76 8.5 -137t28.5 -104t53 -66t82 -23z" />
    <glyph glyph-name="Oacute.pl" horiz-adv-x="712" 
d="M314 737l49 119q7 19 17.5 32t31.5 13q20 0 37.5 -15t17.5 -38q0 -11 -6.5 -22t-23.5 -23l-107 -77zM352 -12q-65 0 -123.5 21.5t-103 65t-70.5 109t-26 153.5q0 98 29 168t76 114.5t106.5 65t119.5 20.5q65 0 123.5 -21.5t103 -65t70.5 -109.5t26 -156q0 -99 -29 -168
t-76 -113t-106.5 -64t-119.5 -20zM358 27q43 0 74.5 16t52.5 52t31 94.5t10 143.5q0 76 -8.5 137.5t-29 105t-53.5 67t-82 23.5q-42 0 -73.5 -16.5t-52 -53t-31 -95.5t-10.5 -144q0 -76 8.5 -137t28.5 -104t53 -66t82 -23z" />
    <glyph glyph-name="Oslashacute" unicode="&#x1fe;" horiz-adv-x="712" 
d="M148 55q-54 44 -86.5 114t-32.5 168t29 168t76 114.5t106.5 65t119.5 20.5q94 0 171 -45l44 70h48l-59 -93q54 -43 86.5 -113.5t32.5 -170.5q0 -99 -29 -168t-76 -113t-106.5 -64t-119.5 -20q-95 0 -171 44l-61 -96h-48zM358 27q43 0 74.5 16t52.5 52t31 94.5t10 143.5
q0 131 -22 209l-278 -439q40 -76 132 -76zM186 357q0 -65 5 -116.5t16 -90.5l278 439q-20 38 -52 57.5t-80 19.5q-42 0 -73.5 -16.5t-52 -53t-31 -95.5t-10.5 -144zM247 740l155 112q23 17 44 17t35 -16.5t14 -38.5q0 -17 -10 -30.5t-36 -18.5l-196 -41z" />
    <glyph glyph-name="Racute" unicode="&#x154;" horiz-adv-x="673" 
d="M20 24l39 8q10 2 17 5t11 9.5t6 19.5t2 34v493q0 21 -2 33.5t-6 19.5t-11 10t-17 5l-39 8v24h311q136 0 197 -45.5t61 -134.5q0 -61 -35.5 -103.5t-109.5 -64.5v-3q17 -34 38.5 -72.5l45 -77l47 -74.5t44.5 -63q8 -11 16.5 -16t23.5 -10l18 -5v-24h-194q-24 32 -48 70.5
l-47.5 79.5t-44.5 82.5t-37 78.5h-61v-211q0 -21 1.5 -33.5t5 -19.5t10.5 -10t18 -5l39 -8v-24h-299v24zM296 347q37 0 63.5 8t43.5 26t25 47.5t8 72.5q0 44 -6.5 73.5t-20 47t-35.5 24.5t-53 7q-27 0 -46.5 -2t-29.5 -5v-295q2 -1 16.5 -2.5t34.5 -1.5zM214 740l155 112
q23 17 44 17t35 -16.5t14 -38.5q0 -17 -10 -30.5t-36 -18.5l-196 -41z" />
    <glyph glyph-name="Rcaron" unicode="&#x158;" horiz-adv-x="673" 
d="M20 24l39 8q10 2 17 5t11 9.5t6 19.5t2 34v493q0 21 -2 33.5t-6 19.5t-11 10t-17 5l-39 8v24h311q136 0 197 -45.5t61 -134.5q0 -61 -35.5 -103.5t-109.5 -64.5v-3q17 -34 38.5 -72.5l45 -77l47 -74.5t44.5 -63q8 -11 16.5 -16t23.5 -10l18 -5v-24h-194q-24 32 -48 70.5
l-47.5 79.5t-44.5 82.5t-37 78.5h-61v-211q0 -21 1.5 -33.5t5 -19.5t10.5 -10t18 -5l39 -8v-24h-299v24zM296 347q37 0 63.5 8t43.5 26t25 47.5t8 72.5q0 44 -6.5 73.5t-20 47t-35.5 24.5t-53 7q-27 0 -46.5 -2t-29.5 -5v-295q2 -1 16.5 -2.5t34.5 -1.5zM178 860l10 14
l135 -56l135 56l10 -14l-123 -133h-44z" />
    <glyph glyph-name="Rcommaaccent" unicode="&#x156;" horiz-adv-x="673" 
d="M20 24l39 8q10 2 17 5t11 9.5t6 19.5t2 34v493q0 21 -2 33.5t-6 19.5t-11 10t-17 5l-39 8v24h311q136 0 197 -45.5t61 -134.5q0 -61 -35.5 -103.5t-109.5 -64.5v-3q17 -34 38.5 -72.5l45 -77l47 -74.5t44.5 -63q8 -11 16.5 -16t23.5 -10l18 -5v-24h-194q-24 32 -48 70.5
l-47.5 79.5t-44.5 82.5t-37 78.5h-61v-211q0 -21 1.5 -33.5t5 -19.5t10.5 -10t18 -5l39 -8v-24h-299v24zM296 347q37 0 63.5 8t43.5 26t25 47.5t8 72.5q0 44 -6.5 73.5t-20 47t-35.5 24.5t-53 7q-27 0 -46.5 -2t-29.5 -5v-295q2 -1 16.5 -2.5t34.5 -1.5zM286 -227
q49 13 66 33.5t16 45.5q-3 -2 -9.5 -4.5t-14.5 -2.5q-25 0 -39 14t-14 37q0 22 18.5 38t46.5 16q31 0 52.5 -20t21.5 -56q0 -21 -7.5 -41t-24 -36.5t-43 -28.5t-63.5 -16z" />
    <glyph glyph-name="Sacute" unicode="&#x15a;" horiz-adv-x="519" 
d="M237 -13q-66 0 -117.5 10t-81.5 24l-12 188h29q18 -38 33.5 -67.5t35.5 -58.5q22 -33 49 -44.5t74 -11.5q66 0 95.5 31.5t29.5 82.5q0 24 -7.5 43.5t-25.5 36.5t-47.5 34t-74.5 35q-50 21 -85 43t-57 47.5t-31.5 56t-9.5 68.5q0 43 17 80t48 64t74.5 42t96.5 15
q63 0 103.5 -7t66.5 -17l11 -168h-27q-9 20 -16.5 34.5t-15 26.5t-15 22.5l-16.5 22.5q-10 13 -19 21.5t-20 14t-26.5 8t-37.5 2.5q-56 0 -85.5 -25.5t-29.5 -74.5q0 -22 5.5 -39.5t20.5 -33.5t41.5 -31t69.5 -33q57 -24 96.5 -47t65 -48.5t37 -55t11.5 -64.5
q0 -47 -16.5 -88.5t-48.5 -72t-79.5 -48.5t-108.5 -18zM159 740l155 112q23 17 44 17t35 -16.5t14 -38.5q0 -17 -10 -30.5t-36 -18.5l-196 -41z" />
    <glyph glyph-name="Scedilla" unicode="&#x15e;" horiz-adv-x="519" 
d="M147 -185q45 11 65 24.5t20 31.5q0 15 -14 22t-38 9l-5 8l38 78q-58 2 -103 11t-72 22l-12 188h29q18 -38 33.5 -67.5t35.5 -58.5q22 -33 49 -44.5t74 -11.5q66 0 95.5 31.5t29.5 82.5q0 24 -7.5 43.5t-25.5 36.5t-47.5 34t-74.5 35q-50 21 -85 43t-57 47.5t-31.5 56
t-9.5 68.5q0 43 17 80t48 64t74.5 42t96.5 15q63 0 103.5 -7t66.5 -17l11 -168h-27q-9 20 -16.5 34.5t-15 26.5t-15 22.5l-16.5 22.5q-10 13 -19 21.5t-20 14t-26.5 8t-37.5 2.5q-56 0 -85.5 -25.5t-29.5 -74.5q0 -22 5.5 -39.5t20.5 -33.5t41.5 -31t69.5 -33
q57 -24 96.5 -47t65 -48.5t37 -55t11.5 -64.5q0 -46 -15.5 -86t-46 -71t-75.5 -49.5t-103 -20.5l-23 -35q39 -4 62 -20.5t23 -43.5q0 -42 -45 -64t-120 -28v19z" />
    <glyph glyph-name="Scircumflex" unicode="&#x15c;" horiz-adv-x="519" 
d="M117 735l128 129h45l129 -129l-10 -15l-141 53l-141 -53zM237 -13q-66 0 -117.5 10t-81.5 24l-12 188h29q18 -38 33.5 -67.5t35.5 -58.5q22 -33 49 -44.5t74 -11.5q66 0 95.5 31.5t29.5 82.5q0 24 -7.5 43.5t-25.5 36.5t-47.5 34t-74.5 35q-50 21 -85 43t-57 47.5
t-31.5 56t-9.5 68.5q0 43 17 80t48 64t74.5 42t96.5 15q63 0 103.5 -7t66.5 -17l11 -168h-27q-9 20 -16.5 34.5t-15 26.5t-15 22.5l-16.5 22.5q-10 13 -19 21.5t-20 14t-26.5 8t-37.5 2.5q-56 0 -85.5 -25.5t-29.5 -74.5q0 -22 5.5 -39.5t20.5 -33.5t41.5 -31t69.5 -33
q57 -24 96.5 -47t65 -48.5t37 -55t11.5 -64.5q0 -47 -16.5 -88.5t-48.5 -72t-79.5 -48.5t-108.5 -18z" />
    <glyph glyph-name="Scommaaccent" unicode="&#x218;" horiz-adv-x="519" 
d="M169 -227q49 13 66 33.5t16 45.5q-3 -2 -9.5 -4.5t-14.5 -2.5q-25 0 -39 14t-14 37q0 22 18.5 38t46.5 16q31 0 52.5 -20t21.5 -56q0 -21 -7.5 -41t-24 -36.5t-43 -28.5t-63.5 -16zM237 -13q-66 0 -117.5 10t-81.5 24l-12 188h29q18 -38 33.5 -67.5t35.5 -58.5
q22 -33 49 -44.5t74 -11.5q66 0 95.5 31.5t29.5 82.5q0 24 -7.5 43.5t-25.5 36.5t-47.5 34t-74.5 35q-50 21 -85 43t-57 47.5t-31.5 56t-9.5 68.5q0 43 17 80t48 64t74.5 42t96.5 15q63 0 103.5 -7t66.5 -17l11 -168h-27q-9 20 -16.5 34.5t-15 26.5t-15 22.5l-16.5 22.5
q-10 13 -19 21.5t-20 14t-26.5 8t-37.5 2.5q-56 0 -85.5 -25.5t-29.5 -74.5q0 -22 5.5 -39.5t20.5 -33.5t41.5 -31t69.5 -33q57 -24 96.5 -47t65 -48.5t37 -55t11.5 -64.5q0 -47 -16.5 -88.5t-48.5 -72t-79.5 -48.5t-108.5 -18z" />
    <glyph glyph-name="Sacute.pl" horiz-adv-x="519" 
d="M237 -13q-66 0 -117.5 10t-81.5 24l-12 188h29q18 -38 33.5 -67.5t35.5 -58.5q22 -33 49 -44.5t74 -11.5q66 0 95.5 31.5t29.5 82.5q0 24 -7.5 43.5t-25.5 36.5t-47.5 34t-74.5 35q-50 21 -85 43t-57 47.5t-31.5 56t-9.5 68.5q0 43 17 80t48 64t74.5 42t96.5 15
q63 0 103.5 -7t66.5 -17l11 -168h-27q-9 20 -16.5 34.5t-15 26.5t-15 22.5l-16.5 22.5q-10 13 -19 21.5t-20 14t-26.5 8t-37.5 2.5q-56 0 -85.5 -25.5t-29.5 -74.5q0 -22 5.5 -39.5t20.5 -33.5t41.5 -31t69.5 -33q57 -24 96.5 -47t65 -48.5t37 -55t11.5 -64.5
q0 -47 -16.5 -88.5t-48.5 -72t-79.5 -48.5t-108.5 -18zM227 737l49 119q7 19 17.5 32t31.5 13q20 0 37.5 -15t17.5 -38q0 -11 -6.5 -22t-23.5 -23l-107 -77z" />
    <glyph glyph-name="Tcaron" unicode="&#x164;" horiz-adv-x="619" 
d="M164 860l10 14l135 -56l135 56l10 -14l-123 -133h-44zM155 24l42 8q12 2 19 5t11 10t5.5 19.5t1.5 33.5v554h-14q-29 0 -47 -1.5t-30 -6.5t-21 -15t-19 -27q-8 -13 -15 -26t-14 -28t-14.5 -33.5l-16.5 -42.5h-29l9 219h573l9 -219h-29l-16.5 42.5t-14.5 33.5t-14 28
t-15 26q-11 17 -20 27t-21 15t-29.5 6.5t-47.5 1.5h-13v-554q0 -21 1 -33.5t5 -19.5t11.5 -10t19.5 -5l41 -8v-24h-308v24z" />
    <glyph glyph-name="Tcommaaccent" unicode="&#x162;" horiz-adv-x="619" 
d="M229 -227q49 13 66 33.5t16 45.5q-3 -2 -9.5 -4.5t-14.5 -2.5q-25 0 -39 14t-14 37q0 22 18.5 38t46.5 16q31 0 52.5 -20t21.5 -56q0 -21 -7.5 -41t-24 -36.5t-43 -28.5t-63.5 -16zM155 24l42 8q12 2 19 5t11 10t5.5 19.5t1.5 33.5v554h-14q-29 0 -47 -1.5t-30 -6.5
t-21 -15t-19 -27q-8 -13 -15 -26t-14 -28t-14.5 -33.5l-16.5 -42.5h-29l9 219h573l9 -219h-29l-16.5 42.5t-14.5 33.5t-14 28t-15 26q-11 17 -20 27t-21 15t-29.5 6.5t-47.5 1.5h-13v-554q0 -21 1 -33.5t5 -19.5t11.5 -10t19.5 -5l41 -8v-24h-308v24z" />
    <glyph glyph-name="Tbar" unicode="&#x166;" horiz-adv-x="619" 
d="M82 398h153v256h-14q-29 0 -47 -1.5t-30 -6.5t-21 -15t-19 -27q-9 -13 -16 -26t-14 -28t-14.5 -33.5l-16.5 -42.5h-28l8 219h574l8 -219h-28l-16.5 42.5t-14.5 33.5t-14 28t-15 26q-11 17 -20 27t-21 15t-29.5 6.5t-47.5 1.5h-14v-256h153v-39h-153v-259q0 -21 1.5 -33.5
t5 -19.5t11 -10t19.5 -5l42 -8v-24h-308v24l42 8q11 2 18.5 5t11.5 10t5.5 19.5t1.5 33.5v259h-153v39z" />
    <glyph glyph-name="Ubreve" unicode="&#x16c;" horiz-adv-x="692" 
d="M361 -12q-62 0 -112.5 13t-87 41t-56.5 72.5t-20 108.5v370q0 21 -1.5 33.5t-6 19.5t-11.5 10t-17 5l-38 8v24h298v-24l-37 -8q-11 -3 -18 -6t-11 -9.5t-5.5 -19t-1.5 -33.5v-386q0 -83 38 -122t128 -39q85 0 122 46t37 127v362q0 26 -1.5 41t-6.5 23t-14 11t-23 6l-43 7
v24h209v-24l-33 -7q-11 -2 -18.5 -5.5t-12.5 -11.5t-7.5 -22.5t-2.5 -39.5v-371q0 -46 -14.5 -87t-44.5 -71.5t-76.5 -48t-111.5 -17.5zM390 726q-31 0 -55 11.5t-41.5 31t-28.5 44.5t-14 53l22 6q13 -27 40 -45.5t77 -18.5q48 0 75.5 17.5t41.5 46.5l22 -6
q-3 -28 -13.5 -53t-28 -44.5t-42 -31t-55.5 -11.5z" />
    <glyph glyph-name="Uhungarumlaut" unicode="&#x170;" horiz-adv-x="692" 
d="M277 737l72 116q17 32 40 32q17 0 34.5 -14.5t17.5 -34.5q0 -14 -7 -26.5t-27 -23.5l-114 -65zM444 737l72 116q19 32 41 32q17 0 35 -15t18 -35q0 -12 -6 -23.5t-26 -22.5l-117 -68zM361 -12q-62 0 -112.5 13t-87 41t-56.5 72.5t-20 108.5v370q0 21 -1.5 33.5t-6 19.5
t-11.5 10t-17 5l-38 8v24h298v-24l-37 -8q-11 -3 -18 -6t-11 -9.5t-5.5 -19t-1.5 -33.5v-386q0 -83 38 -122t128 -39q85 0 122 46t37 127v362q0 26 -1.5 41t-6.5 23t-14 11t-23 6l-43 7v24h209v-24l-33 -7q-11 -2 -18.5 -5.5t-12.5 -11.5t-7.5 -22.5t-2.5 -39.5v-371
q0 -46 -14.5 -87t-44.5 -71.5t-76.5 -48t-111.5 -17.5z" />
    <glyph glyph-name="Umacron" unicode="&#x16a;" horiz-adv-x="692" 
d="M361 -12q-62 0 -112.5 13t-87 41t-56.5 72.5t-20 108.5v370q0 21 -1.5 33.5t-6 19.5t-11.5 10t-17 5l-38 8v24h298v-24l-37 -8q-11 -3 -18 -6t-11 -9.5t-5.5 -19t-1.5 -33.5v-386q0 -83 38 -122t128 -39q85 0 122 46t37 127v362q0 26 -1.5 41t-6.5 23t-14 11t-23 6l-43 7
v24h209v-24l-33 -7q-11 -2 -18.5 -5.5t-12.5 -11.5t-7.5 -22.5t-2.5 -39.5v-371q0 -46 -14.5 -87t-44.5 -71.5t-76.5 -48t-111.5 -17.5zM254 816h272v-70h-272v70z" />
    <glyph glyph-name="Uogonek" unicode="&#x172;" horiz-adv-x="692" 
d="M400 -203q-42 0 -69 20t-27 57q0 18 9 35t24 32t35 28t42 24q-12 -2 -26 -3.5t-27 -1.5q-62 0 -112.5 13t-87 41t-56.5 72.5t-20 108.5v370q0 21 -1.5 33.5t-6 19.5t-11.5 10t-17 5l-38 8v24h298v-24l-37 -8q-11 -3 -18 -6t-11 -9.5t-5.5 -19t-1.5 -33.5v-386
q0 -83 38 -122t128 -39q85 0 122 46t37 127v362q0 26 -1.5 41t-6.5 23t-14 11t-23 6l-43 7v24h209v-24l-33 -7q-11 -2 -18.5 -5.5t-12.5 -11.5t-7.5 -22.5t-2.5 -39.5v-371q0 -62 -25 -112.5t-80 -80.5q-44 -24 -71 -52.5t-27 -75.5q0 -20 7 -29.5t18 -13.5q9 -4 20 -5
t34 -1v-21q-11 -8 -33 -16t-51 -8z" />
    <glyph glyph-name="Uring" unicode="&#x16e;" horiz-adv-x="692" 
d="M361 -12q-62 0 -112.5 13t-87 41t-56.5 72.5t-20 108.5v370q0 21 -1.5 33.5t-6 19.5t-11.5 10t-17 5l-38 8v24h298v-24l-37 -8q-11 -3 -18 -6t-11 -9.5t-5.5 -19t-1.5 -33.5v-386q0 -83 38 -122t128 -39q85 0 122 46t37 127v362q0 26 -1.5 41t-6.5 23t-14 11t-23 6l-43 7
v24h209v-24l-33 -7q-11 -2 -18.5 -5.5t-12.5 -11.5t-7.5 -22.5t-2.5 -39.5v-371q0 -46 -14.5 -87t-44.5 -71.5t-76.5 -48t-111.5 -17.5zM392 698q-43 0 -69.5 26.5t-26.5 64.5q0 40 27 66t69 26t69 -26t27 -66q0 -38 -27.5 -64.5t-68.5 -26.5zM392 730q25 0 40 16.5t15 42.5
t-15 43t-40 17q-24 0 -39.5 -17t-15.5 -43t15 -42.5t40 -16.5z" />
    <glyph glyph-name="Utilde" unicode="&#x168;" horiz-adv-x="692" 
d="M361 -12q-62 0 -112.5 13t-87 41t-56.5 72.5t-20 108.5v370q0 21 -1.5 33.5t-6 19.5t-11.5 10t-17 5l-38 8v24h298v-24l-37 -8q-11 -3 -18 -6t-11 -9.5t-5.5 -19t-1.5 -33.5v-386q0 -83 38 -122t128 -39q85 0 122 46t37 127v362q0 26 -1.5 41t-6.5 23t-14 11t-23 6l-43 7
v24h209v-24l-33 -7q-11 -2 -18.5 -5.5t-12.5 -11.5t-7.5 -22.5t-2.5 -39.5v-371q0 -46 -14.5 -87t-44.5 -71.5t-76.5 -48t-111.5 -17.5zM225 730l20.5 47t20 36t23.5 23.5t30 8.5t38.5 -3.5t44 -8t43.5 -8t37 -3.5q15 0 26.5 10t25.5 33l21 -11l-20.5 -47.5t-20 -36.5
t-23 -23t-30.5 -8q-17 0 -38.5 3.5t-44 8t-43.5 8t-37 3.5t-27 -10t-25 -33z" />
    <glyph glyph-name="Wacute" unicode="&#x1e82;" horiz-adv-x="977" 
d="M398 740l155 112q23 17 44 17t35 -16.5t14 -38.5q0 -17 -10 -30.5t-36 -18.5l-196 -41zM84 572l-15 42.5t-12.5 26.5t-14 14.5t-18.5 7.5l-26 6v24h292v-24l-28 -6q-33 -9 -33 -38q0 -14 5 -32.5t11 -38.5l119 -380h5l106 321l-28 86q-14 43 -25.5 59.5t-32.5 22.5l-25 6
v24h291v-24l-33 -7q-31 -7 -31 -39q0 -13 4 -31t10 -38l119 -380h5l107 380q5 19 9 37.5t4 32.5q0 32 -34 39l-32 6v24h196v-24l-26 -6q-24 -6 -36.5 -30.5t-29.5 -81.5l-169 -551h-84l-134 422h-3l-141 -422h-83z" />
    <glyph glyph-name="Wcircumflex" unicode="&#x174;" horiz-adv-x="977" 
d="M361 735l128 129h45l129 -129l-10 -15l-141 53l-141 -53zM84 572l-15 42.5t-12.5 26.5t-14 14.5t-18.5 7.5l-26 6v24h292v-24l-28 -6q-33 -9 -33 -38q0 -14 5 -32.5t11 -38.5l119 -380h5l106 321l-28 86q-14 43 -25.5 59.5t-32.5 22.5l-25 6v24h291v-24l-33 -7
q-31 -7 -31 -39q0 -13 4 -31t10 -38l119 -380h5l107 380q5 19 9 37.5t4 32.5q0 32 -34 39l-32 6v24h196v-24l-26 -6q-24 -6 -36.5 -30.5t-29.5 -81.5l-169 -551h-84l-134 422h-3l-141 -422h-83z" />
    <glyph glyph-name="Wdieresis" unicode="&#x1e84;" horiz-adv-x="977" 
d="M404 728q-28 0 -48 19t-20 48t20 48t48 19q29 0 49 -19t20 -48t-20 -48t-49 -19zM620 728q-29 0 -49 19t-20 48t20 48t49 19q28 0 48 -19t20 -48t-20 -48t-48 -19zM84 572l-15 42.5t-12.5 26.5t-14 14.5t-18.5 7.5l-26 6v24h292v-24l-28 -6q-33 -9 -33 -38q0 -14 5 -32.5
t11 -38.5l119 -380h5l106 321l-28 86q-14 43 -25.5 59.5t-32.5 22.5l-25 6v24h291v-24l-33 -7q-31 -7 -31 -39q0 -13 4 -31t10 -38l119 -380h5l107 380q5 19 9 37.5t4 32.5q0 32 -34 39l-32 6v24h196v-24l-26 -6q-24 -6 -36.5 -30.5t-29.5 -81.5l-169 -551h-84l-134 422h-3
l-141 -422h-83z" />
    <glyph glyph-name="Wgrave" unicode="&#x1e80;" horiz-adv-x="977" 
d="M622 724l-196 41q-26 5 -36 18.5t-10 30.5q0 22 14 38.5t35 16.5t44 -17l155 -112zM84 572l-15 42.5t-12.5 26.5t-14 14.5t-18.5 7.5l-26 6v24h292v-24l-28 -6q-33 -9 -33 -38q0 -14 5 -32.5t11 -38.5l119 -380h5l106 321l-28 86q-14 43 -25.5 59.5t-32.5 22.5l-25 6v24
h291v-24l-33 -7q-31 -7 -31 -39q0 -13 4 -31t10 -38l119 -380h5l107 380q5 19 9 37.5t4 32.5q0 32 -34 39l-32 6v24h196v-24l-26 -6q-24 -6 -36.5 -30.5t-29.5 -81.5l-169 -551h-84l-134 422h-3l-141 -422h-83z" />
    <glyph glyph-name="Ycircumflex" unicode="&#x176;" horiz-adv-x="629" 
d="M172 24l42 8q12 2 19 5t11 10t5.5 19.5t1.5 33.5v183l-160 293q-13 24 -22.5 39.5t-17 25t-15.5 14.5t-18 8l-22 6v24h308v-24l-28 -6q-21 -5 -30 -14t-9 -25q0 -21 19 -56l117 -231h4l103 227q10 20 13 34t3 25q0 15 -8.5 24.5t-31.5 14.5l-29 7v24h206v-24l-21 -6
q-12 -4 -21 -10.5t-18 -18t-19 -28.5t-22 -43l-130 -273v-190q0 -21 1 -33.5t5 -19.5t11.5 -10t19.5 -5l41 -8v-24h-308v24zM207 735l128 129h45l129 -129l-10 -15l-141 53l-141 -53z" />
    <glyph glyph-name="Ygrave" unicode="&#x1ef2;" horiz-adv-x="629" 
d="M172 24l42 8q12 2 19 5t11 10t5.5 19.5t1.5 33.5v183l-160 293q-13 24 -22.5 39.5t-17 25t-15.5 14.5t-18 8l-22 6v24h308v-24l-28 -6q-21 -5 -30 -14t-9 -25q0 -21 19 -56l117 -231h4l103 227q10 20 13 34t3 25q0 15 -8.5 24.5t-31.5 14.5l-29 7v24h206v-24l-21 -6
q-12 -4 -21 -10.5t-18 -18t-19 -28.5t-22 -43l-130 -273v-190q0 -21 1 -33.5t5 -19.5t11.5 -10t19.5 -5l41 -8v-24h-308v24zM468 724l-196 41q-26 5 -36 18.5t-10 30.5q0 22 14 38.5t35 16.5t44 -17l155 -112z" />
    <glyph glyph-name="Zacute" unicode="&#x179;" horiz-adv-x="567" 
d="M195 740l155 112q23 17 44 17t35 -16.5t14 -38.5q0 -17 -10 -30.5t-36 -18.5l-196 -41zM21 39l364 612v4h-48q-56 0 -89 -1.5t-53.5 -6t-31.5 -14t-21 -24.5q-9 -13 -16.5 -25.5t-15 -26.5t-15.5 -32l-18 -41h-27l11 209h488v-39l-362 -611v-4h51q58 0 94 2t58 7t34.5 15
t24.5 25q20 26 35 57.5t36 83.5h29l-15 -229h-513v39z" />
    <glyph glyph-name="Zdotaccent" unicode="&#x17b;" horiz-adv-x="567" 
d="M21 39l364 612v4h-48q-56 0 -89 -1.5t-53.5 -6t-31.5 -14t-21 -24.5q-9 -13 -16.5 -25.5t-15 -26.5t-15.5 -32l-18 -41h-27l11 209h488v-39l-362 -611v-4h51q58 0 94 2t58 7t34.5 15t24.5 25q20 26 35 57.5t36 83.5h29l-15 -229h-513v39zM304 726q-29 0 -50 19.5
t-21 48.5t21 48.5t50 19.5q30 0 51 -19.5t21 -48.5t-21 -48.5t-51 -19.5z" />
    <glyph glyph-name="Zacute.pl" horiz-adv-x="567" 
d="M21 39l364 612v4h-48q-56 0 -89 -1.5t-53.5 -6t-31.5 -14t-21 -24.5q-9 -13 -16.5 -25.5t-15 -26.5t-15.5 -32l-18 -41h-27l11 209h488v-39l-362 -611v-4h51q58 0 94 2t58 7t34.5 15t24.5 25q20 26 35 57.5t36 83.5h29l-15 -229h-513v39zM268 737l49 119q7 19 17.5 32
t31.5 13q20 0 37.5 -15t17.5 -38q0 -11 -6.5 -22t-23.5 -23l-107 -77z" />
    <glyph glyph-name="abreve" unicode="&#x103;" horiz-adv-x="515" 
d="M169 -13q-70 0 -110 34.5t-40 98.5q0 32 12.5 55.5t35 40.5t52.5 29t65 20l118 29v93q0 29 -3 49.5t-12 33t-24.5 18.5t-40.5 6q-27 0 -37 -7.5t-12 -29.5q-4 -38 -17.5 -58t-50.5 -20q-31 0 -46 15.5t-15 40.5q0 24 16 42t43.5 29.5t65 17.5t81.5 6q92 0 139 -32
t47 -103v-289q0 -25 5.5 -37.5t19.5 -20.5q9 -5 21.5 -7t25.5 -2v-21q-13 -10 -40.5 -20t-63.5 -10q-42 0 -65 16t-30 44h-5q-19 -25 -54 -43t-81 -18zM230 49q27 0 45.5 11t26.5 26v161l-58 -6q-43 -4 -67.5 -26t-24.5 -77q0 -47 21.5 -68t56.5 -21zM249 576
q-27 0 -48.5 11.5t-37.5 31t-26.5 44.5t-13.5 53l22 6q14 -27 38 -45.5t66 -18.5q41 0 65 17.5t38 46.5l22 -6q-3 -28 -13 -53t-25.5 -44.5t-37.5 -31t-49 -11.5z" />
    <glyph glyph-name="amacron" unicode="&#x101;" horiz-adv-x="515" 
d="M169 -13q-70 0 -110 34.5t-40 98.5q0 32 12.5 55.5t35 40.5t52.5 29t65 20l118 29v93q0 29 -3 49.5t-12 33t-24.5 18.5t-40.5 6q-27 0 -37 -7.5t-12 -29.5q-4 -38 -17.5 -58t-50.5 -20q-31 0 -46 15.5t-15 40.5q0 24 16 42t43.5 29.5t65 17.5t81.5 6q92 0 139 -32
t47 -103v-289q0 -25 5.5 -37.5t19.5 -20.5q9 -5 21.5 -7t25.5 -2v-21q-13 -10 -40.5 -20t-63.5 -10q-42 0 -65 16t-30 44h-5q-19 -25 -54 -43t-81 -18zM230 49q27 0 45.5 11t26.5 26v161l-58 -6q-43 -4 -67.5 -26t-24.5 -77q0 -47 21.5 -68t56.5 -21zM123 675h250v-70h-250
v70z" />
    <glyph glyph-name="aogonek" unicode="&#x105;" horiz-adv-x="515" 
d="M404 -203q-41 0 -67.5 20t-26.5 57q0 17 8.5 33t22.5 30.5t32.5 27t39.5 23.5q-86 -1 -104 60h-5q-19 -25 -54 -43t-81 -18q-70 0 -110 34.5t-40 98.5q0 32 12.5 55.5t35 40.5t52.5 29t65 20l118 29v93q0 29 -3 49.5t-12 33t-24.5 18.5t-40.5 6q-27 0 -37 -7.5t-12 -29.5
q-4 -38 -17.5 -58t-50.5 -20q-31 0 -46 15.5t-15 40.5q0 24 16 42t43.5 29.5t65 17.5t81.5 6q92 0 139 -32t47 -103v-289q0 -25 5.5 -37.5t19.5 -20.5q9 -5 21.5 -7t25.5 -2v-21q-19 -10 -37 -22t-31.5 -27t-21.5 -34.5t-8 -43.5q0 -20 7 -29.5t18 -13.5q9 -4 20 -5t34 -1
v-21q-11 -8 -32.5 -16t-52.5 -8zM230 49q27 0 45.5 11t26.5 26v161l-58 -6q-43 -4 -67.5 -26t-24.5 -77q0 -47 21.5 -68t56.5 -21z" />
    <glyph glyph-name="aringacute" unicode="&#x1fb;" horiz-adv-x="515" 
d="M169 -13q-70 0 -110 34.5t-40 98.5q0 32 12.5 55.5t35 40.5t52.5 29t65 20l118 29v93q0 29 -3 49.5t-12 33t-24.5 18.5t-40.5 6q-27 0 -37 -7.5t-12 -29.5q-4 -38 -17.5 -58t-50.5 -20q-31 0 -46 15.5t-15 40.5q0 24 16 42t43.5 29.5t65 17.5t81.5 6q92 0 139 -32
t47 -103v-289q0 -25 5.5 -37.5t19.5 -20.5q9 -5 21.5 -7t25.5 -2v-21q-13 -10 -40.5 -20t-63.5 -10q-42 0 -65 16t-30 44h-5q-19 -25 -54 -43t-81 -18zM230 49q27 0 45.5 11t26.5 26v161l-58 -6q-43 -4 -67.5 -26t-24.5 -77q0 -47 21.5 -68t56.5 -21zM250 573
q-43 0 -69.5 26.5t-26.5 64.5q0 40 27 66t69 26t69 -26t27 -66q0 -38 -27.5 -64.5t-68.5 -26.5zM250 605q25 0 40 16.5t15 42.5t-15 43t-40 17q-24 0 -39.5 -17t-15.5 -43t15 -42.5t40 -16.5zM139 790l155 112q23 17 44 17t35 -16.5t14 -38.5q0 -17 -10 -30.5t-36 -18.5
l-196 -41z" />
    <glyph glyph-name="aeacute" unicode="&#x1fd;" horiz-adv-x="775" 
d="M543 -12q-68 0 -116 21.5t-78 62.5q-67 -85 -177 -85q-72 0 -112.5 34t-40.5 98q0 32 12.5 56.5t34.5 42t52 30t66 20.5l116 28v91q0 27 -3 47.5t-11.5 33.5t-24 19.5t-40.5 6.5q-27 0 -37 -7.5t-13 -29.5q-4 -38 -17.5 -58t-49.5 -20q-31 0 -46.5 15.5t-15.5 41.5
q0 24 16 41.5t43.5 29t63.5 17.5t77 6q60 0 96.5 -17.5t54.5 -48.5q29 31 67 48.5t85 17.5q48 0 86.5 -14.5t65.5 -45.5t41.5 -80t14.5 -119h-324q2 -59 14.5 -99t33.5 -64t50.5 -34.5t64.5 -10.5q51 0 85.5 12.5t62.5 26.5v-30q-12 -12 -30.5 -26.5t-43.5 -27.5t-56 -21.5
t-67 -8.5zM537 495q-47 0 -76.5 -44.5t-31.5 -144.5l188 10q0 94 -15.5 136.5t-64.5 42.5zM230 49q32 0 55.5 18.5t39.5 48.5q-23 54 -25 134l-56 -6q-43 -4 -67.5 -28t-24.5 -79q0 -47 21.5 -67.5t56.5 -20.5zM301 594l142 119q23 20 46 20q21 0 35 -16.5t14 -36.5
q0 -15 -9.5 -30t-32.5 -22l-188 -50z" />
    <glyph glyph-name="cacute" unicode="&#x107;" horiz-adv-x="484" 
d="M186 594l142 119q23 20 46 20q21 0 35 -16.5t14 -36.5q0 -15 -9.5 -30t-32.5 -22l-188 -50zM266 -12q-59 0 -104.5 19t-76 54t-46.5 84t-16 109q0 79 27.5 132t70 85t94.5 45.5t102 13.5q73 0 111.5 -23.5t38.5 -66.5q0 -27 -18 -45t-47 -18q-35 0 -48.5 19.5t-17.5 48.5
q-4 31 -12.5 39.5t-33.5 8.5t-48.5 -9t-42 -31.5t-29.5 -61t-11 -97.5q0 -114 37 -172.5t122 -58.5q48 0 86 12.5t64 26.5v-31q-11 -12 -29.5 -26.5t-44.5 -27t-58 -21t-70 -8.5z" />
    <glyph glyph-name="ccaron" unicode="&#x10d;" horiz-adv-x="484" 
d="M137 720l10 14l135 -63l135 63l10 -14l-123 -140h-44zM266 -12q-59 0 -104.5 19t-76 54t-46.5 84t-16 109q0 79 27.5 132t70 85t94.5 45.5t102 13.5q73 0 111.5 -23.5t38.5 -66.5q0 -27 -18 -45t-47 -18q-35 0 -48.5 19.5t-17.5 48.5q-4 31 -12.5 39.5t-33.5 8.5
t-48.5 -9t-42 -31.5t-29.5 -61t-11 -97.5q0 -114 37 -172.5t122 -58.5q48 0 86 12.5t64 26.5v-31q-11 -12 -29.5 -26.5t-44.5 -27t-58 -21t-70 -8.5z" />
    <glyph glyph-name="ccircumflex" unicode="&#x109;" horiz-adv-x="484" 
d="M137 588l122 140h45l123 -140l-10 -15l-135 64l-135 -64zM266 -12q-59 0 -104.5 19t-76 54t-46.5 84t-16 109q0 79 27.5 132t70 85t94.5 45.5t102 13.5q73 0 111.5 -23.5t38.5 -66.5q0 -27 -18 -45t-47 -18q-35 0 -48.5 19.5t-17.5 48.5q-4 31 -12.5 39.5t-33.5 8.5
t-48.5 -9t-42 -31.5t-29.5 -61t-11 -97.5q0 -114 37 -172.5t122 -58.5q48 0 86 12.5t64 26.5v-31q-11 -12 -29.5 -26.5t-44.5 -27t-58 -21t-70 -8.5z" />
    <glyph glyph-name="cdotaccent" unicode="&#x10b;" horiz-adv-x="484" 
d="M266 -12q-59 0 -104.5 19t-76 54t-46.5 84t-16 109q0 79 27.5 132t70 85t94.5 45.5t102 13.5q73 0 111.5 -23.5t38.5 -66.5q0 -27 -18 -45t-47 -18q-35 0 -48.5 19.5t-17.5 48.5q-4 31 -12.5 39.5t-33.5 8.5t-48.5 -9t-42 -31.5t-29.5 -61t-11 -97.5q0 -114 37 -172.5
t122 -58.5q48 0 86 12.5t64 26.5v-31q-11 -12 -29.5 -26.5t-44.5 -27t-58 -21t-70 -8.5zM282 575q-29 0 -50 19.5t-21 48.5t21 48.5t50 19.5q30 0 51 -19.5t21 -48.5t-21 -48.5t-51 -19.5z" />
    <glyph glyph-name="cacute.pl" horiz-adv-x="484" 
d="M266 -12q-59 0 -104.5 19t-76 54t-46.5 84t-16 109q0 79 27.5 132t70 85t94.5 45.5t102 13.5q73 0 111.5 -23.5t38.5 -66.5q0 -27 -18 -45t-47 -18q-35 0 -48.5 19.5t-17.5 48.5q-4 31 -12.5 39.5t-33.5 8.5t-48.5 -9t-42 -31.5t-29.5 -61t-11 -97.5q0 -114 37 -172.5
t122 -58.5q48 0 86 12.5t64 26.5v-31q-11 -12 -29.5 -26.5t-44.5 -27t-58 -21t-70 -8.5zM243 579l44 142q6 19 17.5 32t32.5 13q20 0 38.5 -15t18.5 -38q0 -10 -4 -20t-15 -20l-117 -104z" />
    <glyph glyph-name="dcaron" unicode="&#x10f;" horiz-adv-x="600" 
d="M571 562l6 142q1 22 12 37t37 15q21 0 35.5 -12.5t14.5 -32.5q0 -7 -2 -16.5t-10 -19.5l-77 -118zM223 -12q-36 0 -71.5 13.5t-63 43.5t-44.5 78t-17 118q0 76 23.5 130.5t62.5 89.5t90.5 51.5t107.5 16.5q25 0 46 -3t37 -8q-1 11 -1 23q-1 11 -1 24v27v45q0 16 -1.5 26
t-4.5 15.5t-9 9l-15 8.5l-42 21v20l200 19l9 -7q-1 -14 -2 -32q-1 -16 -1 -37.5v-49.5v-517q0 -18 1 -29t4.5 -17.5t9.5 -10.5t16 -8l32 -15v-19l-185 -26l-10 7l2 55h-4q-32 -26 -75 -44t-94 -18zM294 57q37 0 60.5 10t37.5 17v367q-14 15 -35 28t-51 13q-32 0 -58 -11.5
t-44.5 -37.5t-28.5 -69t-10 -106q0 -58 8.5 -98.5t25 -65.5t40.5 -36t55 -11z" />
    <glyph glyph-name="ebreve" unicode="&#x115;" horiz-adv-x="515" 
d="M276 -12q-63 0 -110.5 19t-79 54.5t-47.5 86t-16 113.5t21 113t56.5 84.5t81 53t94.5 18.5q50 0 89.5 -13.5t67.5 -43.5t43 -77.5t16 -115.5h-334q1 -62 13 -103.5t34 -67t53 -36t69 -10.5q51 0 87 12.5t65 26.5v-30q-12 -12 -31.5 -26.5t-45 -27.5t-57.5 -21.5t-69 -8.5
zM270 495q-46 0 -77 -42t-35 -138l195 10q0 45 -3.5 77.5t-13 53t-25.5 30t-41 9.5zM274 576q-27 0 -48.5 11.5t-37.5 31t-26.5 44.5t-13.5 53l22 6q14 -27 38 -45.5t66 -18.5q41 0 65 17.5t38 46.5l22 -6q-3 -28 -13 -53t-25.5 -44.5t-37.5 -31t-49 -11.5z" />
    <glyph glyph-name="ecaron" unicode="&#x11b;" horiz-adv-x="515" 
d="M276 -12q-63 0 -110.5 19t-79 54.5t-47.5 86t-16 113.5t21 113t56.5 84.5t81 53t94.5 18.5q50 0 89.5 -13.5t67.5 -43.5t43 -77.5t16 -115.5h-334q1 -62 13 -103.5t34 -67t53 -36t69 -10.5q51 0 87 12.5t65 26.5v-30q-12 -12 -31.5 -26.5t-45 -27.5t-57.5 -21.5t-69 -8.5
zM270 495q-46 0 -77 -42t-35 -138l195 10q0 45 -3.5 77.5t-13 53t-25.5 30t-41 9.5zM129 720l10 14l135 -63l135 63l10 -14l-123 -140h-44z" />
    <glyph glyph-name="edotaccent" unicode="&#x117;" horiz-adv-x="515" 
d="M276 -12q-63 0 -110.5 19t-79 54.5t-47.5 86t-16 113.5t21 113t56.5 84.5t81 53t94.5 18.5q50 0 89.5 -13.5t67.5 -43.5t43 -77.5t16 -115.5h-334q1 -62 13 -103.5t34 -67t53 -36t69 -10.5q51 0 87 12.5t65 26.5v-30q-12 -12 -31.5 -26.5t-45 -27.5t-57.5 -21.5t-69 -8.5
zM270 495q-46 0 -77 -42t-35 -138l195 10q0 45 -3.5 77.5t-13 53t-25.5 30t-41 9.5zM274 575q-29 0 -50 19.5t-21 48.5t21 48.5t50 19.5q30 0 51 -19.5t21 -48.5t-21 -48.5t-51 -19.5z" />
    <glyph glyph-name="emacron" unicode="&#x113;" horiz-adv-x="515" 
d="M276 -12q-63 0 -110.5 19t-79 54.5t-47.5 86t-16 113.5t21 113t56.5 84.5t81 53t94.5 18.5q50 0 89.5 -13.5t67.5 -43.5t43 -77.5t16 -115.5h-334q1 -62 13 -103.5t34 -67t53 -36t69 -10.5q51 0 87 12.5t65 26.5v-30q-12 -12 -31.5 -26.5t-45 -27.5t-57.5 -21.5t-69 -8.5
zM270 495q-46 0 -77 -42t-35 -138l195 10q0 45 -3.5 77.5t-13 53t-25.5 30t-41 9.5zM149 675h250v-70h-250v70z" />
    <glyph glyph-name="eogonek" unicode="&#x119;" horiz-adv-x="515" 
d="M23 261q0 63 21 113t56.5 84.5t81 53t94.5 18.5q50 0 89.5 -13.5t67.5 -43.5t43 -77.5t16 -115.5h-334q1 -62 13.5 -103.5t34.5 -66.5t52.5 -36t68.5 -11q51 0 87 12.5t65 26.5v-30q-17 -17 -42 -35.5l-44 -32.5q-30 -23 -50 -52t-20 -61q0 -20 7 -29.5t18 -13.5
q9 -4 20 -5t34 -1v-21q-11 -8 -32.5 -16t-51.5 -8q-42 0 -68.5 20t-26.5 57q0 19 10.5 36.5t28 33.5t39 29.5t42.5 24.5q-16 -5 -33 -7.5t-37 -2.5q-62 0 -109 19t-78.5 54.5t-47 86t-15.5 113.5zM270 495q-45 0 -76 -42t-36 -139l195 11q0 45 -3.5 77.5t-13 53t-25.5 30
t-41 9.5z" />
    <glyph glyph-name="gbreve" unicode="&#x11f;" horiz-adv-x="511" 
d="M209 -208q-107 0 -164.5 31.5t-57.5 86.5q0 36 32 63t89 41v4q-36 9 -57 32t-21 58q0 19 7 36t18.5 31.5t25 25.5t26.5 20v4q-35 17 -58.5 50.5t-23.5 79.5q0 43 17.5 75.5t46 54.5t66 33t77.5 11q65 0 116 -24q23 20 51.5 34t60.5 14q26 0 43 -13t17 -39
q0 -21 -11 -36.5t-35 -15.5q-22 0 -31.5 9.5t-16.5 24.5q-8 15 -23 15t-34 -9v-4q30 -17 50 -47.5t20 -71.5q0 -44 -17.5 -76t-46 -53.5t-66 -32t-77.5 -10.5q-52 0 -97 17q-9 -8 -17.5 -20.5t-8.5 -27.5q0 -17 13 -26.5t42 -9.5h170q34 0 63 -6t50 -21t33 -40.5t12 -64.5
q0 -38 -16 -74t-50.5 -65t-88 -46.5t-128.5 -17.5zM228 -173q81 0 128.5 28.5t47.5 82.5q0 33 -20.5 52t-69.5 19h-167q-17 -7 -34 -26.5t-17 -54.5q0 -48 31 -74.5t101 -26.5zM232 228q40 0 59 28t19 99q0 79 -19.5 109.5t-58.5 30.5q-40 0 -59.5 -28.5t-19.5 -100.5
q0 -78 20 -108t59 -30zM240 576q-27 0 -48.5 11.5t-37.5 31t-26.5 44.5t-13.5 53l22 6q14 -27 38 -45.5t66 -18.5q41 0 65 17.5t38 46.5l22 -6q-3 -28 -13 -53t-25.5 -44.5t-37.5 -31t-49 -11.5z" />
    <glyph glyph-name="gcircumflex" unicode="&#x11d;" horiz-adv-x="511" 
d="M95 588l122 140h45l123 -140l-10 -15l-135 64l-135 -64zM209 -208q-107 0 -164.5 31.5t-57.5 86.5q0 36 32 63t89 41v4q-36 9 -57 32t-21 58q0 19 7 36t18.5 31.5t25 25.5t26.5 20v4q-35 17 -58.5 50.5t-23.5 79.5q0 43 17.5 75.5t46 54.5t66 33t77.5 11q65 0 116 -24
q23 20 51.5 34t60.5 14q26 0 43 -13t17 -39q0 -21 -11 -36.5t-35 -15.5q-22 0 -31.5 9.5t-16.5 24.5q-8 15 -23 15t-34 -9v-4q30 -17 50 -47.5t20 -71.5q0 -44 -17.5 -76t-46 -53.5t-66 -32t-77.5 -10.5q-52 0 -97 17q-9 -8 -17.5 -20.5t-8.5 -27.5q0 -17 13 -26.5t42 -9.5
h170q34 0 63 -6t50 -21t33 -40.5t12 -64.5q0 -38 -16 -74t-50.5 -65t-88 -46.5t-128.5 -17.5zM228 -173q81 0 128.5 28.5t47.5 82.5q0 33 -20.5 52t-69.5 19h-167q-17 -7 -34 -26.5t-17 -54.5q0 -48 31 -74.5t101 -26.5zM232 228q40 0 59 28t19 99q0 79 -19.5 109.5
t-58.5 30.5q-40 0 -59.5 -28.5t-19.5 -100.5q0 -78 20 -108t59 -30z" />
    <glyph glyph-name="gcommaaccent" unicode="&#x123;" horiz-adv-x="511" 
d="M314 754q-50 -14 -66.5 -34.5t-16.5 -45.5q4 3 10.5 5.5t14.5 2.5q24 0 38.5 -14t14.5 -37q0 -22 -18.5 -38.5t-46.5 -16.5q-32 0 -53.5 20t-21.5 57q0 42 32 77t107 45zM209 -208q-107 0 -164.5 31.5t-57.5 86.5q0 36 32 63t89 41v4q-36 9 -57 32t-21 58q0 19 7 36
t18.5 31.5t25 25.5t26.5 20v4q-35 17 -58.5 50.5t-23.5 79.5q0 43 17.5 75.5t46 54.5t66 33t77.5 11q65 0 116 -24q23 20 51.5 34t60.5 14q26 0 43 -13t17 -39q0 -21 -11 -36.5t-35 -15.5q-22 0 -31.5 9.5t-16.5 24.5q-8 15 -23 15t-34 -9v-4q30 -17 50 -47.5t20 -71.5
q0 -44 -17.5 -76t-46 -53.5t-66 -32t-77.5 -10.5q-52 0 -97 17q-9 -8 -17.5 -20.5t-8.5 -27.5q0 -17 13 -26.5t42 -9.5h170q34 0 63 -6t50 -21t33 -40.5t12 -64.5q0 -38 -16 -74t-50.5 -65t-88 -46.5t-128.5 -17.5zM228 -173q81 0 128.5 28.5t47.5 82.5q0 33 -20.5 52
t-69.5 19h-167q-17 -7 -34 -26.5t-17 -54.5q0 -48 31 -74.5t101 -26.5zM232 228q40 0 59 28t19 99q0 79 -19.5 109.5t-58.5 30.5q-40 0 -59.5 -28.5t-19.5 -100.5q0 -78 20 -108t59 -30z" />
    <glyph glyph-name="gdotaccent" unicode="&#x121;" horiz-adv-x="511" 
d="M209 -208q-107 0 -164.5 31.5t-57.5 86.5q0 36 32 63t89 41v4q-36 9 -57 32t-21 58q0 19 7 36t18.5 31.5t25 25.5t26.5 20v4q-35 17 -58.5 50.5t-23.5 79.5q0 43 17.5 75.5t46 54.5t66 33t77.5 11q65 0 116 -24q23 20 51.5 34t60.5 14q26 0 43 -13t17 -39
q0 -21 -11 -36.5t-35 -15.5q-22 0 -31.5 9.5t-16.5 24.5q-8 15 -23 15t-34 -9v-4q30 -17 50 -47.5t20 -71.5q0 -44 -17.5 -76t-46 -53.5t-66 -32t-77.5 -10.5q-52 0 -97 17q-9 -8 -17.5 -20.5t-8.5 -27.5q0 -17 13 -26.5t42 -9.5h170q34 0 63 -6t50 -21t33 -40.5t12 -64.5
q0 -38 -16 -74t-50.5 -65t-88 -46.5t-128.5 -17.5zM228 -173q81 0 128.5 28.5t47.5 82.5q0 33 -20.5 52t-69.5 19h-167q-17 -7 -34 -26.5t-17 -54.5q0 -48 31 -74.5t101 -26.5zM232 228q40 0 59 28t19 99q0 79 -19.5 109.5t-58.5 30.5q-40 0 -59.5 -28.5t-19.5 -100.5
q0 -78 20 -108t59 -30zM239 575q-29 0 -50 19.5t-21 48.5t21 48.5t50 19.5q30 0 51 -19.5t21 -48.5t-21 -48.5t-51 -19.5z" />
    <glyph glyph-name="hbar" unicode="&#x127;" horiz-adv-x="608" 
d="M3 642h76q0 15 -1.5 24t-5 14.5t-9 9t-14.5 8.5l-39 19v20l197 19l10 -7q-1 -14 -2 -31q-1 -14 -1.5 -33.5t-0.5 -42.5h153v-42h-153v-43q0 -20 -0.5 -36.5t-1.5 -29.5q-1 -15 -1 -28h4q39 26 87 46t100 20q69 0 100.5 -32.5t31.5 -100.5v-310q0 -16 1.5 -25.5t5 -15
t9.5 -8.5t16 -6l32 -8v-23h-259v23l31 8q10 3 16 5.5t9 8t4 15t1 26.5v278q0 48 -18 66.5t-58 18.5q-31 0 -61 -6.5t-49 -11.5v-345q0 -17 1 -26.5t4 -15t9 -8t16 -5.5l31 -8v-23h-259v23l32 8q10 3 16.5 6t10 9t4.5 15.5t1 24.5v514h-76v42z" />
    <glyph glyph-name="hcircumflex" unicode="&#x125;" horiz-adv-x="608" 
d="M15 23l32 8q10 3 16.5 6t10 9t4.5 15.5t1 24.5v551q0 17 -1 27t-4.5 16t-9.5 9.5l-15 8.5l-39 19v20l197 19l10 -7q-1 -16 -2 -34q-1 -16 -1.5 -38t-0.5 -47v-73q0 -20 -0.5 -36.5t-1.5 -29.5q-1 -15 -1 -28h4q39 26 87 46t100 20q69 0 100.5 -32.5t31.5 -100.5v-310
q0 -16 1.5 -25.5t5 -15t9.5 -8.5t16 -6l32 -8v-23h-259v23l31 8q10 3 16 5.5t9 8t4 15t1 26.5v278q0 48 -18 66.5t-58 18.5q-31 0 -61 -6.5t-49 -11.5v-345q0 -17 1 -26.5t4 -15t9 -8t16 -5.5l31 -8v-23h-259v23zM159 799l128 129h45l129 -129l-10 -15l-141 53l-141 -53z
" />
    <glyph glyph-name="ibreve" unicode="&#x12d;" horiz-adv-x="288" 
d="M15 26l32 8q17 5 24.5 11t7.5 26v349q0 22 -5.5 30t-25.5 19l-35 20v17l195 23l9 -7q-2 -31 -3 -56.5t-1 -48.5v-346q0 -21 6.5 -26.5t25.5 -10.5l32 -8v-26h-262v26zM145 576q-27 0 -48.5 11.5t-37.5 31t-26.5 44.5t-13.5 53l22 6q14 -27 38 -45.5t66 -18.5
q41 0 65 17.5t38 46.5l22 -6q-3 -28 -13 -53t-25.5 -44.5t-37.5 -31t-49 -11.5z" />
    <glyph glyph-name="imacron" unicode="&#x12b;" horiz-adv-x="288" 
d="M15 26l32 8q17 5 24.5 11t7.5 26v349q0 22 -5.5 30t-25.5 19l-35 20v17l195 23l9 -7q-2 -31 -3 -56.5t-1 -48.5v-346q0 -21 6.5 -26.5t25.5 -10.5l32 -8v-26h-262v26zM19 675h250v-70h-250v70z" />
    <glyph glyph-name="iogonek" unicode="&#x12f;" horiz-adv-x="288" 
d="M15 23l32 8q10 3 16.5 6t10 9t4.5 15.5t1 24.5v321q0 16 -1 25t-4.5 15t-9.5 10.5t-16 10.5l-35 21v17l195 23l9 -6q-1 -14 -2.5 -41.5t-1.5 -64.5v-331q0 -32 6 -41t26 -14l32 -8v-23h-74q-17 -24 -29 -49.5t-12 -57.5q0 -37 25 -45q9 -4 20 -5t34 -1v-21
q-12 -8 -33.5 -16t-51.5 -8q-41 0 -67.5 21t-26.5 58q0 20 10.5 38t27 33.5t36.5 28.5l38 24h-159v23zM142 590q-32 0 -54.5 21t-22.5 52t22.5 52t54.5 21t54 -21t22 -52t-22 -52t-54 -21z" />
    <glyph glyph-name="itilde" unicode="&#x129;" horiz-adv-x="288" 
d="M15 26l32 8q17 5 24.5 11t7.5 26v349q0 22 -5.5 30t-25.5 19l-35 20v17l195 23l9 -7q-2 -31 -3 -56.5t-1 -48.5v-346q0 -21 6.5 -26.5t25.5 -10.5l32 -8v-26h-262v26zM-17 583l21 47.5t20.5 36.5t23.5 23t30 8t37 -3.5t41 -8t41 -8t36 -3.5q15 0 26.5 10t25.5 33l22 -11
l-20.5 -47.5t-20 -36.5t-23.5 -23t-31 -8q-17 0 -37.5 3.5t-41.5 8t-40.5 8t-35.5 3.5t-27 -10t-25 -33z" />
    <glyph glyph-name="idotaccent" horiz-adv-x="288" 
d="M15 23l32 8q10 3 16.5 6t10 9t4.5 15.5t1 24.5v321q0 16 -1 25t-4.5 15t-9.5 10.5t-16 10.5l-35 21v17l195 23l9 -6q-1 -14 -2.5 -41.5t-1.5 -64.5v-331q0 -32 6 -41t26 -14l32 -8v-23h-262v23zM142 590q-32 0 -54.5 21t-22.5 52t22.5 52t54.5 21t54 -21t22 -52t-22 -52
t-54 -21z" />
    <glyph glyph-name="jcircumflex" unicode="&#x135;" horiz-adv-x="282" 
d="M12 -210q-59 0 -86.5 23.5t-27.5 56.5q0 25 16 39t42 14q33 0 46.5 -16t17.5 -51q2 -20 5.5 -25t11.5 -5q20 0 31 15.5t11 48.5v517q0 16 -1 25t-4.5 15t-9.5 10.5t-16 10.5l-35 21v17l195 23l9 -6q-1 -14 -2.5 -42t-1.5 -64v-414q0 -55 -15.5 -95t-42.5 -66.5t-63.5 -39
t-79.5 -12.5zM-2 588l122 140h45l123 -140l-10 -15l-135 64l-135 -64z" />
    <glyph glyph-name="kcommaaccent" unicode="&#x137;" horiz-adv-x="564" 
d="M227 -227q49 13 66 33.5t16 45.5q-3 -2 -9.5 -4.5t-14.5 -2.5q-25 0 -39 14t-14 37q0 22 18.5 38t46.5 16q31 0 52.5 -20t21.5 -56q0 -21 -7.5 -41t-24 -36.5t-43 -28.5t-63.5 -16zM398 0q-51 63 -91 124l-78 124v13l113 126q27 30 35 46.5t8 27.5q0 17 -33 27l-14 4v23
h201v-23l-25 -7q-10 -3 -18.5 -7t-18 -10.5t-21 -17.5l-27.5 -27l-99 -103l44 -70.5l47 -71.5l48 -67t45 -57q14 -18 33 -24l22 -7v-23h-171zM15 23l32 8q10 3 16.5 6t10 9t4.5 15.5t1 24.5v551q0 17 -1 27t-4.5 16t-9.5 9.5l-15 8.5l-39 19v20l197 19l10 -7q-1 -16 -2 -34
q-1 -16 -1.5 -38t-0.5 -47v-544q0 -17 1 -26.5t4 -15t9 -8t15 -5.5l30 -8v-23h-257v23z" />
    <glyph glyph-name="lacute" unicode="&#x13a;" horiz-adv-x="291" 
d="M35 798l155 112q23 17 44 17t35 -16.5t14 -38.5q0 -17 -10 -30.5t-36 -18.5l-196 -41zM15 23l32 8q10 3 16.5 6t10.5 9t5 15.5t1 24.5v551q0 17 -1 26.5t-4.5 15.5t-9.5 10t-16 9l-39 19v20l198 19l10 -7q-1 -16 -2 -34q-1 -16 -1.5 -38t-0.5 -47v-544q0 -16 1 -25.5
t5 -15t10 -8.5t17 -6l32 -8v-23h-264v23z" />
    <glyph glyph-name="lcaron" unicode="&#x13e;" horiz-adv-x="291" 
d="M259 562l6 142q1 22 12 37t37 15q21 0 35.5 -12.5t14.5 -32.5q0 -7 -2 -16.5t-10 -19.5l-77 -118zM15 23l32 8q10 3 16.5 6t10.5 9t5 15.5t1 24.5v551q0 17 -1 26.5t-4.5 15.5t-9.5 10t-16 9l-39 19v20l198 19l10 -7q-1 -16 -2 -34q-1 -16 -1.5 -38t-0.5 -47v-544
q0 -16 1 -25.5t5 -15t10 -8.5t17 -6l32 -8v-23h-264v23z" />
    <glyph glyph-name="lcommaaccent" unicode="&#x13c;" horiz-adv-x="291" 
d="M71 -227q49 13 66 33.5t16 45.5q-3 -2 -9.5 -4.5t-14.5 -2.5q-25 0 -39 14t-14 37q0 22 18.5 38t46.5 16q31 0 52.5 -20t21.5 -56q0 -21 -7.5 -41t-24 -36.5t-43 -28.5t-63.5 -16zM15 23l32 8q10 3 16.5 6t10.5 9t5 15.5t1 24.5v551q0 17 -1 26.5t-4.5 15.5t-9.5 10
t-16 9l-39 19v20l198 19l10 -7q-1 -16 -2 -34q-1 -16 -1.5 -38t-0.5 -47v-544q0 -16 1 -25.5t5 -15t10 -8.5t17 -6l32 -8v-23h-264v23z" />
    <glyph glyph-name="ldot" unicode="&#x140;" horiz-adv-x="344" 
d="M15 23l32 8q10 3 16.5 6t10.5 9t5 15.5t1 24.5v551q0 17 -1 26.5t-4.5 15.5t-9.5 10t-16 9l-39 19v20l198 19l10 -7q-1 -16 -2 -34q-1 -16 -1.5 -38t-0.5 -47v-544q0 -16 1 -25.5t5 -15t10 -8.5t17 -6l32 -8v-23h-264v23zM318 280q-26 0 -44 18.5t-18 42.5q0 26 18 44
t44 18q25 0 44 -18t19 -44q0 -24 -19 -42.5t-44 -18.5z" />
    <glyph glyph-name="nacute" unicode="&#x144;" horiz-adv-x="608" 
d="M213 594l142 119q23 20 46 20q21 0 35 -16.5t14 -36.5q0 -15 -9.5 -30t-32.5 -22l-188 -50zM15 23l32 8q10 3 16.5 6t10 9t4.5 15.5t1 24.5v321q0 16 -1 25t-4.5 15t-9.5 10.5t-16 10.5l-35 21v17l188 23l9 -6l-2 -62h5q38 27 87 47.5t101 20.5q69 0 100.5 -32.5
t31.5 -100.5v-310q0 -16 1.5 -25.5t5 -15t9.5 -8.5t16 -6l32 -8v-23h-259v23l31 8q10 3 16 5.5t9 8t4 15t1 26.5v278q0 48 -18 66.5t-58 18.5q-31 0 -61 -6.5t-49 -11.5v-345q0 -17 1 -26.5t4 -15t9 -8t16 -5.5l31 -8v-23h-259v23z" />
    <glyph glyph-name="napostrophe" unicode="&#x149;" horiz-adv-x="671" 
d="M-70 489q45 21 65.5 47t19.5 57q-3 -2 -10 -5t-16 -3q-24 0 -40 16.5t-16 43.5q0 28 20 44.5t48 16.5q31 0 55 -22t24 -64q0 -57 -36 -95.5t-107 -55.5zM77 23l32 8q10 3 16.5 6t10 9t4.5 15.5t1 24.5v321q0 16 -1 25t-4.5 15t-9.5 10.5t-16 10.5l-35 21v17l188 23l9 -6
l-2 -62h5q38 27 87 47.5t101 20.5q69 0 100.5 -32.5t31.5 -100.5v-310q0 -16 1.5 -25.5t5 -15t9.5 -8.5t16 -6l32 -8v-23h-259v23l31 8q10 3 16 5.5t9 8t4 15t1 26.5v278q0 48 -18 66.5t-58 18.5q-31 0 -61 -6.5t-49 -11.5v-345q0 -17 1 -26.5t4 -15t9 -8t16 -5.5l31 -8v-23
h-259v23z" />
    <glyph glyph-name="ncaron" unicode="&#x148;" horiz-adv-x="608" 
d="M163 720l10 14l135 -63l135 63l10 -14l-123 -140h-44zM15 23l32 8q10 3 16.5 6t10 9t4.5 15.5t1 24.5v321q0 16 -1 25t-4.5 15t-9.5 10.5t-16 10.5l-35 21v17l188 23l9 -6l-2 -62h5q38 27 87 47.5t101 20.5q69 0 100.5 -32.5t31.5 -100.5v-310q0 -16 1.5 -25.5t5 -15
t9.5 -8.5t16 -6l32 -8v-23h-259v23l31 8q10 3 16 5.5t9 8t4 15t1 26.5v278q0 48 -18 66.5t-58 18.5q-31 0 -61 -6.5t-49 -11.5v-345q0 -17 1 -26.5t4 -15t9 -8t16 -5.5l31 -8v-23h-259v23z" />
    <glyph glyph-name="ncommaaccent" unicode="&#x146;" horiz-adv-x="608" 
d="M235 -227q49 13 66 33.5t16 45.5q-3 -2 -9.5 -4.5t-14.5 -2.5q-25 0 -39 14t-14 37q0 22 18.5 38t46.5 16q31 0 52.5 -20t21.5 -56q0 -21 -7.5 -41t-24 -36.5t-43 -28.5t-63.5 -16zM15 23l32 8q10 3 16.5 6t10 9t4.5 15.5t1 24.5v321q0 16 -1 25t-4.5 15t-9.5 10.5
t-16 10.5l-35 21v17l188 23l9 -6l-2 -62h5q38 27 87 47.5t101 20.5q69 0 100.5 -32.5t31.5 -100.5v-310q0 -16 1.5 -25.5t5 -15t9.5 -8.5t16 -6l32 -8v-23h-259v23l31 8q10 3 16 5.5t9 8t4 15t1 26.5v278q0 48 -18 66.5t-58 18.5q-31 0 -61 -6.5t-49 -11.5v-345
q0 -17 1 -26.5t4 -15t9 -8t16 -5.5l31 -8v-23h-259v23z" />
    <glyph glyph-name="nacute.pl" horiz-adv-x="608" 
d="M269 579l44 142q6 19 17.5 32t32.5 13q20 0 38.5 -15t18.5 -38q0 -10 -4 -20t-15 -20l-117 -104zM15 23l32 8q10 3 16.5 6t10 9t4.5 15.5t1 24.5v321q0 16 -1 25t-4.5 15t-9.5 10.5t-16 10.5l-35 21v17l188 23l9 -6l-2 -62h5q38 27 87 47.5t101 20.5q69 0 100.5 -32.5
t31.5 -100.5v-310q0 -16 1.5 -25.5t5 -15t9.5 -8.5t16 -6l32 -8v-23h-259v23l31 8q10 3 16 5.5t9 8t4 15t1 26.5v278q0 48 -18 66.5t-58 18.5q-31 0 -61 -6.5t-49 -11.5v-345q0 -17 1 -26.5t4 -15t9 -8t16 -5.5l31 -8v-23h-259v23z" />
    <glyph glyph-name="obreve" unicode="&#x14f;" horiz-adv-x="569" 
d="M284 -13q-54 0 -101.5 17t-83 50.5t-56 84t-20.5 118.5q0 69 22 120.5t59 85.5t83.5 50.5t96.5 16.5q54 0 101.5 -16.5t83 -49.5t56.5 -83.5t21 -117.5q0 -69 -22 -121t-58.5 -86.5t-84 -51.5t-97.5 -17zM288 23q27 0 48.5 10.5t36 36.5t22.5 70t8 111q0 72 -8 119
t-23 74.5t-38 38.5t-53 11q-28 0 -49.5 -11t-36 -37t-22 -68.5t-7.5 -104.5q0 -73 7.5 -121t22.5 -76.5t38 -40.5t54 -12zM284 576q-27 0 -48.5 11.5t-37.5 31t-26.5 44.5t-13.5 53l22 6q14 -27 38 -45.5t66 -18.5q41 0 65 17.5t38 46.5l22 -6q-3 -28 -13 -53t-25.5 -44.5
t-37.5 -31t-49 -11.5z" />
    <glyph glyph-name="ohungarumlaut" unicode="&#x151;" horiz-adv-x="569" 
d="M167 590l80 126q20 32 42 32q17 0 34.5 -14.5t17.5 -34.5q0 -14 -7 -27t-27 -24l-124 -74zM334 590l81 126q19 32 42 32q17 0 35 -15t18 -35q0 -12 -6.5 -24t-25.5 -23l-127 -77zM284 -13q-54 0 -101.5 17t-83 50.5t-56 84t-20.5 118.5q0 69 22 120.5t59 85.5t83.5 50.5
t96.5 16.5q54 0 101.5 -16.5t83 -49.5t56.5 -83.5t21 -117.5q0 -69 -22 -121t-58.5 -86.5t-84 -51.5t-97.5 -17zM288 23q27 0 48.5 10.5t36 36.5t22.5 70t8 111q0 72 -8 119t-23 74.5t-38 38.5t-53 11q-28 0 -49.5 -11t-36 -37t-22 -68.5t-7.5 -104.5q0 -73 7.5 -121
t22.5 -76.5t38 -40.5t54 -12z" />
    <glyph glyph-name="omacron" unicode="&#x14d;" horiz-adv-x="569" 
d="M159 675h250v-70h-250v70zM284 -13q-54 0 -101.5 17t-83 50.5t-56 84t-20.5 118.5q0 69 22 120.5t59 85.5t83.5 50.5t96.5 16.5q54 0 101.5 -16.5t83 -49.5t56.5 -83.5t21 -117.5q0 -69 -22 -121t-58.5 -86.5t-84 -51.5t-97.5 -17zM288 23q27 0 48.5 10.5t36 36.5
t22.5 70t8 111q0 72 -8 119t-23 74.5t-38 38.5t-53 11q-28 0 -49.5 -11t-36 -37t-22 -68.5t-7.5 -104.5q0 -73 7.5 -121t22.5 -76.5t38 -40.5t54 -12z" />
    <glyph glyph-name="oacute.pl" horiz-adv-x="569" 
d="M284 -13q-54 0 -101.5 17t-83 50.5t-56 84t-20.5 118.5q0 69 22 120.5t59 85.5t83.5 50.5t96.5 16.5q54 0 101.5 -16.5t83 -49.5t56.5 -83.5t21 -117.5q0 -69 -22 -121t-58.5 -86.5t-84 -51.5t-97.5 -17zM288 23q27 0 48.5 10.5t36 36.5t22.5 70t8 111q0 72 -8 119
t-23 74.5t-38 38.5t-53 11q-28 0 -49.5 -11t-36 -37t-22 -68.5t-7.5 -104.5q0 -73 7.5 -121t22.5 -76.5t38 -40.5t54 -12zM244 579l44 142q6 19 17.5 32t32.5 13q20 0 38.5 -15t18.5 -38q0 -10 -4 -20t-15 -20l-117 -104z" />
    <glyph glyph-name="oslashacute" unicode="&#x1ff;" horiz-adv-x="569" 
d="M120 37q-45 33 -71 88t-26 132q0 69 22 120.5t59 85.5t83.5 50.5t96.5 16.5q73 0 135 -31l50 77h45l-63 -97q44 -33 69.5 -86.5t25.5 -129.5q0 -69 -22 -121t-58.5 -86.5t-84 -51.5t-97.5 -17q-74 0 -132 30l-53 -81h-45zM163 256q0 -44 2.5 -77t8.5 -58l206 319
q-15 32 -40 43t-59 11q-28 0 -50 -12t-37 -40t-23 -73.5t-8 -112.5zM288 23q27 0 49 12t37.5 40.5t23.5 75t8 115.5q-1 41 -3.5 72t-7.5 55l-206 -318q16 -30 40 -41t59 -11zM188 594l142 119q23 20 46 20q21 0 35 -16.5t14 -36.5q0 -15 -9.5 -30t-32.5 -22l-188 -50z" />
    <glyph glyph-name="racute" unicode="&#x155;" horiz-adv-x="438" 
d="M151 594l142 119q23 20 46 20q21 0 35 -16.5t14 -36.5q0 -15 -9.5 -30t-32.5 -22l-188 -50zM15 23l32 8q10 3 16.5 6t10 9t4.5 15.5t1 24.5v321q0 16 -1 25t-4.5 15t-9.5 10.5t-16 10.5l-35 21v17l188 23l9 -7l-2 -66h5q12 13 28.5 26t35.5 23.5t39.5 17.5t40.5 7
q34 0 53 -17.5t19 -51.5q0 -32 -18 -49.5t-44 -17.5q-16 0 -26.5 3t-18 8t-13 13t-11.5 18q-4 9 -8 12t-11 3t-16 -3t-18 -7.5t-17.5 -10.5t-14.5 -12v-332q0 -17 1 -27t4.5 -15.5t9.5 -8t15 -4.5l40 -8v-23h-268v23z" />
    <glyph glyph-name="rcaron" unicode="&#x159;" horiz-adv-x="438" 
d="M103 720l10 14l135 -63l135 63l10 -14l-123 -140h-44zM15 23l32 8q10 3 16.5 6t10 9t4.5 15.5t1 24.5v321q0 16 -1 25t-4.5 15t-9.5 10.5t-16 10.5l-35 21v17l188 23l9 -7l-2 -66h5q12 13 28.5 26t35.5 23.5t39.5 17.5t40.5 7q34 0 53 -17.5t19 -51.5q0 -32 -18 -49.5
t-44 -17.5q-16 0 -26.5 3t-18 8t-13 13t-11.5 18q-4 9 -8 12t-11 3t-16 -3t-18 -7.5t-17.5 -10.5t-14.5 -12v-332q0 -17 1 -27t4.5 -15.5t9.5 -8t15 -4.5l40 -8v-23h-268v23z" />
    <glyph glyph-name="rcommaaccent" unicode="&#x157;" horiz-adv-x="438" 
d="M67 -227q49 13 66 33.5t16 45.5q-3 -2 -9.5 -4.5t-14.5 -2.5q-25 0 -39 14t-14 37q0 22 18.5 38t46.5 16q31 0 52.5 -20t21.5 -56q0 -21 -7.5 -41t-24 -36.5t-43 -28.5t-63.5 -16zM15 23l32 8q10 3 16.5 6t10 9t4.5 15.5t1 24.5v321q0 16 -1 25t-4.5 15t-9.5 10.5
t-16 10.5l-35 21v17l188 23l9 -7l-2 -66h5q12 13 28.5 26t35.5 23.5t39.5 17.5t40.5 7q34 0 53 -17.5t19 -51.5q0 -32 -18 -49.5t-44 -17.5q-16 0 -26.5 3t-18 8t-13 13t-11.5 18q-4 9 -8 12t-11 3t-16 -3t-18 -7.5t-17.5 -10.5t-14.5 -12v-332q0 -17 1 -27t4.5 -15.5
t9.5 -8t15 -4.5l40 -8v-23h-268v23z" />
    <glyph glyph-name="sacute" unicode="&#x15b;" horiz-adv-x="422" 
d="M119 594l142 119q23 20 46 20q21 0 35 -16.5t14 -36.5q0 -15 -9.5 -30t-32.5 -22l-188 -50zM185 -12q-43 0 -83 6t-71 16l-5 152h25q14 -29 28.5 -51.5t31.5 -45.5q15 -22 34 -31.5t54 -9.5q39 0 65 20.5t26 57.5q0 19 -6.5 33t-20.5 26t-36.5 23.5t-54.5 23.5
q-66 25 -105.5 62t-39.5 99q0 35 14.5 64.5t40.5 51t63.5 33.5t83.5 12q42 0 76 -5.5t57 -14.5l5 -132h-23q-14 26 -26.5 46t-27.5 37q-17 21 -34 27t-43 6q-38 0 -59.5 -18.5t-21.5 -51.5q0 -31 23 -54t84 -46q81 -30 120.5 -67t39.5 -95q0 -38 -14.5 -70t-41.5 -55
t-67 -36t-91 -13z" />
    <glyph glyph-name="scedilla" unicode="&#x15f;" horiz-adv-x="422" 
d="M100 -185q45 11 65 24.5t20 31.5q0 15 -14 22t-38 9l-5 8l39 78q-38 2 -73.5 8t-62.5 14l-5 152h25q14 -29 28.5 -51.5t31.5 -45.5q15 -22 34 -31.5t54 -9.5q39 0 65 20.5t26 57.5q0 19 -6.5 33t-20.5 26t-36.5 23.5t-54.5 23.5q-66 25 -105.5 62t-39.5 99
q0 35 14.5 64.5t40.5 51t63.5 33.5t83.5 12q42 0 76 -5.5t57 -14.5l5 -132h-23q-14 26 -26.5 46t-27.5 37q-17 21 -34 27t-43 6q-38 0 -59.5 -18.5t-21.5 -51.5q0 -31 23 -54t84 -46q81 -30 120.5 -67t39.5 -95q0 -36 -13 -66.5t-38 -53.5t-61.5 -37t-82.5 -16l-24 -37
q39 -4 62 -20.5t23 -43.5q0 -42 -45 -64t-120 -28v19z" />
    <glyph glyph-name="scircumflex" unicode="&#x15d;" horiz-adv-x="422" 
d="M70 588l122 140h45l123 -140l-10 -15l-135 64l-135 -64zM185 -12q-43 0 -83 6t-71 16l-5 152h25q14 -29 28.5 -51.5t31.5 -45.5q15 -22 34 -31.5t54 -9.5q39 0 65 20.5t26 57.5q0 19 -6.5 33t-20.5 26t-36.5 23.5t-54.5 23.5q-66 25 -105.5 62t-39.5 99q0 35 14.5 64.5
t40.5 51t63.5 33.5t83.5 12q42 0 76 -5.5t57 -14.5l5 -132h-23q-14 26 -26.5 46t-27.5 37q-17 21 -34 27t-43 6q-38 0 -59.5 -18.5t-21.5 -51.5q0 -31 23 -54t84 -46q81 -30 120.5 -67t39.5 -95q0 -38 -14.5 -70t-41.5 -55t-67 -36t-91 -13z" />
    <glyph glyph-name="scommaaccent" unicode="&#x219;" horiz-adv-x="422" 
d="M126 -227q49 13 66 33.5t16 45.5q-3 -2 -9.5 -4.5t-14.5 -2.5q-25 0 -39 14t-14 37q0 22 18.5 38t46.5 16q31 0 52.5 -20t21.5 -56q0 -21 -7.5 -41t-24 -36.5t-43 -28.5t-63.5 -16zM185 -12q-43 0 -83 6t-71 16l-5 152h25q14 -29 28.5 -51.5t31.5 -45.5q15 -22 34 -31.5
t54 -9.5q39 0 65 20.5t26 57.5q0 19 -6.5 33t-20.5 26t-36.5 23.5t-54.5 23.5q-66 25 -105.5 62t-39.5 99q0 35 14.5 64.5t40.5 51t63.5 33.5t83.5 12q42 0 76 -5.5t57 -14.5l5 -132h-23q-14 26 -26.5 46t-27.5 37q-17 21 -34 27t-43 6q-38 0 -59.5 -18.5t-21.5 -51.5
q0 -31 23 -54t84 -46q81 -30 120.5 -67t39.5 -95q0 -38 -14.5 -70t-41.5 -55t-67 -36t-91 -13z" />
    <glyph glyph-name="sacute.pl" horiz-adv-x="422" 
d="M185 -12q-43 0 -83 6t-71 16l-5 152h25q14 -29 28.5 -51.5t31.5 -45.5q15 -22 34 -31.5t54 -9.5q39 0 65 20.5t26 57.5q0 19 -6.5 33t-20.5 26t-36.5 23.5t-54.5 23.5q-66 25 -105.5 62t-39.5 99q0 35 14.5 64.5t40.5 51t63.5 33.5t83.5 12q42 0 76 -5.5t57 -14.5l5 -132
h-23q-14 26 -26.5 46t-27.5 37q-17 21 -34 27t-43 6q-38 0 -59.5 -18.5t-21.5 -51.5q0 -31 23 -54t84 -46q81 -30 120.5 -67t39.5 -95q0 -38 -14.5 -70t-41.5 -55t-67 -36t-91 -13zM176 579l44 142q6 19 17.5 32t32.5 13q20 0 38.5 -15t18.5 -38q0 -10 -4 -20t-15 -20
l-117 -104z" />
    <glyph glyph-name="tbar" unicode="&#x167;" horiz-adv-x="348" 
d="M3 369h65v94h-66v22q55 20 95.5 59t61.5 99h43v-128h136l-12 -52h-124v-94h131v-42h-131v-205q0 -35 14.5 -50.5t50.5 -15.5q20 0 40.5 3.5t34.5 7.5v-25q-8 -7 -21.5 -16.5t-31.5 -17.5t-41.5 -14t-51.5 -6q-60 0 -94 28.5t-34 95.5v215h-65v42z" />
    <glyph glyph-name="tcaron" unicode="&#x165;" horiz-adv-x="348" 
d="M266 562l6 142q1 22 12 37t37 15q21 0 35.5 -12.5t14.5 -32.5q0 -7 -2 -16.5t-10 -19.5l-77 -118zM196 -12q-60 0 -94 28.5t-34 95.5v351h-66v22q55 20 95.5 59t61.5 99h43v-128h136l-12 -52h-124v-341q0 -35 14.5 -50.5t50.5 -15.5q20 0 40.5 3.5t34.5 7.5v-25
q-8 -7 -21.5 -16.5t-31.5 -17.5t-41.5 -14t-51.5 -6z" />
    <glyph glyph-name="tcommaaccent" unicode="&#x163;" horiz-adv-x="348" 
d="M104 -227q49 13 66 33.5t16 45.5q-3 -2 -9.5 -4.5t-14.5 -2.5q-25 0 -39 14t-14 37q0 22 18.5 38t46.5 16q31 0 52.5 -20t21.5 -56q0 -21 -7.5 -41t-24 -36.5t-43 -28.5t-63.5 -16zM196 -12q-60 0 -94 28.5t-34 95.5v351h-66v22q55 20 95.5 59t61.5 99h43v-128h136
l-12 -52h-124v-341q0 -35 14.5 -50.5t50.5 -15.5q20 0 40.5 3.5t34.5 7.5v-25q-8 -7 -21.5 -16.5t-31.5 -17.5t-41.5 -14t-51.5 -6z" />
    <glyph glyph-name="ubreve" unicode="&#x16d;" horiz-adv-x="604" 
d="M208 -12q-61 0 -96.5 33.5t-35.5 98.5v295q0 15 -1 23.5t-4 14t-8.5 9.5t-15.5 9l-37 20v18l189 20l11 -9v-369q0 -45 19 -65t57 -20q31 0 59.5 8.5t50.5 16.5v324q0 15 -1 23.5t-4 14t-8.5 9.5t-15.5 9l-37 20v18l189 20l11 -9v-407q0 -18 1 -29t4.5 -17.5t9.5 -10.5
t16 -8l33 -15v-19l-186 -26l-9 7l2 65h-5q-39 -28 -86 -50t-102 -22zM307 576q-27 0 -48.5 11.5t-37.5 31t-26.5 44.5t-13.5 53l22 6q14 -27 38 -45.5t66 -18.5q41 0 65 17.5t38 46.5l22 -6q-3 -28 -13 -53t-25.5 -44.5t-37.5 -31t-49 -11.5z" />
    <glyph glyph-name="uhungarumlaut" unicode="&#x171;" horiz-adv-x="604" 
d="M208 -12q-61 0 -96.5 33.5t-35.5 98.5v295q0 15 -1 23.5t-4 14t-8.5 9.5t-15.5 9l-37 20v18l189 20l11 -9v-369q0 -45 19 -65t57 -20q31 0 59.5 8.5t50.5 16.5v324q0 15 -1 23.5t-4 14t-8.5 9.5t-15.5 9l-37 20v18l189 20l11 -9v-407q0 -18 1 -29t4.5 -17.5t9.5 -10.5
t16 -8l33 -15v-19l-186 -26l-9 7l2 65h-5q-39 -28 -86 -50t-102 -22zM189 590l80 126q20 32 42 32q17 0 34.5 -14.5t17.5 -34.5q0 -14 -7 -27t-27 -24l-124 -74zM356 590l81 126q19 32 42 32q17 0 35 -15t18 -35q0 -12 -6.5 -24t-25.5 -23l-127 -77z" />
    <glyph glyph-name="umacron" unicode="&#x16b;" horiz-adv-x="604" 
d="M208 -12q-61 0 -96.5 33.5t-35.5 98.5v295q0 15 -1 23.5t-4 14t-8.5 9.5t-15.5 9l-37 20v18l189 20l11 -9v-369q0 -45 19 -65t57 -20q31 0 59.5 8.5t50.5 16.5v324q0 15 -1 23.5t-4 14t-8.5 9.5t-15.5 9l-37 20v18l189 20l11 -9v-407q0 -18 1 -29t4.5 -17.5t9.5 -10.5
t16 -8l33 -15v-19l-186 -26l-9 7l2 65h-5q-39 -28 -86 -50t-102 -22zM181 675h250v-70h-250v70z" />
    <glyph glyph-name="uogonek" unicode="&#x173;" horiz-adv-x="604" 
d="M385 -203q-41 0 -67.5 20t-26.5 57q0 18 9.5 34.5t25 30.5t35 26t38.5 22l2 73h-5q-39 -28 -86 -50t-102 -22q-61 0 -96.5 33.5t-35.5 98.5v295q0 15 -1 23.5t-4 14t-8.5 9.5t-15.5 9l-37 20v18l189 20l11 -9v-369q0 -45 19 -65t57 -20q31 0 59.5 8.5t50.5 16.5v324
q0 15 -1 23.5t-4 14t-8.5 9.5t-15.5 9l-37 20v18l189 20l11 -9v-407q0 -18 1 -29t4.5 -17.5t9.5 -10.5t16 -8l33 -15v-19l-54 -6q-80 -9 -114.5 -43t-34.5 -74q0 -20 7 -29.5t18 -13.5q9 -4 20 -5t34 -1v-21q-11 -8 -32.5 -16t-52.5 -8z" />
    <glyph glyph-name="uring" unicode="&#x16f;" horiz-adv-x="604" 
d="M306 573q-43 0 -69.5 26.5t-26.5 64.5q0 40 27 66t69 26t69 -26t27 -66q0 -38 -27.5 -64.5t-68.5 -26.5zM306 605q25 0 40 16.5t15 42.5t-15 43t-40 17q-24 0 -39.5 -17t-15.5 -43t15 -42.5t40 -16.5zM208 -12q-61 0 -96.5 33.5t-35.5 98.5v295q0 15 -1 23.5t-4 14
t-8.5 9.5t-15.5 9l-37 20v18l189 20l11 -9v-369q0 -45 19 -65t57 -20q31 0 59.5 8.5t50.5 16.5v324q0 15 -1 23.5t-4 14t-8.5 9.5t-15.5 9l-37 20v18l189 20l11 -9v-407q0 -18 1 -29t4.5 -17.5t9.5 -10.5t16 -8l33 -15v-19l-186 -26l-9 7l2 65h-5q-39 -28 -86 -50t-102 -22z
" />
    <glyph glyph-name="utilde" unicode="&#x169;" horiz-adv-x="604" 
d="M208 -12q-61 0 -96.5 33.5t-35.5 98.5v295q0 15 -1 23.5t-4 14t-8.5 9.5t-15.5 9l-37 20v18l189 20l11 -9v-369q0 -45 19 -65t57 -20q31 0 59.5 8.5t50.5 16.5v324q0 15 -1 23.5t-4 14t-8.5 9.5t-15.5 9l-37 20v18l189 20l11 -9v-407q0 -18 1 -29t4.5 -17.5t9.5 -10.5
t16 -8l33 -15v-19l-186 -26l-9 7l2 65h-5q-39 -28 -86 -50t-102 -22zM144 583l21 47.5t20.5 36.5t23.5 23t30 8t37 -3.5t41 -8t41 -8t36 -3.5q15 0 26.5 10t25.5 33l22 -11l-20.5 -47.5t-20 -36.5t-23.5 -23t-31 -8q-17 0 -37.5 3.5t-41.5 8t-40.5 8t-35.5 3.5t-27 -10
t-25 -33z" />
    <glyph glyph-name="wacute" unicode="&#x1e83;" horiz-adv-x="808" 
d="M335 594l142 119q23 20 46 20q21 0 35 -16.5t14 -36.5q0 -15 -9.5 -30t-32.5 -22l-188 -50zM72 412q-7 19 -13 32t-12.5 21t-14 13t-17.5 8l-21 6v23h259v-23l-24 -6q-15 -5 -20 -12t-5 -19q0 -11 4 -25.5t10 -34.5l82 -251h5l81 234l-11 34q-14 40 -24 54.5t-27 19.5
l-21 6v23h250v-23l-27 -7q-14 -4 -19.5 -12.5t-5.5 -22.5q0 -21 12 -55l84 -251h5l80 251q6 20 9 33t3 23q0 27 -29 34l-27 7v23h176v-23l-23 -6q-10 -3 -17 -8.5t-13 -15t-12.5 -24.5t-14.5 -37l-144 -401h-70l-110 316h-3l-115 -316h-69z" />
    <glyph glyph-name="wcircumflex" unicode="&#x175;" horiz-adv-x="808" 
d="M286 588l122 140h45l123 -140l-10 -15l-135 64l-135 -64zM72 412q-7 19 -13 32t-12.5 21t-14 13t-17.5 8l-21 6v23h259v-23l-24 -6q-15 -5 -20 -12t-5 -19q0 -11 4 -25.5t10 -34.5l82 -251h5l81 234l-11 34q-14 40 -24 54.5t-27 19.5l-21 6v23h250v-23l-27 -7
q-14 -4 -19.5 -12.5t-5.5 -22.5q0 -21 12 -55l84 -251h5l80 251q6 20 9 33t3 23q0 27 -29 34l-27 7v23h176v-23l-23 -6q-10 -3 -17 -8.5t-13 -15t-12.5 -24.5t-14.5 -37l-144 -401h-70l-110 316h-3l-115 -316h-69z" />
    <glyph glyph-name="wdieresis" unicode="&#x1e85;" horiz-adv-x="808" 
d="M331 581q-28 0 -48 19t-20 48t20 48t48 19q29 0 49 -19t20 -48t-20 -48t-49 -19zM531 581q-29 0 -49 19t-20 48t20 48t49 19q28 0 48 -19t20 -48t-20 -48t-48 -19zM72 412q-7 19 -13 32t-12.5 21t-14 13t-17.5 8l-21 6v23h259v-23l-24 -6q-15 -5 -20 -12t-5 -19
q0 -11 4 -25.5t10 -34.5l82 -251h5l81 234l-11 34q-14 40 -24 54.5t-27 19.5l-21 6v23h250v-23l-27 -7q-14 -4 -19.5 -12.5t-5.5 -22.5q0 -21 12 -55l84 -251h5l80 251q6 20 9 33t3 23q0 27 -29 34l-27 7v23h176v-23l-23 -6q-10 -3 -17 -8.5t-13 -15t-12.5 -24.5t-14.5 -37
l-144 -401h-70l-110 316h-3l-115 -316h-69z" />
    <glyph glyph-name="wgrave" unicode="&#x1e81;" horiz-adv-x="808" 
d="M72 412q-7 19 -13 32t-12.5 21t-14 13t-17.5 8l-21 6v23h259v-23l-24 -6q-15 -5 -20 -12t-5 -19q0 -11 4 -25.5t10 -34.5l82 -251h5l81 234l-11 34q-14 40 -24 54.5t-27 19.5l-21 6v23h250v-23l-27 -7q-14 -4 -19.5 -12.5t-5.5 -22.5q0 -21 12 -55l84 -251h5l80 251
q6 20 9 33t3 23q0 27 -29 34l-27 7v23h176v-23l-23 -6q-10 -3 -17 -8.5t-13 -15t-12.5 -24.5t-14.5 -37l-144 -401h-70l-110 316h-3l-115 -316h-69zM341 628q-23 7 -33 22t-10 30q0 20 14 36.5t35 16.5q24 0 47 -20l142 -119l-8 -16z" />
    <glyph glyph-name="ycircumflex" unicode="&#x177;" horiz-adv-x="535" 
d="M111 -207q-45 0 -70 19t-25 49q0 26 16 40.5t42 14.5q28 0 41.5 -12t20.5 -35q3 -11 7 -15t12 -4q16 0 35 23.5t45 85.5l13 30l-177 422l-16.5 35.5t-12 21.5t-11 11.5t-14.5 6.5l-21 6v23h265v-23l-27 -7q-15 -4 -22 -11.5t-7 -23.5q0 -19 14 -55l95 -247h4l91 247
q14 39 14 59q0 14 -7.5 20.5t-22.5 10.5l-28 7v23h176v-23l-25 -7q-9 -3 -15 -8t-11.5 -14t-12 -24t-15.5 -38l-180 -447q-14 -34 -28.5 -63.5t-34 -51t-45.5 -34t-63 -12.5zM160 588l122 140h45l123 -140l-10 -15l-135 64l-135 -64z" />
    <glyph glyph-name="ygrave" unicode="&#x1ef3;" horiz-adv-x="535" 
d="M111 -207q-45 0 -70 19t-25 49q0 26 16 40.5t42 14.5q28 0 41.5 -12t20.5 -35q3 -11 7 -15t12 -4q16 0 35 23.5t45 85.5l13 30l-177 422l-16.5 35.5t-12 21.5t-11 11.5t-14.5 6.5l-21 6v23h265v-23l-27 -7q-15 -4 -22 -11.5t-7 -23.5q0 -19 14 -55l95 -247h4l91 247
q14 39 14 59q0 14 -7.5 20.5t-22.5 10.5l-28 7v23h176v-23l-25 -7q-9 -3 -15 -8t-11.5 -14t-12 -24t-15.5 -38l-180 -447q-14 -34 -28.5 -63.5t-34 -51t-45.5 -34t-63 -12.5zM216 628q-23 7 -33 22t-10 30q0 20 14 36.5t35 16.5q24 0 47 -20l142 -119l-8 -16z" />
    <glyph glyph-name="zacute" unicode="&#x17a;" horiz-adv-x="476" 
d="M158 594l142 119q23 20 46 20q21 0 35 -16.5t14 -36.5q0 -15 -9.5 -30t-32.5 -22l-188 -50zM15 34l291 440v4h-66q-28 0 -46 -1t-29.5 -4.5t-19.5 -9.5t-16 -15q-18 -22 -31 -44l-33 -57h-23l9 168h409v-32l-292 -442v-4h63q36 0 59 1.5t38 6t24 12t18 19.5q17 24 32 48
t29 53h24l-14 -177h-426v34z" />
    <glyph glyph-name="zdotaccent" unicode="&#x17c;" horiz-adv-x="476" 
d="M15 34l291 440v4h-66q-28 0 -46 -1t-29.5 -4.5t-19.5 -9.5t-16 -15q-18 -22 -31 -44l-33 -57h-23l9 168h409v-32l-292 -442v-4h63q36 0 59 1.5t38 6t24 12t18 19.5q17 24 32 48t29 53h24l-14 -177h-426v34zM253 575q-29 0 -50 19.5t-21 48.5t21 48.5t50 19.5
q30 0 51 -19.5t21 -48.5t-21 -48.5t-51 -19.5z" />
    <glyph glyph-name="zacute.pl" horiz-adv-x="476" 
d="M15 34l291 440v4h-66q-28 0 -46 -1t-29.5 -4.5t-19.5 -9.5t-16 -15q-18 -22 -31 -44l-33 -57h-23l9 168h409v-32l-292 -442v-4h63q36 0 59 1.5t38 6t24 12t18 19.5q17 24 32 48t29 53h24l-14 -177h-426v34zM223 579l44 142q6 19 17.5 32t32.5 13q20 0 38.5 -15t18.5 -38
q0 -10 -4 -20t-15 -20l-117 -104z" />
    <glyph glyph-name="oneeighth" unicode="&#x215b;" horiz-adv-x="758" 
d="M16 338l23 4q18 3 22.5 9t4.5 33v213l-49 5v23q44 8 80.5 27t59.5 46l20 -4v-310q0 -27 5.5 -33t22.5 -9l22 -4v-23h-211v23zM575 714h55l-519 -764h-55zM586 -7q-69 0 -111 25t-42 69q0 29 22.5 52t60.5 38v2q-65 34 -65 94q0 27 12 47.5t31.5 35t45.5 22t53 7.5
q25 0 49 -5t43 -16t30 -27.5t11 -38.5q0 -26 -22.5 -46.5t-50.5 -31.5v-3q44 -20 66 -44.5t22 -62.5q0 -24 -11.5 -45.5t-32.5 -37t-49.5 -25t-61.5 -9.5zM626 230q23 23 23 63q0 32 -15.5 47.5t-44.5 15.5q-26 0 -43.5 -13t-17.5 -36q0 -24 21.5 -40t76.5 -37zM592 22
q29 0 48.5 13.5t19.5 41.5q0 13 -6 23.5t-20 20t-37 20t-57 24.5q-11 -12 -18 -28.5t-7 -36.5q0 -78 77 -78z" />
    <glyph glyph-name="onethird" unicode="&#x2153;" horiz-adv-x="759" 
d="M16 338l23 4q18 3 22.5 9t4.5 33v213l-49 5v23q44 8 80.5 27t59.5 46l20 -4v-310q0 -27 5.5 -33t22.5 -9l22 -4v-23h-211v23zM578 714h55l-519 -764h-55zM576 -7q-63 0 -95 18.5t-32 50.5q0 19 11 28.5t29 9.5q20 0 32.5 -10t17.5 -39q4 -20 10.5 -25.5t27.5 -5.5
q32 0 45 22.5t13 61.5q0 48 -19 62.5t-54 14.5h-28v31h24q35 0 51.5 16.5t16.5 58.5q0 38 -12.5 54t-33.5 16q-15 0 -20.5 -4.5t-7.5 -19.5q-3 -23 -13 -36t-35 -13q-19 0 -30 10.5t-11 26.5q0 30 35 47t92 17q63 0 99 -23t36 -68q0 -30 -22.5 -55.5t-77.5 -35.5v-2
q51 -3 83.5 -26t32.5 -70q0 -48 -39.5 -80t-125.5 -32z" />
    <glyph glyph-name="threeeighths" unicode="&#x215c;" horiz-adv-x="804" 
d="M150 309q-63 0 -95 18.5t-32 49.5q0 20 11 29t29 9q20 0 32.5 -10t17.5 -38q4 -20 10.5 -26t27.5 -6q32 0 45 22.5t13 62.5q0 47 -19.5 61.5t-53.5 14.5h-28v32h24q35 0 51.5 16t16.5 58q0 38 -12 54.5t-33 16.5q-16 0 -21.5 -4.5t-7.5 -20.5q-3 -23 -13 -35.5t-35 -12.5
q-19 0 -29.5 10.5t-10.5 25.5q0 30 34.5 47t91.5 17q63 0 99 -23t36 -67q0 -31 -22.5 -56.5t-77.5 -35.5v-2q51 -3 84 -26t33 -70q0 -48 -39.5 -79.5t-126.5 -31.5zM630 714h55l-518 -764h-55zM632 -7q-69 0 -111 25t-42 69q0 29 22.5 52t60.5 38v2q-65 34 -65 94
q0 27 12 47.5t31.5 35t45.5 22t53 7.5q25 0 49 -5t43 -16t30 -27.5t11 -38.5q0 -26 -22.5 -46.5t-50.5 -31.5v-3q44 -20 66 -44.5t22 -62.5q0 -24 -11.5 -45.5t-32.5 -37t-49.5 -25t-61.5 -9.5zM672 230q10 11 16.5 26.5t6.5 36.5q0 32 -16 47.5t-45 15.5q-26 0 -43 -13
t-17 -36q0 -24 21.5 -40t76.5 -37zM638 22q29 0 48.5 13.5t19.5 41.5q0 13 -6 23.5t-20 20t-37 20t-57 24.5q-11 -12 -18 -28.5t-7 -36.5q0 -78 77 -78z" />
    <glyph glyph-name="fiveeighths" unicode="&#x215d;" horiz-adv-x="785" 
d="M126 309q-59 0 -87.5 19.5t-28.5 47.5q0 17 11.5 26.5t29.5 9.5q23 0 33 -11.5t15 -36.5q4 -17 10 -22.5t24 -5.5q34 0 50.5 18.5t16.5 50.5q0 40 -26 58t-69 18q-21 0 -35.5 -3t-24.5 -6l-9 5l24 216h164q14 0 19.5 6.5t16.5 26.5h21l-12 -106h-187l-7 -67q8 3 24 6
t42 3q67 0 108.5 -29.5t41.5 -91.5q0 -27 -11 -51t-32 -42t-52 -28.5t-70 -10.5zM609 714h55l-518 -764h-55zM613 -7q-69 0 -111 25t-42 69q0 29 22.5 52t60.5 38v2q-65 34 -65 94q0 27 12 47.5t31.5 35t45.5 22t53 7.5q25 0 49 -5t43 -16t30 -27.5t11 -38.5
q0 -26 -22.5 -46.5t-50.5 -31.5v-3q44 -20 66 -44.5t22 -62.5q0 -24 -11.5 -45.5t-32.5 -37t-49.5 -25t-61.5 -9.5zM653 230q10 11 16.5 26.5t6.5 36.5q0 32 -16 47.5t-45 15.5q-26 0 -43 -13t-17 -36q0 -24 21.5 -40t76.5 -37zM619 22q29 0 48.5 13.5t19.5 41.5
q0 13 -6 23.5t-20 20t-37 20t-57 24.5q-11 -12 -18 -28.5t-7 -36.5q0 -78 77 -78z" />
    <glyph glyph-name="twothirds" unicode="&#x2154;" horiz-adv-x="815" 
d="M17 365q39 30 66 53.5t54 52.5q28 30 43 61t15 70q0 41 -13.5 55.5t-38.5 14.5q-16 0 -20 -5.5t-6 -23.5q-4 -30 -15.5 -43t-37.5 -13q-20 0 -31.5 11t-11.5 29q0 29 35.5 51t97.5 22q67 0 108.5 -27.5t41.5 -81.5q0 -50 -52.5 -97t-152.5 -98v-3h132q10 0 16.5 2t11.5 7
t9.5 14t10.5 24h22l-8 -125h-276v50zM638 714h55l-519 -764h-55zM632 -7q-63 0 -95 18.5t-32 50.5q0 19 11 28.5t29 9.5q20 0 32.5 -10t17.5 -39q4 -20 10.5 -25.5t27.5 -5.5q32 0 45 22.5t13 61.5q0 48 -19 62.5t-54 14.5h-28v31h24q35 0 51.5 16.5t16.5 58.5q0 38 -12 54
t-34 16q-15 0 -20.5 -4.5t-7.5 -19.5q-3 -23 -13 -36t-35 -13q-19 0 -29.5 10.5t-10.5 26.5q0 30 34.5 47t91.5 17q63 0 99 -23t36 -68q0 -30 -22.5 -55.5t-77.5 -35.5v-2q51 -3 83.5 -26t32.5 -70q0 -48 -39.5 -80t-125.5 -32z" />
    <glyph glyph-name="seveneighths" unicode="&#x215e;" horiz-adv-x="747" 
d="M48 315q10 48 28.5 89.5t42.5 78.5t52.5 70l58.5 65h-160q-9 0 -15 -1.5t-10.5 -6t-9 -14t-10.5 -25.5h-22l11 122h267v-47q-59 -77 -84.5 -157t-32.5 -174h-116zM555 714h55l-518 -764h-55zM575 -7q-69 0 -111 25t-42 69q0 29 22.5 52t60.5 38v2q-32 17 -49 40t-17 54
q0 27 12 47.5t32 35t46 22t53 7.5q25 0 49 -5t43 -16t30 -27.5t11 -38.5q0 -26 -22.5 -46.5t-51.5 -31.5v-3q45 -20 67 -44.5t22 -62.5q0 -24 -11.5 -45.5t-32.5 -37t-49.5 -25t-61.5 -9.5zM615 230q10 11 16.5 26.5t6.5 36.5q0 32 -16 47.5t-45 15.5q-26 0 -43 -13t-17 -36
q0 -24 21.5 -40t76.5 -37zM581 22q29 0 48.5 13.5t19.5 41.5q0 13 -6 23.5t-20 20t-37 20t-57 24.5q-25 -25 -25 -65q0 -78 77 -78z" />
    <glyph glyph-name="uni24C5" unicode="&#x24c5;" horiz-adv-x="788" 
d="M416 147h-191v19l12 3q15 4 20.5 11.5t5.5 36.5v259q0 15 -1 23t-4 12.5t-8 7t-13 4.5l-12 4v18h184q166 0 166 -118q0 -55 -33 -88t-93 -33q-15 0 -28.5 2t-21.5 5v20q30 3 47 22t17 65q0 54 -14.5 76t-49.5 22q-6 0 -15 -1t-17 -4v-295q0 -16 1 -24.5t4 -13t8.5 -6.5
t14.5 -4l21 -4v-19zM393 -16q-76 0 -141 28.5t-113 77.5t-75 114.5t-27 139.5t27 139.5t75 114t113 76.5t141 28q75 0 140.5 -28t114 -76.5t76 -114t27.5 -139.5t-27.5 -139.5t-76 -114.5t-114 -77.5t-140.5 -28.5zM393 22q68 0 125.5 25.5t99 69t64.5 102.5t23 125
t-23 124.5t-64.5 102t-99 69t-125.5 25.5q-69 0 -126 -25.5t-98.5 -69t-64.5 -102t-23 -124.5t23 -125t64.5 -102.5t98.5 -69t126 -25.5z" />
    <glyph glyph-name="dollar.old" horiz-adv-x="491" 
d="M220 -13q-108 3 -156.5 35t-48.5 82q0 24 15 39t41 15q30 0 46 -17t21 -63q2 -27 17 -40.5t65 -15.5v252q-53 21 -88.5 43.5t-58 48t-32 54t-9.5 62.5q0 37 14 69t39.5 56.5t61 40t78.5 19.5v75h39v-73q49 -1 84.5 -11t58 -25t33 -33.5t10.5 -37.5q0 -25 -16.5 -40
t-42.5 -15q-30 0 -45.5 18t-20.5 63q-3 24 -15 34t-46 12v-234q55 -23 93.5 -46t62 -48.5t34 -55t10.5 -66.5q0 -39 -15 -73t-42 -60.5t-65 -43t-83 -19.5v-100h-39v99zM356 135q0 39 -21 68t-76 55v-235q51 6 74 36t23 76zM131 533q0 -39 20.5 -65t73.5 -51v215
q-46 -6 -70 -33.5t-24 -65.5z" />
    <glyph glyph-name="Euro.old" horiz-adv-x="570" 
d="M16 403h67q10 70 38.5 120.5t67.5 83t86.5 48t96.5 15.5q37 0 69.5 -7t56 -21t37 -34t13.5 -45q0 -26 -16.5 -41.5t-43.5 -15.5q-30 0 -47 18.5t-22 63.5q-4 28 -15.5 37t-45.5 9q-30 0 -54 -12t-42 -39.5t-29 -71.5t-14 -108h209l-8 -40h-202v-17v-29.5t1 -27.5h187
l-6 -40h-178q6 -54 19.5 -91.5t35 -60t51.5 -32.5t69 -10q45 0 80.5 13.5t63.5 30.5v-32q-12 -13 -30 -27t-42.5 -25.5t-55 -19t-67.5 -7.5q-53 0 -97.5 16t-79 48t-57.5 81.5t-31 115.5h-65v40h62q-1 8 -1 16.5v17.5v20.5t1 19.5h-62v40z" />
    <glyph glyph-name="sterling.old" horiz-adv-x="508" 
d="M40 360h56q-8 29 -14.5 58.5t-6.5 55.5q0 43 16.5 79.5t47 62t75.5 40t102 14.5q77 0 120.5 -25t43.5 -70q0 -27 -16.5 -42.5t-41.5 -15.5q-31 0 -46.5 18.5t-23.5 55.5q-4 14 -7.5 22.5t-8 13t-11.5 6t-17 1.5q-45 0 -69 -28.5t-24 -99.5q0 -29 4 -68.5t9 -77.5h152v-39
h-149q1 -10 1.5 -18t0.5 -16q0 -61 -31 -103t-88 -76v-6h264q15 0 25 2t18 10t16 22.5t19 40.5h25l-22 -177h-439v72q52 32 78.5 67.5t26.5 89.5q0 19 -5 42.5t-13 49.5h-67v39z" />
    <glyph glyph-name="yen.old" horiz-adv-x="582" 
d="M56 327h157l-125 222q-12 23 -20.5 37t-15.5 22.5t-13 12.5t-15 7l-20 7v23h285v-23l-24 -6q-22 -5 -30.5 -13.5t-8.5 -22.5q0 -18 18 -54l95 -189h4l85 185q17 35 17 57q0 14 -8.5 22t-30.5 14l-22 7v23h188v-23l-19 -7q-11 -3 -18.5 -8t-15 -15t-16 -25.5t-20.5 -39.5
l-106 -213h157v-40h-169v-69h169v-39h-169v-84q0 -20 1 -31.5t5 -18t11 -9t19 -5.5l38 -8v-23h-286v23l38 8q12 3 19 5.5t11 9t5.5 18t1.5 31.5v84h-172v39h172v69h-172v40z" />
    <glyph glyph-name="zero.old" 
d="M298 -13q-50 0 -98 17.5t-86 54t-61.5 93t-23.5 134.5q0 82 25 142t65 99t89 57.5t97 18.5t96 -18.5t86.5 -56t62.5 -95t24 -135.5q0 -82 -25.5 -140.5t-65 -96.5t-88.5 -56t-97 -18zM302 24q69 0 100 60.5t31 199.5q0 80 -8 134t-24.5 87t-41 47t-57.5 14
q-34 0 -59 -14.5t-41 -46.5t-24 -82.5t-8 -122.5q0 -77 8.5 -130t25 -85.5t41 -46.5t57.5 -14z" />
    <glyph glyph-name="one.old" horiz-adv-x="360" 
d="M26 24l45 7q12 2 19.5 5t12 9t6.5 17t2 28v381l-84 3v24q66 13 116 36.5t87 61.5l20 -5v-501q0 -17 2 -28t6.5 -17t12 -9t17.5 -5l42 -7v-24h-304v24z" />
    <glyph glyph-name="two.old" horiz-adv-x="495" 
d="M449 0h-435v66l104.5 80.5t88.5 77.5q29 30 50 57t34.5 53.5t19.5 53.5t6 56q0 33 -8 56.5t-22 38t-32.5 21.5t-39.5 7q-34 0 -44.5 -11t-12.5 -34q-3 -42 -20 -61.5t-50 -19.5q-29 0 -44 16.5t-15 42.5q0 19 12 37.5t36.5 33t61.5 23.5t88 9q106 0 166.5 -45t60.5 -125
q0 -44 -20 -83.5t-59.5 -78.5t-99.5 -79t-140 -84v-4h324z" />
    <glyph glyph-name="three.old" horiz-adv-x="518" 
d="M210 -125q-102 0 -149.5 31.5t-47.5 79.5q0 23 15 40t43 17q30 0 46.5 -16.5t23.5 -53.5q4 -18 8 -30t12 -18.5t20.5 -9.5t32.5 -3q67 0 93.5 47.5t26.5 128.5q0 80 -30 113t-102 33h-51v39h42q67 0 96.5 34t29.5 114q0 146 -101 146q-30 0 -39 -10.5t-13 -37.5
q-4 -45 -22.5 -62t-49.5 -17q-27 0 -43 15t-16 41q0 21 12 40.5t36 34.5t61 23.5t87 8.5q55 0 97.5 -12.5t71.5 -35t44.5 -54t15.5 -68.5q0 -60 -38.5 -106t-127.5 -65v-3q88 -8 140 -52t52 -122q0 -41 -16.5 -78.5t-51 -67t-86.5 -47t-122 -17.5z" />
    <glyph glyph-name="four.old" horiz-adv-x="562" 
d="M303 76h-287v47l342 467h83v-449h106l-10 -65h-96v-188h-138v188zM303 141v302h-3l-220 -299v-3h223z" />
    <glyph glyph-name="five.old" horiz-adv-x="512" 
d="M448 481h-312l-17 -153q22 6 51 10t59 4q54 0 99.5 -15t78.5 -43.5t51 -70t18 -95.5q0 -52 -21 -96.5t-57.5 -77t-86.5 -51t-108 -18.5q-83 0 -133.5 28t-50.5 78q0 27 16 42.5t44 15.5q32 0 48.5 -16.5t23.5 -60.5q5 -29 17 -39.5t45 -10.5q30 0 56 11t45.5 32t31 51.5
t11.5 69.5q0 75 -47.5 112t-123.5 37q-35 0 -64.5 -5t-50.5 -13l-9 8l41 375h358z" />
    <glyph glyph-name="six.old" horiz-adv-x="576" 
d="M293 -13q-59 0 -106.5 20t-82 60t-53 100t-18.5 141q0 102 26.5 177t72.5 124.5t107.5 73.5t131.5 24q79 0 120.5 -27.5t41.5 -66.5q0 -28 -16 -43t-44 -15q-31 0 -47.5 16t-22.5 55q-5 25 -13 34.5t-33 9.5q-31 0 -61.5 -13.5t-55.5 -47.5t-42 -90.5t-21 -143.5
q32 21 70.5 34t86.5 13q47 0 86 -13t66.5 -39.5t42.5 -65t15 -89.5q0 -49 -17.5 -91t-50 -72.5t-79 -47.5t-104.5 -17zM296 24q59 0 84 45t25 136q0 86 -29 125.5t-89 39.5q-33 0 -60.5 -7.5t-50.5 -21.5v-32q0 -63 3.5 -115.5t15.5 -90t36 -58.5t65 -21z" />
    <glyph glyph-name="seven.old" horiz-adv-x="492" 
d="M107 -112q21 94 55 177t75.5 156t88.5 137.5t94 121.5h-309q-15 0 -24 -2.5t-16 -10.5t-13.5 -23t-15.5 -40h-24l17 186h451v-63q-50 -72 -88 -145t-65.5 -151t-46 -163t-30.5 -180h-149v0z" />
    <glyph glyph-name="eight.old" horiz-adv-x="560" 
d="M279 -13q-48 0 -93 11t-79 32.5t-54.5 54t-20.5 76.5q0 56 39.5 98.5t113.5 76.5v3q-60 35 -91.5 79t-31.5 99q0 40 17 74.5t47 60t71 40.5t89 15q40 0 78.5 -10t69 -30.5t49 -50.5t18.5 -69q0 -26 -10.5 -48t-28.5 -41t-42.5 -35t-52.5 -31v-3q37 -21 67 -41.5t50 -43.5
t31 -51t11 -62q0 -41 -18 -77.5t-50.5 -65t-78 -45t-100.5 -16.5zM285 24q62 0 98 31.5t36 88.5q0 29 -15 51.5t-42.5 42.5t-65.5 40l-84 44l-25 -25.5t-23.5 -31.5t-17.5 -40.5t-7 -51.5q0 -72 38.5 -110.5t107.5 -38.5zM338 405l22 25t19.5 29.5t14 37t5.5 46.5
q0 63 -32.5 95t-85.5 32q-54 0 -85.5 -29t-31.5 -77q0 -26 14 -48t37.5 -40.5t55 -36t67.5 -34.5z" />
    <glyph glyph-name="nine.old" horiz-adv-x="575" 
d="M279 603q55 0 103.5 -19t83.5 -58.5t55.5 -100t20.5 -144.5q0 -106 -26.5 -183t-72 -126.5t-106 -73t-128.5 -23.5q-78 0 -120.5 27t-42.5 69q0 25 15.5 41.5t44.5 16.5q30 0 46.5 -16t25.5 -58q5 -23 13 -33t32 -10q37 0 68 15.5t54 51t36.5 93.5t16.5 143
q-29 -20 -69 -35t-86 -15t-85 13.5t-67 39.5t-44 64t-16 88q0 51 17.5 93.5t50 73.5t78 48.5t102.5 17.5zM277 566q-58 0 -82.5 -48.5t-24.5 -136.5q0 -84 30 -123.5t87 -39.5q65 0 112 30v32q0 67 -4 120.5t-17 90t-37 56t-64 19.5z" />
    <glyph glyph-name="percent.old" horiz-adv-x="730" 
d="M190 358q16 0 28.5 6.5t20 22.5t11.5 42t4 64q0 83 -16 114.5t-48 31.5q-16 0 -28 -7t-20.5 -23t-12.5 -42.5t-4 -65.5q0 -80 16.5 -111.5t48.5 -31.5zM188 327q-30 0 -58.5 10t-51.5 30.5t-37 52t-14 73.5q0 46 16 79t40.5 54.5t53.5 31.5t55 10q28 0 57 -10t52 -31
t38 -52.5t15 -74.5q0 -45 -15.5 -77.5t-40 -53.5t-54 -31.5t-56.5 -10.5zM574 678h53l-491 -726h-52zM540 18q32 0 48 30t16 106q0 41 -4 69t-12 45t-20 24t-28 7q-32 0 -48.5 -29t-16.5 -107q0 -81 15.5 -113t49.5 -32zM537 -12q-29 0 -58 10t-52 30.5t-37 51.5t-14 74
q0 46 16 79t41 54.5t54 31.5t55 10q28 0 56.5 -10.5t52 -31t38.5 -52t15 -73.5q0 -45 -15.5 -78t-40 -54t-54 -31.5t-57.5 -10.5z" />
    <glyph glyph-name="perthousand.old" horiz-adv-x="1095" 
d="M188 327q-30 0 -58.5 10t-51.5 30.5t-37 52t-14 73.5q0 46 16 79t40.5 54.5t53.5 31.5t55 10q28 0 57 -10t52 -31t38 -52.5t15 -74.5q0 -45 -15.5 -77.5t-40 -53.5t-54 -31.5t-56.5 -10.5zM190 358q16 0 28.5 6.5t20 22.5t11.5 42t4 64q0 83 -16 114.5t-48 31.5
q-16 0 -28 -7t-20.5 -23t-12.5 -42.5t-4 -65.5q0 -80 16.5 -111.5t48.5 -31.5zM537 -12q-29 0 -58 10t-52 30.5t-37 51.5t-14 74q0 46 16 79t41 54.5t54 31.5t55 10q28 0 56.5 -10.5t52 -31t38.5 -52t15 -73.5q0 -45 -15.5 -78t-40 -54t-54 -31.5t-57.5 -10.5zM540 18
q32 0 48 30t16 106q0 41 -4 69t-12 45t-20 24t-28 7q-32 0 -48.5 -29t-16.5 -107q0 -81 15.5 -113t49.5 -32zM902 -12q-29 0 -58 10t-52 30.5t-37.5 51.5t-14.5 74q0 46 16 79t41 54.5t53.5 31.5t54.5 10q28 0 57.5 -10.5t52.5 -31t38 -52t15 -73.5q0 -45 -15.5 -78t-40 -54
t-54 -31.5t-56.5 -10.5zM903 18q34 0 49.5 30t15.5 106q0 82 -16 113.5t-49 31.5q-32 0 -47.5 -29t-15.5 -107q0 -81 15.5 -113t47.5 -32zM574 678h53l-491 -726h-52z" />
    <glyph glyph-name="plus.old" horiz-adv-x="464" 
d="M202 269h-166v52h166v182h60v-182h166v-52h-166v-181h-60v181z" />
    <glyph glyph-name="minus.old" horiz-adv-x="464" 
d="M36 321h392v-52h-392v52z" />
    <glyph glyph-name="multiply.old" horiz-adv-x="438" 
d="M40 143l142 149l-139 147l40 38l136 -145l138 145l38 -38l-138 -147l141 -149l-39 -38l-140 148l-139 -148z" />
    </font>
</defs>
</svg>
