<?xml version="1.0" encoding="UTF-8" standalone="no"?>
<svg width="300px" height="300px" viewBox="0 0 300 300" version="1.1" xmlns="http://www.w3.org/2000/svg" xmlns:xlink="http://www.w3.org/1999/xlink" style="background: #FFFFFF;">
    <!-- Generator: Sketch 3.7.2 (28276) - http://www.bohemiancoding.com/sketch -->
    <title>ss-logo-white-bg</title>
    <desc>Created with Sketch.</desc>
    <defs></defs>
    <g id="Page-1" stroke="none" stroke-width="1" fill="none" fill-rule="evenodd">
        <g id="ss-logo-white-bg" fill="#916A70">
            <path d="M239.108799,96.0224719 L179.592332,96.0224719 C173.279518,85.9001925 162.913447,80.8391167 148.493915,80.8391167 C139.946169,80.8391167 133.108074,82.6077636 127.979426,86.1451104 C124.20928,88.7454671 121.8249,92.0379018 120.826256,96.0224719 L62.3891909,96.0224719 C64.695517,79.2095045 72.5772813,65.2441748 86.0346223,54.126183 C102.275341,40.7086606 122.972788,34 148.127585,34 C174.503489,34 195.689371,40.4037215 211.685868,53.2113565 C225.86079,64.5605425 235.0017,78.8307993 239.108799,96.0224719 Z M62.6275402,118.988764 L140.937745,118.988764 L182.92895,128.776025 C217.554541,137.051639 237.121008,154.463234 241.628744,181.011236 L171.0477,181.011236 C168.643426,180.089645 165.887794,179.266763 162.780792,178.542587 L119.553832,169.394322 C85.920487,161.952024 66.9451841,145.150309 62.6275402,118.988764 Z M58,203.977528 L120.994788,203.977528 C127.083118,213.855852 137.958971,218.794953 153.622537,218.794953 C162.902948,218.794953 170.290532,216.90433 175.785512,213.123028 C179.306095,210.700383 181.698859,207.651897 182.963825,203.977528 L242,203.977528 C239.763706,221.54049 231.673861,235.749769 217.730316,246.605678 C201.123266,259.535291 180.120546,266 154.721528,266 C127.857182,266 105.694428,259.84023 88.2326033,247.520505 C72.9931792,236.768735 62.9157158,222.254525 58,203.977528 Z" id="Combined-Shape"></path>
        </g>
    </g>
</svg>