<?xml version="1.0" standalone="no"?>
<!DOCTYPE svg PUBLIC "-//W3C//DTD SVG 20010904//EN"
 "http://www.w3.org/TR/2001/REC-SVG-20010904/DTD/svg10.dtd">
<svg version="1.0" xmlns="http://www.w3.org/2000/svg"
 width="300.000000pt" height="300.000000pt" viewBox="0 0 300.000000 300.000000"
 preserveAspectRatio="xMidYMid meet">
<metadata>
Created by potrace 1.11, written by Peter Selinger 2001-2013
</metadata>
<g transform="translate(0.000000,300.000000) scale(0.100000,-0.100000)"
fill="#000000" stroke="none">
<path d="M1359 2656 c-2 -2 -29 -7 -59 -10 -127 -15 -278 -73 -385 -146 -141
-98 -259 -269 -281 -408 -3 -21 -8 -40 -11 -44 -2 -5 128 -8 289 -8 l293 1 26
43 c20 32 41 51 85 72 54 26 69 29 164 29 138 0 194 -19 269 -91 l55 -54 293
0 c161 0 293 2 293 3 0 2 -9 33 -21 68 -66 203 -227 374 -440 466 -120 52
-240 75 -415 79 -83 2 -153 2 -155 0z"/>
<path d="M634 1776 c13 -80 66 -182 131 -250 110 -116 242 -177 520 -238 99
-21 230 -51 290 -66 107 -25 120 -26 477 -29 l367 -3 -19 64 c-10 36 -31 89
-47 118 -38 72 -143 176 -230 227 -64 38 -230 102 -295 115 -12 2 -112 25
-221 50 l-197 46 -391 0 -390 0 5 -34z"/>
<path d="M592 923 c53 -194 223 -382 432 -478 253 -118 652 -137 905 -44 116
43 239 117 311 188 85 85 153 214 174 334 l7 37 -295 0 -294 0 -22 -36 c-42
-68 -129 -104 -257 -109 -141 -4 -236 28 -309 105 l-38 40 -312 0 -312 0 10
-37z"/>
</g>
</svg>
