<?xml version="1.0" standalone="no"?>
<!DOCTYPE svg PUBLIC "-//W3C//DTD SVG 20010904//EN"
 "http://www.w3.org/TR/2001/REC-SVG-20010904/DTD/svg10.dtd">
<svg version="1.0" xmlns="http://www.w3.org/2000/svg"
 width="90.000000pt" height="90.000000pt" viewBox="0 0 90.000000 90.000000"
 preserveAspectRatio="xMidYMid meet">
<metadata>
Created by potrace 1.11, written by Peter Selinger 2001-2013
</metadata>
<g transform="translate(0.000000,90.000000) scale(0.100000,-0.100000)"
fill="#000000" stroke="none">
<path d="M0 545 l0 -345 105 0 105 0 0 -100 0 -100 345 0 345 0 0 345 0 345
-115 0 -115 0 0 100 0 100 -335 0 -335 0 0 -345z m580 0 l0 -245 -240 0 -240
0 0 245 0 245 240 0 240 0 0 -245z m220 -200 l0 -245 -245 0 -245 0 0 50 0 50
190 0 190 0 0 195 0 195 55 0 55 0 0 -245z"/>
</g>
</svg>
