<?xml version="1.0" standalone="no"?>
<!DOCTYPE svg PUBLIC "-//W3C//DTD SVG 20010904//EN"
 "http://www.w3.org/TR/2001/REC-SVG-20010904/DTD/svg10.dtd">
<svg version="1.0" xmlns="http://www.w3.org/2000/svg"
 width="300.000000pt" height="300.000000pt" viewBox="0 0 300.000000 300.000000"
 preserveAspectRatio="xMidYMid meet">
<metadata>
Created by potrace 1.11, written by Peter Selinger 2001-2013
</metadata>
<g transform="translate(0.000000,300.000000) scale(0.100000,-0.100000)"
fill="#000000" stroke="none">
<path d="M1360 2655 c-8 -2 -48 -9 -89 -15 -212 -35 -420 -155 -527 -305 -53
-76 -101 -184 -110 -249 l-7 -46 290 0 291 0 12 31 c42 100 241 149 405 98 53
-16 78 -31 123 -75 l56 -54 293 0 293 0 -6 28 c-15 59 -62 160 -104 222 -115
171 -297 291 -516 340 -82 19 -360 36 -404 25z"/>
<path d="M630 1793 c1 -41 51 -157 95 -219 48 -67 132 -137 215 -179 90 -45
193 -75 447 -129 142 -31 274 -60 293 -66 21 -6 177 -10 387 -10 l351 0 -14
52 c-56 214 -235 374 -505 451 -30 9 -152 39 -272 66 l-217 51 -390 0 c-365 0
-390 -1 -390 -17z"/>
<path d="M580 955 c0 -19 57 -148 86 -197 48 -78 142 -178 220 -234 294 -210
812 -245 1149 -77 208 103 337 267 380 481 l7 32 -295 0 -295 0 -20 -34 c-52
-88 -211 -134 -367 -107 -85 15 -151 48 -201 101 l-38 40 -313 0 c-172 0 -313
-2 -313 -5z"/>
</g>
</svg>
